<svg width="30" height="31" viewBox="0 0 30 31" fill="none" xmlns="http://www.w3.org/2000/svg">
<path d="M13.7206 6.59865C14.1012 6.35068 14.5457 6.21866 15 6.21866C15.4543 6.21866 15.8988 6.35068 16.2794 6.59865L25.2881 12.4693L16.2794 18.3393C15.8988 18.5872 15.4543 18.7193 15 18.7193C14.5457 18.7193 14.1012 18.5872 13.7206 18.3393L4.7125 12.4693L13.7206 6.59865ZM17.1331 5.2899C16.4986 4.8764 15.7576 4.65625 15.0003 4.65625C14.243 4.65625 13.502 4.8764 12.8675 5.2899L2.87813 11.7993C2.76274 11.8688 2.66728 11.9669 2.60103 12.0842C2.53477 12.2015 2.49997 12.3339 2.5 12.4687V20.7499C2.5 20.9571 2.58231 21.1558 2.72882 21.3023C2.87534 21.4488 3.07405 21.5312 3.28125 21.5312C3.48845 21.5312 3.68716 21.4488 3.83368 21.3023C3.98019 21.1558 4.0625 20.9571 4.0625 20.7499V13.9105L6.875 15.7437V23.2499C6.875 23.2999 6.87604 23.3495 6.87813 23.3987C6.885 23.5974 6.96875 23.7862 7.11062 23.9262C9.21296 25.999 12.0476 27.1595 15 27.1562C18.0731 27.1562 20.86 25.923 22.8894 23.9262C23.0315 23.7865 23.1149 23.5978 23.1225 23.3987C23.1242 23.3491 23.125 23.2995 23.125 23.2499V15.7437L27.145 13.1237C27.254 13.0527 27.3435 12.9556 27.4055 12.8413C27.4675 12.727 27.4999 12.599 27.4999 12.469C27.4999 12.3389 27.4675 12.2109 27.4055 12.0966C27.3435 11.9823 27.254 11.8852 27.145 11.8143L17.1331 5.2899ZM21.5625 16.7618V23.0324C19.7759 24.6826 17.4321 25.5974 15 25.5937C12.5679 25.5974 10.2241 24.6826 8.4375 23.0324V16.7618L12.8675 19.6487C13.5019 20.062 14.2428 20.2821 15 20.2821C15.7572 20.2821 16.4981 20.062 17.1325 19.6487L21.5625 16.7618Z" fill="#4B5563"/>
</svg>
