<svg xmlns="http://www.w3.org/2000/svg" fill="none" viewBox="-0.5 -0.5 24 24" height="24" width="24" id="Explore--Streamline-Sharp----Material-Symbols.svg">
  <path fill="#000" d="M6.301041666666667 16.698958333333334L13.248958333333333 13.272916666666667L16.675 6.325L9.727083333333335 9.751041666666667L6.301041666666667 16.698958333333334ZM11.5 12.458333333333334C11.22845625 12.458333333333334 11.000852083333335 12.366477083333333 10.8171875 12.1828125C10.633522916666667 11.999147916666667 10.541666666666668 11.771543750000001 10.541666666666668 11.5C10.541666666666668 11.22845625 10.633522916666667 11.000852083333335 10.8171875 10.8171875C11.000852083333335 10.633522916666667 11.22845625 10.541666666666668 11.5 10.541666666666668C11.771543750000001 10.541666666666668 11.999147916666667 10.633522916666667 12.1828125 10.8171875C12.366477083333333 11.000852083333335 12.458333333333334 11.22845625 12.458333333333334 11.5C12.458333333333334 11.771543750000001 12.366477083333333 11.999147916666667 12.1828125 12.1828125C11.999147916666667 12.366477083333333 11.771543750000001 12.458333333333334 11.5 12.458333333333334ZM11.5 21.083333333333336C10.19029375 21.083333333333336 8.952414583333333 20.831770833333334 7.786458333333334 20.328645833333333C6.620502083333334 19.825520833333336 5.602272916666667 19.13873125 4.731770833333334 18.268229166666668C3.861283125 17.397727083333336 3.174479166666667 16.37949791666667 2.6713541666666667 15.213541666666668C2.168229166666667 14.047585416666667 1.9166666666666667 12.80970625 1.9166666666666667 11.5C1.9166666666666667 10.174289583333334 2.168229166666667 8.92845625 2.6713541666666667 7.7625C3.174479166666667 6.59654375 3.861283125 5.582291666666667 4.731770833333334 4.719791666666667C5.602272916666667 3.8572916666666672 6.620502083333334 3.174479166666667 7.786458333333334 2.6713541666666667C8.952414583333333 2.168229166666667 10.19029375 1.9166666666666667 11.5 1.9166666666666667C12.825710416666666 1.9166666666666667 14.071543750000002 2.168229166666667 15.2375 2.6713541666666667C16.40345625 3.174479166666667 17.417708333333334 3.8572916666666672 18.280208333333334 4.719791666666667C19.142708333333335 5.582291666666667 19.825520833333336 6.59654375 20.328645833333333 7.7625C20.831770833333334 8.92845625 21.083333333333336 10.174289583333334 21.083333333333336 11.5C21.083333333333336 12.80970625 20.831770833333334 14.047585416666667 20.328645833333333 15.213541666666668C19.825520833333336 16.37949791666667 19.142708333333335 17.397727083333336 18.280208333333334 18.268229166666668C17.417708333333334 19.13873125 16.40345625 19.825520833333336 15.2375 20.328645833333333C14.071543750000002 20.831770833333334 12.825710416666666 21.083333333333336 11.5 21.083333333333336ZM11.5 19.645833333333336C13.768039583333334 19.645833333333336 15.692708333333334 18.85123125 17.273958333333333 17.261979166666666C18.855208333333334 15.672727083333335 19.645833333333336 13.752083333333333 19.645833333333336 11.5C19.645833333333336 9.231960416666666 18.855208333333334 7.307291666666667 17.273958333333333 5.726041666666666C15.692708333333334 4.144791666666667 13.768039583333334 3.354166666666667 11.5 3.354166666666667C9.247916666666667 3.354166666666667 7.327272916666667 4.144791666666667 5.738020833333334 5.726041666666666C4.148783125 7.307291666666667 3.354166666666667 9.231960416666666 3.354166666666667 11.5C3.354166666666667 13.752083333333333 4.148783125 15.672727083333335 5.738020833333334 17.261979166666666C7.327272916666667 18.85123125 9.247916666666667 19.645833333333336 11.5 19.645833333333336Z" stroke-width="1"></path>
</svg>