<svg width="25" height="24" viewBox="0 0 25 24" fill="none" xmlns="http://www.w3.org/2000/svg">
<path d="M13.424 21H4.80303C4.2542 21 3.80957 20.5551 3.80957 20.0065V3.99345C3.80957 3.44469 4.25427 3 4.80303 3H20.8162C21.3648 3 21.8096 3.44469 21.8096 3.99345V20.0065C21.8096 20.5552 21.3647 21 20.8162 21H16.2293V14.0294H18.569L18.9194 11.3128H16.2293V9.57849C16.2293 8.79198 16.4477 8.256 17.5756 8.256L19.0141 8.25537V5.82566C18.7653 5.79255 17.9114 5.71859 16.9179 5.71859C14.8439 5.71859 13.424 6.98457 13.424 9.30945V11.3128H11.0782V14.0294H13.424V21Z" fill="#F0F7F7"/>
</svg>
