<svg width="25" height="24" viewBox="0 0 25 24" fill="none" xmlns="http://www.w3.org/2000/svg">
<path d="M12.8096 8.75C11.9476 8.75 11.121 9.09241 10.5115 9.7019C9.90198 10.3114 9.55957 11.138 9.55957 12C9.55957 12.862 9.90198 13.6886 10.5115 14.2981C11.121 14.9076 11.9476 15.25 12.8096 15.25C13.6715 15.25 14.4982 14.9076 15.1077 14.2981C15.7172 13.6886 16.0596 12.862 16.0596 12C16.0596 11.138 15.7172 10.3114 15.1077 9.7019C14.4982 9.09241 13.6715 8.75 12.8096 8.75Z" fill="#F0F7F7"/>
<path fill-rule="evenodd" clip-rule="evenodd" d="M7.57969 3.08177C11.0557 2.6967 14.5637 2.6967 18.0397 3.08177C19.9387 3.29377 21.4697 4.78877 21.6927 6.69477C22.1046 10.2194 22.1046 13.7801 21.6927 17.3048C21.4697 19.2108 19.9387 20.7058 18.0407 20.9188C14.5643 21.3039 11.0561 21.3039 7.57969 20.9188C5.68069 20.7058 4.14969 19.2108 3.92669 17.3058C3.51467 13.7808 3.51467 10.2198 3.92669 6.69477C4.14969 4.78877 5.68069 3.29377 7.57969 3.08177ZM17.8097 5.99977C17.5445 5.99977 17.2901 6.10513 17.1026 6.29267C16.915 6.4802 16.8097 6.73456 16.8097 6.99977C16.8097 7.26499 16.915 7.51934 17.1026 7.70688C17.2901 7.89441 17.5445 7.99977 17.8097 7.99977C18.0749 7.99977 18.3293 7.89441 18.5168 7.70688C18.7043 7.51934 18.8097 7.26499 18.8097 6.99977C18.8097 6.73456 18.7043 6.4802 18.5168 6.29267C18.3293 6.10513 18.0749 5.99977 17.8097 5.99977ZM8.05969 11.9998C8.05969 10.74 8.56013 9.53181 9.45093 8.64102C10.3417 7.75022 11.5499 7.24977 12.8097 7.24977C14.0695 7.24977 15.2776 7.75022 16.1684 8.64102C17.0592 9.53181 17.5597 10.74 17.5597 11.9998C17.5597 13.2596 17.0592 14.4677 16.1684 15.3585C15.2776 16.2493 14.0695 16.7498 12.8097 16.7498C11.5499 16.7498 10.3417 16.2493 9.45093 15.3585C8.56013 14.4677 8.05969 13.2596 8.05969 11.9998Z" fill="#F0F7F7"/>
</svg>
