<svg width="25" height="24" viewBox="0 0 25 24" fill="none" xmlns="http://www.w3.org/2000/svg">
<path fill-rule="evenodd" clip-rule="evenodd" d="M5.92834 7.77127H5.90294C4.63295 7.77127 3.80957 6.94039 3.80957 5.88717C3.80957 4.81347 4.65729 4 5.95268 4C7.24701 4 8.04287 4.81142 8.06827 5.8841C8.06827 6.93731 7.24701 7.77127 5.92834 7.77127ZM21.8096 20H17.8313V14.3754C17.8313 12.9031 17.209 11.8981 15.8406 11.8981C14.7939 11.8981 14.2119 12.5763 13.9409 13.2299C13.8515 13.4365 13.8531 13.7146 13.8547 14.0012V14.0012C13.855 14.0401 13.8552 14.0791 13.8552 14.1182V20H9.91399C9.91399 20 9.96479 10.0365 9.91399 9.13082H13.8552V10.8367C14.088 10.0908 15.3474 9.02632 17.3572 9.02632C19.8506 9.02632 21.8096 10.5897 21.8096 13.9563V20ZM7.77194 9.13082H4.26359V20H7.77194V9.13082Z" fill="#F0F7F7"/>
</svg>
