<svg width="30" height="30" viewBox="0 0 30 30" fill="none" xmlns="http://www.w3.org/2000/svg">
<path d="M21.2801 3.79254L20.0864 3.47379C16.7114 2.57379 15.0239 2.12504 13.6951 2.88879C12.3651 3.65129 11.9126 5.33004 11.0076 8.68504L9.73014 13.4313C8.82514 16.7875 8.37264 18.465 9.14139 19.7875C9.90889 21.1088 11.5964 21.5588 14.9714 22.4575L16.1639 22.7763C19.5389 23.6763 21.2264 24.125 22.5564 23.3613C23.8851 22.5988 24.3376 20.92 25.2414 17.565L26.5201 12.8188C27.4251 9.46254 27.8764 7.78504 27.1089 6.46254C26.3414 5.14004 24.6564 4.69129 21.2801 3.79254Z" stroke="#4B5563" stroke-width="1.875" stroke-linecap="round" stroke-linejoin="round"/>
<path d="M15 26.1825L13.81 26.5075C10.4425 27.4237 8.76003 27.8825 7.43253 27.1037C6.10753 26.3262 5.65503 24.6162 4.75378 21.1937L3.47753 16.3537C2.57503 12.9325 2.12378 11.2212 2.89003 9.87373C3.55253 8.70748 5.00003 8.74998 6.87503 8.74998M21.0675 9.29123C21.0675 10.3087 20.2375 11.1337 19.2138 11.1337C18.1913 11.1337 17.3613 10.3087 17.3613 9.29123C17.3613 8.27373 18.1913 7.44873 19.2138 7.44873C20.2388 7.44873 21.0675 8.27373 21.0675 9.29123Z" stroke="#4B5563" stroke-width="1.875" stroke-linecap="round" stroke-linejoin="round"/>
</svg>
