<svg width="30" height="30" viewBox="0 0 30 30" fill="none" xmlns="http://www.w3.org/2000/svg">
<path d="M16.1719 21.0938C16.1719 21.3255 16.1032 21.5521 15.9744 21.7448C15.8456 21.9375 15.6626 22.0877 15.4485 22.1764C15.2343 22.2651 14.9987 22.2883 14.7714 22.2431C14.5441 22.1979 14.3353 22.0863 14.1714 21.9224C14.0075 21.7585 13.8959 21.5497 13.8506 21.3224C13.8054 21.095 13.8286 20.8594 13.9173 20.6453C14.006 20.4312 14.1562 20.2481 14.3489 20.1194C14.5417 19.9906 14.7682 19.9219 15 19.9219C15.3108 19.9219 15.6089 20.0453 15.8286 20.2651C16.0484 20.4849 16.1719 20.7829 16.1719 21.0938ZM15 8.67188C12.5391 8.67188 10.5469 10.459 10.5469 12.6562V13.125C10.5469 13.3115 10.621 13.4903 10.7528 13.6222C10.8847 13.754 11.0635 13.8281 11.25 13.8281C11.4365 13.8281 11.6153 13.754 11.7472 13.6222C11.8791 13.4903 11.9531 13.3115 11.9531 13.125V12.6562C11.9531 11.2348 13.3195 10.0781 15 10.0781C16.6805 10.0781 18.0469 11.2348 18.0469 12.6562C18.0469 14.0777 16.6805 15.2344 15 15.2344C14.8135 15.2344 14.6347 15.3085 14.5028 15.4403C14.371 15.5722 14.2969 15.751 14.2969 15.9375V16.875C14.2969 17.0615 14.371 17.2403 14.5028 17.3722C14.6347 17.504 14.8135 17.5781 15 17.5781C15.1865 17.5781 15.3653 17.504 15.4972 17.3722C15.6291 17.2403 15.7031 17.0615 15.7031 16.875V16.5914C17.8254 16.2891 19.4531 14.6391 19.4531 12.6562C19.4531 10.459 17.4609 8.67188 15 8.67188ZM26.9531 15C26.9531 17.3641 26.2521 19.6751 24.9387 21.6408C23.6252 23.6065 21.7584 25.1385 19.5743 26.0432C17.3901 26.948 14.9867 27.1847 12.6681 26.7234C10.3494 26.2622 8.21954 25.1238 6.54787 23.4521C4.87619 21.7805 3.73777 19.6506 3.27656 17.3319C2.81534 15.0133 3.05205 12.6099 3.95676 10.4257C4.86146 8.24159 6.39352 6.37477 8.3592 5.06134C10.3249 3.74791 12.6359 3.04688 15 3.04688C18.169 3.0506 21.2072 4.31114 23.448 6.55198C25.6889 8.79281 26.9494 11.831 26.9531 15ZM25.5469 15C25.5469 12.914 24.9283 10.8749 23.7694 9.14047C22.6105 7.40605 20.9633 6.05423 19.0361 5.25596C17.1089 4.45769 14.9883 4.24883 12.9424 4.65578C10.8965 5.06273 9.01725 6.06723 7.54224 7.54223C6.06723 9.01724 5.06274 10.8965 4.65579 12.9424C4.24883 14.9883 4.4577 17.1089 5.25596 19.0361C6.05423 20.9633 7.40605 22.6105 9.14048 23.7694C10.8749 24.9283 12.914 25.5469 15 25.5469C17.7963 25.5438 20.4771 24.4316 22.4543 22.4543C24.4316 20.4771 25.5438 17.7963 25.5469 15Z" fill="#4B5563"/>
</svg>
