<svg width="15" height="15" viewBox="0 0 15 15" fill="none" xmlns="http://www.w3.org/2000/svg">
<path d="M12.6683 11.8853L12.6683 11.8853C12.6658 11.8882 12.6645 11.8919 12.6645 11.8958C12.6645 11.9 12.6662 11.9041 12.6692 11.9071L14.8339 14.0707C14.8339 14.0707 14.8339 14.0708 14.8339 14.0708C14.9322 14.1726 14.9866 14.3089 14.9853 14.4503C14.9841 14.5919 14.9273 14.7272 14.8273 14.8273C14.7272 14.9273 14.5919 14.9841 14.4503 14.9853C14.3089 14.9866 14.1726 14.9322 14.0708 14.8339C12.8431 13.6063 10.8786 13.6275 9.2181 14.1113C8.4378 14.3387 7.61767 14.4341 6.79148 14.3864C4.9351 14.2791 3.19243 13.4569 1.92916 12.0924C0.66588 10.728 -0.019805 8.92723 0.015982 7.0681C0.0517689 5.20896 0.806246 3.43595 2.1211 2.1211C3.43595 0.806246 5.20896 0.0517689 7.0681 0.015982C8.92723 -0.019805 10.728 0.66588 12.0924 1.92916C13.4569 3.19243 14.2791 4.9351 14.3864 6.79148C14.4937 8.64769 13.8779 10.4733 12.6683 11.8853ZM7.2066 13.3191C8.82772 13.3191 10.3825 12.6751 11.5288 11.5288C12.6751 10.3825 13.3191 8.82772 13.3191 7.2066C13.3191 5.58547 12.6751 4.03074 11.5288 2.88443C10.3825 1.73812 8.82772 1.09414 7.2066 1.09414C5.58547 1.09414 4.03074 1.73812 2.88443 2.88443C1.73812 4.03074 1.09414 5.58547 1.09414 7.2066C1.09414 8.82772 1.73812 10.3825 2.88443 11.5288C4.03074 12.6751 5.58547 13.3191 7.2066 13.3191Z" fill="#909090" stroke="#D1D5DB" stroke-width="0.0292969"/>
</svg>
