<svg width="30" height="31" viewBox="0 0 30 31" fill="none" xmlns="http://www.w3.org/2000/svg">
<path d="M11.9496 26.8632C9.04373 26.5726 8.94687 24.0542 9.14059 23.3762C9.38965 22.5044 10.4967 21.2517 12.7245 20.9547C15.146 20.7609 16.6958 21.8264 17.6644 22.4076C18.9236 23.3762 21.0546 24.2479 22.5075 24.1511C21.8294 24.8291 20.6671 25.7977 19.7954 25.8946C18.2456 25.8946 17.4707 25.1197 16.2115 24.3448C15.0491 23.4731 13.6931 23.2793 13.2088 23.2793C11.9496 23.2793 11.0778 24.0542 11.1747 24.926C11.3064 26.1116 12.4339 26.5726 13.1119 26.8632C12.7245 26.9601 11.9496 26.8632 11.9496 26.8632Z" fill="#F05454"/>
<path d="M14.7566 26.8631C13.5974 26.9919 12.7225 26.6694 11.7539 25.7976C13.4974 26.5725 15.0472 25.1196 15.3378 24.3447C16.0158 24.7321 16.2095 24.829 16.7907 25.2164C16.3064 25.9913 15.6284 26.7662 14.7566 26.8631Z" fill="#F05454"/>
<path d="M18.0536 4.9493C20.9594 5.23989 21.0563 7.75828 20.8626 8.43631C20.6135 9.30805 19.5065 10.5608 17.2787 10.8578C14.8572 11.0516 13.3074 9.9861 12.3388 9.40493C11.0796 8.4363 8.94862 7.56456 7.4957 7.66142C8.17373 6.98339 9.33607 6.01477 10.2078 5.91791C11.7576 5.91791 12.5325 6.6928 13.7917 7.46769C14.954 8.33944 16.3101 8.53317 16.7944 8.53317C18.0536 8.53317 18.9254 7.75827 18.8285 6.88653C18.6968 5.70093 17.5693 5.23988 16.8913 4.9493C17.2787 4.85243 18.0536 4.9493 18.0536 4.9493Z" fill="#F05454"/>
<path d="M15.2463 4.94941C16.4056 4.82061 17.2804 5.14313 18.249 6.01488C16.5055 5.23999 14.9557 6.69292 14.6651 7.46781C13.9871 7.08036 13.7934 6.9835 13.2122 6.59605C13.6965 5.82116 14.3746 5.04627 15.2463 4.94941Z" fill="#F05454"/>
<path d="M4.04305 12.8553C4.33364 9.94949 6.85203 9.85263 7.53006 10.0464C8.4018 10.2954 9.65456 11.4024 9.9516 13.6302C10.1453 16.0518 9.07985 17.6015 8.49868 18.5701C7.53005 19.8294 6.65831 21.9603 6.75517 23.4132C6.07714 22.7352 5.10852 21.5729 5.01166 20.7011C5.01166 19.1513 5.78655 18.3764 6.56144 17.1172C7.43319 15.9549 7.62692 14.5988 7.62692 14.1145C7.62692 12.8553 6.85202 11.9836 5.98028 12.0804C4.79468 12.2122 4.33363 13.3396 4.04305 14.0177C3.94618 13.6302 4.04305 12.8553 4.04305 12.8553Z" fill="#F05454"/>
<path d="M4.04292 15.6643C3.91411 14.5051 4.23664 13.6302 5.10839 12.6616C4.3335 14.4051 5.78643 15.9549 6.56132 16.2455C6.17387 16.9235 6.07701 17.1172 5.68956 17.6984C4.91467 17.2141 4.13978 16.5361 4.04292 15.6643Z" fill="#F05454"/>
<path d="M25.9569 18.9577C25.6664 21.8635 23.148 21.9604 22.4699 21.7666C21.5982 21.5176 20.3454 20.4106 20.0484 18.1828C19.8547 15.7612 20.9202 14.2114 21.5013 13.2428C22.47 11.9836 23.3417 9.85267 23.2448 8.39975C23.9229 9.07778 24.8915 10.2401 24.9883 11.1119C24.9883 12.6617 24.2134 13.4365 23.4386 14.6957C22.5668 15.8581 22.3731 17.2141 22.3731 17.6985C22.3731 18.9577 23.148 19.8294 24.0197 19.7325C25.2053 19.6008 25.6664 18.4733 25.9569 17.7953C26.0538 18.1828 25.9569 18.9577 25.9569 18.9577Z" fill="#F05454"/>
<path d="M25.9571 16.1487C26.0859 17.3079 25.7634 18.1828 24.8916 19.1514C25.6665 17.4079 24.2136 15.8581 23.4387 15.5675C23.8261 14.8895 23.923 14.6957 24.3104 14.1146C25.0853 14.5989 25.8602 15.2769 25.9571 16.1487Z" fill="#F05454"/>
</svg>
