<svg width="24" height="24" viewBox="0 0 24 24" fill="none" xmlns="http://www.w3.org/2000/svg">
<path d="M11.9531 0C9.58903 0 7.27801 0.701038 5.31233 2.01446C3.34665 3.32789 1.81459 5.19471 0.909883 7.37886C0.0051789 9.56301 -0.231533 11.9664 0.229681 14.2851C0.690895 16.6037 1.82932 18.7336 3.50099 20.4053C5.17267 22.0769 7.30251 23.2154 9.62119 23.6766C11.9399 24.1378 14.3432 23.9011 16.5274 22.9964C18.7115 22.0917 20.5784 20.5596 21.8918 18.5939C23.2052 16.6282 23.9063 14.3172 23.9063 11.9531C23.9025 8.7841 22.642 5.74594 20.4012 3.5051C18.1603 1.26426 15.1222 0.0037217 11.9531 0ZM21.5121 7.5H16.7801C16.2159 5.32606 15.1872 3.30024 13.7648 1.56211C15.4381 1.85714 17.0156 2.55076 18.3641 3.58431C19.7126 4.61786 20.7924 5.96096 21.5121 7.5ZM22.5 11.9531C22.5008 12.9853 22.3496 14.0119 22.0512 15H17.0871C17.4294 12.9832 17.4294 10.9231 17.0871 8.90625H22.0512C22.3496 9.89433 22.5008 10.921 22.5 11.9531ZM11.9531 22.2457C11.2762 21.5551 10.679 20.7905 10.1731 19.9664C9.49018 18.8557 8.95965 17.6583 8.59571 16.4062H15.3106C14.9466 17.6583 14.4161 18.8557 13.7332 19.9664C13.2272 20.7905 12.6301 21.5551 11.9531 22.2457ZM8.25586 15C7.8731 12.9868 7.8731 10.9195 8.25586 8.90625H15.6504C16.0332 10.9195 16.0332 12.9868 15.6504 15H8.25586ZM1.40626 11.9531C1.40547 10.921 1.5567 9.89433 1.85508 8.90625H6.81915C6.47689 10.9231 6.47689 12.9832 6.81915 15H1.85508C1.5567 14.0119 1.40547 12.9853 1.40626 11.9531ZM11.9531 1.66055C12.6301 2.35114 13.2272 3.11571 13.7332 3.93984C14.4161 5.05055 14.9466 6.24799 15.3106 7.5H8.59571C8.95965 6.24799 9.49018 5.05055 10.1731 3.93984C10.679 3.11571 11.2762 2.35114 11.9531 1.66055ZM10.1414 1.56211C8.71903 3.30024 7.69033 5.32606 7.12618 7.5H2.39415C3.11388 5.96096 4.19365 4.61786 5.54215 3.58431C6.89064 2.55076 8.4682 1.85714 10.1414 1.56211ZM2.39415 16.4062H7.12618C7.69033 18.5802 8.71903 20.606 10.1414 22.3441C8.4682 22.0491 6.89064 21.3555 5.54215 20.3219C4.19365 19.2884 3.11388 17.9453 2.39415 16.4062ZM13.7613 22.3441C15.185 20.6063 16.2149 18.5805 16.7801 16.4062H21.5121C20.7924 17.9453 19.7126 19.2884 18.3641 20.3219C17.0156 21.3555 15.4381 22.0491 13.7648 22.3441H13.7613Z" fill="#4B5563"/>
</svg>
