<svg width="25" height="24" viewBox="0 0 25 24" fill="none" xmlns="http://www.w3.org/2000/svg">
<path d="M21.8096 6.77573C21.1482 7.07692 20.4361 7.28061 19.6891 7.37161C20.4519 6.90358 21.0373 6.16143 21.313 5.27736C20.5988 5.71073 19.8096 6.026 18.9665 6.19502C18.2945 5.45937 17.3341 5 16.2713 5C14.2332 5 12.5798 6.69556 12.5798 8.78657C12.5798 9.08342 12.6115 9.37161 12.6749 9.64897C9.60566 9.49079 6.88511 7.98483 5.06261 5.69122C4.74459 6.25244 4.56287 6.90358 4.56287 7.59697C4.56287 8.91008 5.21475 10.0693 6.20577 10.7486C5.60144 10.7302 5.03091 10.558 4.53223 10.2763V10.3229C4.53223 12.1582 5.80534 13.6891 7.49578 14.0358C7.18622 14.1246 6.85976 14.169 6.52272 14.169C6.28501 14.169 6.05257 14.1463 5.82753 14.1018C6.29768 15.6056 7.6606 16.701 9.27708 16.7302C8.01348 17.7465 6.42024 18.3521 4.69071 18.3521C4.39277 18.3521 4.098 18.3348 3.80957 18.3001C5.44401 19.3727 7.3859 20 9.47043 20C16.2639 20 19.9776 14.2308 19.9776 9.22644C19.9776 9.06176 19.9744 8.89707 19.968 8.73564C20.6897 8.20152 21.3162 7.53521 21.8096 6.77573Z" fill="#F0F7F7"/>
</svg>
