<svg width="252" height="252" viewBox="0 0 252 252" fill="none" xmlns="http://www.w3.org/2000/svg">
<path d="M91.0556 251.507C57.7705 248.178 56.661 219.331 58.88 211.565C61.7329 201.579 74.413 187.23 99.9316 183.827C127.669 181.608 145.421 193.813 156.516 200.47C170.94 211.565 195.349 221.55 211.992 220.441C204.225 228.207 190.911 239.302 180.925 240.412C163.173 240.412 154.297 231.536 139.874 222.66C126.56 212.674 111.027 210.455 105.479 210.455C91.0556 210.455 81.0701 219.331 82.1796 229.317C83.6886 242.897 96.6031 248.178 104.37 251.507C99.9316 252.616 91.0556 251.507 91.0556 251.507Z" fill="url(#paint0_linear_2_35)"/>
<path d="M123.215 251.507C109.936 252.983 99.9153 249.288 88.8203 239.303C108.791 248.179 126.543 231.536 129.872 222.66C137.638 227.098 139.857 228.208 146.514 232.646C140.967 241.522 133.2 250.398 123.215 251.507Z" fill="#0F4C75"/>
<path d="M160.978 0.493154C194.263 3.82166 195.372 32.6687 193.153 40.4353C190.3 50.4206 177.62 64.7704 152.102 68.1729C124.364 70.3919 106.612 58.1873 95.517 51.5303C81.0933 40.4351 56.6842 30.4497 40.0416 31.5592C47.8082 23.7927 61.1222 12.6976 71.1077 11.5881C88.8598 11.5881 97.7358 20.4641 112.159 29.3402C125.473 39.3256 141.007 41.5447 146.554 41.5447C160.978 41.5447 170.963 32.6686 169.854 22.6832C168.345 9.10267 155.43 3.82157 147.664 0.493155C152.102 -0.616443 160.978 0.493154 160.978 0.493154Z" fill="url(#paint1_linear_2_35)"/>
<path d="M128.821 0.493271C142.1 -0.982111 152.121 2.71225 163.216 12.6978C143.245 3.82178 125.493 20.4644 122.164 29.3405C114.398 24.9023 112.179 23.7928 105.522 19.3548C111.069 10.4788 118.836 1.60277 128.821 0.493271Z" fill="#0F4C75"/>
<path d="M0.493154 91.0505C3.82166 57.7654 32.6687 56.6559 40.4353 58.8748C50.4206 61.7278 64.7704 74.4079 68.1729 99.9265C70.3919 127.664 58.1873 145.416 51.5303 156.511C40.4351 170.935 30.4497 195.344 31.5592 211.986C23.7927 204.22 12.6976 190.906 11.5881 180.92C11.5881 163.168 20.4641 154.292 29.3402 139.869C39.3256 126.555 41.5447 111.022 41.5447 105.474C41.5447 91.0505 32.6686 81.065 22.6832 82.1745C9.10267 83.6834 3.82157 96.598 0.493155 104.365C-0.616443 99.9265 0.493154 91.0505 0.493154 91.0505Z" fill="url(#paint2_linear_2_35)"/>
<path d="M0.489365 123.226C-0.986017 109.947 2.70834 99.9263 12.6939 88.8313C3.81787 108.802 20.4605 126.554 29.3365 129.883C24.8984 137.649 23.7889 139.868 19.3509 146.525C10.4749 140.978 1.59887 133.211 0.489365 123.226Z" fill="#0F4C75"/>
<path d="M251.507 160.95C248.178 194.235 219.331 195.345 211.565 193.126C201.579 190.273 187.23 177.593 183.827 152.074C181.608 124.337 193.813 106.585 200.47 95.4897C211.565 81.0659 221.55 56.6568 220.441 40.0143C228.207 47.7808 239.302 61.0948 240.412 71.0804C240.412 88.8325 231.536 97.7085 222.66 112.132C212.674 125.446 210.455 140.979 210.455 146.527C210.455 160.95 219.331 170.936 229.317 169.826C242.897 168.317 248.178 155.403 251.507 147.636C252.616 152.074 251.507 160.95 251.507 160.95Z" fill="url(#paint3_linear_2_35)"/>
<path d="M251.511 128.774C252.986 142.052 249.292 152.073 239.306 163.168C248.182 143.197 231.539 125.445 222.663 122.117C227.102 114.35 228.211 112.131 232.649 105.474C241.525 111.022 250.401 118.788 251.511 128.774Z" fill="#0F4C75"/>
<path d="M109.562 112.25H145.812V124.75H140.188V122.25C140.188 121.74 140.141 121.214 140.047 120.672C139.964 120.13 139.828 119.594 139.641 119.062C139.464 118.531 139.203 118.099 138.859 117.766C138.516 117.422 138.125 117.25 137.688 117.25H132.688V146H137.688V151H117.688V146H122.688V117.25H117.688C117.25 117.25 116.859 117.422 116.516 117.766C116.172 118.099 115.906 118.531 115.719 119.062C115.542 119.594 115.406 120.13 115.312 120.672C115.229 121.214 115.188 121.74 115.188 122.25V124.75H109.562V112.25Z" fill="url(#paint4_linear_2_35)"/>
<defs>
<linearGradient id="paint0_linear_2_35" x1="46.6755" y1="183.827" x2="210.882" y2="233.755" gradientUnits="userSpaceOnUse">
<stop offset="0.315404" stop-color="#4EE8F2"/>
<stop offset="0.849773" stop-color="#0F4C75"/>
</linearGradient>
<linearGradient id="paint1_linear_2_35" x1="205.358" y1="68.1728" x2="41.1511" y2="18.245" gradientUnits="userSpaceOnUse">
<stop offset="0.315404" stop-color="#4EE8F2"/>
<stop offset="0.849773" stop-color="#0F4C75"/>
</linearGradient>
<linearGradient id="paint2_linear_2_35" x1="68.1728" y1="46.6703" x2="18.245" y2="210.877" gradientUnits="userSpaceOnUse">
<stop offset="0.315404" stop-color="#4EE8F2"/>
<stop offset="0.849773" stop-color="#0F4C75"/>
</linearGradient>
<linearGradient id="paint3_linear_2_35" x1="183.827" y1="205.33" x2="233.755" y2="41.1238" gradientUnits="userSpaceOnUse">
<stop offset="0.315404" stop-color="#4EE8F2"/>
<stop offset="0.849773" stop-color="#0F4C75"/>
</linearGradient>
<linearGradient id="paint4_linear_2_35" x1="96.6792" y1="96" x2="162.337" y2="98.6786" gradientUnits="userSpaceOnUse">
<stop stop-color="#4EE8F2"/>
<stop offset="0.419604" stop-color="#0F4C75"/>
</linearGradient>
</defs>
</svg>
