<svg width="114" height="114" viewBox="0 0 114 114" fill="none" xmlns="http://www.w3.org/2000/svg">
<g clip-path="url(#clip0_261_2)">
<path d="M41.0323 113.342C26.0323 111.842 25.5323 98.8421 26.5323 95.3421C27.818 90.8422 33.5323 84.3754 45.0323 82.8421C57.5323 81.8421 65.5323 87.3421 70.5322 90.3421C77.0323 95.3422 88.0323 99.8421 95.5323 99.3421C92.0323 102.842 86.0323 107.842 81.5323 108.342C73.5323 108.342 69.5323 104.342 63.0323 100.342C57.0323 95.8422 50.0323 94.8421 47.5323 94.8421C41.0323 94.8421 36.5323 98.8422 37.0323 103.342C37.7123 109.462 43.5323 111.842 47.0323 113.342C45.0323 113.842 41.0323 113.342 41.0323 113.342Z" fill="url(#paint0_linear_261_2)"/>
<path d="M55.5322 113.342C49.5483 114.007 45.0322 112.342 40.0322 107.842C49.0322 111.842 57.0322 104.342 58.5322 100.342C62.0322 102.342 63.0322 102.842 66.0322 104.842C63.5322 108.842 60.0322 112.842 55.5322 113.342Z" fill="url(#paint1_linear_261_2)"/>
<path d="M72.5322 0.222241C87.5321 1.72224 88.0321 14.7222 87.0322 18.2222C85.7465 22.7222 80.0322 29.1889 68.5322 30.7222C56.0322 31.7222 48.0322 26.2222 43.0322 23.2222C36.5322 18.2222 25.5322 13.7222 18.0322 14.2222C21.5322 10.7222 27.5322 5.7222 32.0322 5.2222C40.0322 5.2222 44.0322 9.22221 50.5322 13.2222C56.5322 17.7222 63.5322 18.7222 66.0322 18.7222C72.5322 18.7222 77.0322 14.7222 76.5322 10.2222C75.8521 4.10214 70.0322 1.7222 66.5322 0.222241C68.5322 -0.277801 72.5322 0.222241 72.5322 0.222241Z" fill="url(#paint2_linear_261_2)"/>
<path d="M58.0322 0.222176C64.0162 -0.442708 68.5322 1.22216 73.5322 5.72216C64.5322 1.72217 56.5322 9.22221 55.0322 13.2222C51.5322 11.2222 50.5322 10.7222 47.5322 8.72217C50.0322 4.72217 53.5322 0.722174 58.0322 0.222176Z" fill="url(#paint3_linear_261_2)"/>
<path d="M0.222241 41.0321C1.72224 26.0321 14.7222 25.5321 18.2222 26.532C22.7222 27.8177 29.1889 33.532 30.7222 45.032C31.7222 57.532 26.2222 65.5321 23.2222 70.532C18.2222 77.0321 13.7222 88.0321 14.2222 95.5321C10.7222 92.0321 5.7222 86.0321 5.2222 81.5321C5.2222 73.5321 9.22221 69.5321 13.2222 63.0321C17.7222 57.0321 18.7222 50.0321 18.7222 47.5321C18.7222 41.0321 14.7222 36.5321 10.2222 37.0321C4.10214 37.7121 1.7222 43.5321 0.222241 47.0321C-0.277801 45.032 0.222241 41.0321 0.222241 41.0321Z" fill="url(#paint4_linear_261_2)"/>
<path d="M0.222176 55.5321C-0.442708 49.5481 1.22216 45.0321 5.72216 40.0321C1.72217 49.0321 9.22221 57.0321 13.2222 58.5321C11.2222 62.0321 10.7222 63.0321 8.72217 66.0321C4.72217 63.5321 0.722174 60.0321 0.222176 55.5321Z" fill="url(#paint5_linear_261_2)"/>
<path d="M113.342 72.5322C111.842 87.5321 98.842 88.0321 95.342 87.0322C90.842 85.7465 84.3753 80.0322 82.842 68.5322C81.842 56.0322 87.342 48.0322 90.342 43.0322C95.342 36.5322 99.842 25.5322 99.342 18.0322C102.842 21.5322 107.842 27.5322 108.342 32.0322C108.342 40.0322 104.342 44.0322 100.342 50.5322C95.842 56.5322 94.842 63.5322 94.842 66.0322C94.842 72.5322 98.842 77.0322 103.342 76.5322C109.462 75.8521 111.842 70.0322 113.342 66.5322C113.842 68.5322 113.342 72.5322 113.342 72.5322Z" fill="url(#paint6_linear_261_2)"/>
<path d="M113.342 58.0321C114.007 64.0161 112.342 68.5321 107.842 73.5321C111.842 64.5321 104.342 56.5321 100.342 55.0321C102.342 51.5321 102.842 50.5321 104.842 47.5321C108.842 50.0321 112.842 53.5321 113.342 58.0321Z" fill="url(#paint7_linear_261_2)"/>
<path d="M44.7477 48.4412V42.3957H68.7676V48.4412H60.4551V70.0321H53.0602V48.4412H44.7477Z" fill="white"/>
</g>
<defs>
<linearGradient id="paint0_linear_261_2" x1="21.0323" y1="82.8421" x2="95.0323" y2="105.342" gradientUnits="userSpaceOnUse">
<stop offset="0.315404" stop-color="#4EE8F2"/>
<stop offset="0.849773" stop-color="#0053EF"/>
</linearGradient>
<linearGradient id="paint1_linear_261_2" x1="41.0322" y1="112.342" x2="68.5322" y2="100.842" gradientUnits="userSpaceOnUse">
<stop offset="0.223418" stop-color="#411DB0"/>
<stop offset="0.572067" stop-color="#661DC4"/>
<stop offset="0.824" stop-color="#9C00FF"/>
</linearGradient>
<linearGradient id="paint2_linear_261_2" x1="92.5321" y1="30.7222" x2="18.5322" y2="8.2222" gradientUnits="userSpaceOnUse">
<stop offset="0.315404" stop-color="#4EE8F2"/>
<stop offset="0.849773" stop-color="#0053EF"/>
</linearGradient>
<linearGradient id="paint3_linear_261_2" x1="72.5322" y1="1.22217" x2="45.0322" y2="12.7222" gradientUnits="userSpaceOnUse">
<stop offset="0.223418" stop-color="#411DB0"/>
<stop offset="0.572067" stop-color="#661DC4"/>
<stop offset="0.824" stop-color="#9C00FF"/>
</linearGradient>
<linearGradient id="paint4_linear_261_2" x1="30.7222" y1="21.0321" x2="8.2222" y2="95.0321" gradientUnits="userSpaceOnUse">
<stop offset="0.315404" stop-color="#4EE8F2"/>
<stop offset="0.849773" stop-color="#0053EF"/>
</linearGradient>
<linearGradient id="paint5_linear_261_2" x1="1.22217" y1="41.0321" x2="12.7222" y2="68.5321" gradientUnits="userSpaceOnUse">
<stop offset="0.223418" stop-color="#411DB0"/>
<stop offset="0.572067" stop-color="#661DC4"/>
<stop offset="0.824" stop-color="#9C00FF"/>
</linearGradient>
<linearGradient id="paint6_linear_261_2" x1="82.842" y1="92.5321" x2="105.342" y2="18.5322" gradientUnits="userSpaceOnUse">
<stop offset="0.315404" stop-color="#4EE8F2"/>
<stop offset="0.849773" stop-color="#0053EF"/>
</linearGradient>
<linearGradient id="paint7_linear_261_2" x1="112.342" y1="72.5321" x2="100.842" y2="45.0321" gradientUnits="userSpaceOnUse">
<stop offset="0.223418" stop-color="#411DB0"/>
<stop offset="0.572067" stop-color="#661DC4"/>
<stop offset="0.824" stop-color="#9C00FF"/>
</linearGradient>
<clipPath id="clip0_261_2">
<rect width="114" height="114" fill="white"/>
</clipPath>
</defs>
</svg>
