<svg width="252" height="182" viewBox="0 0 252 182" fill="none" xmlns="http://www.w3.org/2000/svg">
<rect x="0.5" y="0.5" width="251" height="181" rx="20.5" fill="url(#paint0_linear_144_75)" stroke="url(#paint1_linear_144_75)"/>
<path d="M140.076 88.0496C143.178 86.3251 142.776 79.6797 139.18 73.1961C137.638 70.4045 135.741 68.1438 133.845 66.5634C131.577 68.2463 128.83 69.159 126.006 69.168C123.178 69.1617 120.426 68.2488 118.154 66.5634C116.258 68.1438 114.366 70.407 112.819 73.1961C109.221 79.6772 108.824 86.3251 111.934 88.0496C113.32 88.8386 114.781 88.2469 116.288 86.7954C116.006 88.3592 115.865 89.9451 115.866 91.5342C115.866 98.9634 118.749 104.967 122.296 104.967C124.436 104.967 125.495 102.779 126.003 99.4338C126.509 102.756 127.571 104.967 129.695 104.967C133.228 104.967 136.133 98.9609 136.133 91.5342C136.133 89.8652 135.977 88.2722 135.708 86.7979C137.226 88.2519 138.682 88.8538 140.073 88.0547L140.076 88.0496ZM126.001 66.6393C127.436 66.6607 128.86 66.3966 130.192 65.8622C131.523 65.3279 132.736 64.534 133.758 63.5269C134.779 62.5197 135.591 61.3193 136.145 59.9956C136.698 58.6719 136.983 57.2513 136.983 55.8164C136.982 54.3816 136.696 52.9612 136.142 51.6378C135.587 50.3145 134.775 49.1147 133.752 48.1083C132.729 47.1018 131.517 46.3088 130.185 45.7754C128.853 45.242 127.428 44.9789 125.993 45.0013C123.153 45.0457 120.443 46.2056 118.45 48.2306C116.458 50.2555 115.341 52.983 115.342 55.824C115.343 58.6651 116.462 61.3918 118.456 63.4153C120.45 65.4388 123.16 66.5968 126.001 66.6393ZM147.732 73.5021C150.043 73.4346 152.237 72.4692 153.847 70.8109C155.458 69.1525 156.359 66.9318 156.359 64.6201C156.359 62.3084 155.458 60.0877 153.847 58.4294C152.237 56.771 150.043 55.8057 147.732 55.7381C145.376 55.7384 143.116 56.6748 141.45 58.3412C139.785 60.0076 138.849 62.2676 138.849 64.6239C138.849 66.9802 139.786 69.2399 141.452 70.9058C143.119 72.5718 145.379 73.5075 147.735 73.5072L147.732 73.5021ZM158.555 78.8882C157.286 76.5922 155.733 74.7361 154.175 73.4389C152.312 74.8194 150.056 75.5681 147.737 75.5756C145.826 75.5756 144.046 75.0522 142.488 74.1849C143.742 76.9487 144.518 79.748 144.663 82.2514C144.9 86.0849 143.702 88.9271 141.304 90.2547C140.791 90.5377 140.232 90.7294 139.653 90.8211C139.509 91.8123 139.41 92.844 139.41 93.9314C139.41 100.033 141.775 104.961 144.69 104.961C146.445 104.961 147.32 103.166 147.735 100.42C148.147 103.151 149.019 104.961 150.769 104.961C153.665 104.961 156.054 100.031 156.054 93.9364C156.054 92.5633 155.92 91.256 155.7 90.0422C156.944 91.2383 158.143 91.7314 159.286 91.0739C161.832 89.6579 161.504 84.201 158.553 78.8857L158.555 78.8882ZM104.269 73.5021C106.026 73.5011 107.742 72.9794 109.202 72.003C110.662 71.0266 111.799 69.6392 112.47 68.0164C113.142 66.3936 113.317 64.6081 112.974 62.8857C112.631 61.1634 111.784 59.5815 110.542 58.34C109.3 57.0985 107.718 56.2532 105.995 55.9109C104.272 55.5687 102.487 55.7448 100.865 56.4171C99.2422 57.0894 97.8555 58.2277 96.8799 59.688C95.9043 61.1484 95.3836 62.8652 95.3836 64.6214C95.3842 66.9778 96.3206 69.2376 97.9869 70.9038C99.6532 72.5701 101.913 73.5065 104.269 73.5072V73.5021ZM110.68 90.2471C106.654 88.0092 106.285 81.336 109.526 74.1798C107.924 75.0897 106.114 75.5713 104.272 75.5782C101.854 75.5782 99.6393 74.769 97.8238 73.4389C96.2686 74.7336 94.7185 76.5896 93.4441 78.8832C90.4931 84.2035 90.1694 89.6604 92.7183 91.0714C93.8562 91.7238 95.0574 91.2358 96.2939 90.0448C96.0689 91.329 95.9547 92.6301 95.9525 93.9339C95.9525 100.033 98.3168 104.959 101.232 104.959C102.987 104.959 103.862 103.164 104.277 100.42C104.694 103.151 105.567 104.961 107.311 104.961C110.212 104.961 112.596 100.031 112.596 93.9364C112.596 92.8415 112.495 91.8073 112.351 90.816C111.766 90.7248 111.201 90.5313 110.682 90.2445L110.68 90.2471Z" fill="white"/>
<path d="M39.2551 129.886C39.3751 129.886 39.4784 129.933 39.5651 130.026L40.4051 130.946C39.8184 131.64 39.1017 132.176 38.2551 132.556C37.4151 132.936 36.4017 133.126 35.2151 133.126C34.1751 133.126 33.2317 132.946 32.3851 132.586C31.5451 132.226 30.8251 131.723 30.2251 131.076C29.6317 130.43 29.1717 129.656 28.8451 128.756C28.5184 127.856 28.3551 126.866 28.3551 125.786C28.3551 124.706 28.5251 123.716 28.8651 122.816C29.2117 121.916 29.6951 121.143 30.3151 120.496C30.9351 119.85 31.6751 119.346 32.5351 118.986C33.4017 118.626 34.3584 118.446 35.4051 118.446C36.4251 118.446 37.3317 118.613 38.1251 118.946C38.9184 119.28 39.6084 119.723 40.1951 120.276L39.4951 121.266C39.4484 121.34 39.3884 121.4 39.3151 121.446C39.2484 121.493 39.1584 121.516 39.0451 121.516C38.9184 121.516 38.7684 121.453 38.5951 121.326C38.4284 121.2 38.2051 121.06 37.9251 120.906C37.6517 120.746 37.3117 120.603 36.9051 120.476C36.4984 120.35 35.9917 120.286 35.3851 120.286C34.6717 120.286 34.0184 120.413 33.4251 120.666C32.8317 120.913 32.3184 121.273 31.8851 121.746C31.4584 122.213 31.1251 122.79 30.8851 123.476C30.6517 124.156 30.5351 124.926 30.5351 125.786C30.5351 126.66 30.6584 127.436 30.9051 128.116C31.1517 128.796 31.4917 129.373 31.9251 129.846C32.3584 130.32 32.8684 130.68 33.4551 130.926C34.0417 131.173 34.6751 131.296 35.3551 131.296C35.7684 131.296 36.1384 131.273 36.4651 131.226C36.7984 131.173 37.1017 131.096 37.3751 130.996C37.6551 130.896 37.9184 130.77 38.1651 130.616C38.4117 130.456 38.6551 130.266 38.8951 130.046C38.9484 130 39.0051 129.963 39.0651 129.936C39.1251 129.903 39.1884 129.886 39.2551 129.886ZM46.2801 122.646C47.0267 122.646 47.7001 122.77 48.3001 123.016C48.9067 123.256 49.4201 123.606 49.8401 124.066C50.2667 124.52 50.5934 125.07 50.8201 125.716C51.0467 126.356 51.1601 127.076 51.1601 127.876C51.1601 128.676 51.0467 129.4 50.8201 130.046C50.5934 130.693 50.2667 131.243 49.8401 131.696C49.4201 132.15 48.9067 132.5 48.3001 132.746C47.7001 132.986 47.0267 133.106 46.2801 133.106C45.5267 133.106 44.8467 132.986 44.2401 132.746C43.6401 132.5 43.1267 132.15 42.7001 131.696C42.2734 131.243 41.9434 130.693 41.7101 130.046C41.4834 129.4 41.3701 128.676 41.3701 127.876C41.3701 127.076 41.4834 126.356 41.7101 125.716C41.9434 125.07 42.2734 124.52 42.7001 124.066C43.1267 123.606 43.6401 123.256 44.2401 123.016C44.8467 122.77 45.5267 122.646 46.2801 122.646ZM46.2801 131.586C47.2401 131.586 47.9567 131.263 48.4301 130.616C48.9034 129.97 49.1401 129.06 49.1401 127.886C49.1401 126.713 48.9034 125.803 48.4301 125.156C47.9567 124.503 47.2401 124.176 46.2801 124.176C45.3067 124.176 44.5801 124.503 44.1001 125.156C43.6267 125.803 43.3901 126.713 43.3901 127.886C43.3901 129.06 43.6267 129.97 44.1001 130.616C44.5801 131.263 45.3067 131.586 46.2801 131.586ZM55.3368 118.206V132.966H53.3768V118.206H55.3368ZM60.122 118.206V132.966H58.162V118.206H60.122ZM68.3671 128.456C67.5738 128.483 66.9004 128.546 66.3471 128.646C65.7938 128.74 65.3438 128.866 64.9971 129.026C64.6504 129.186 64.4004 129.376 64.2471 129.596C64.0938 129.81 64.0171 130.05 64.0171 130.316C64.0171 130.57 64.0571 130.79 64.1371 130.976C64.2238 131.156 64.3371 131.306 64.4771 131.426C64.6238 131.54 64.7938 131.623 64.9871 131.676C65.1804 131.73 65.3904 131.756 65.6171 131.756C65.9171 131.756 66.1904 131.726 66.4371 131.666C66.6904 131.606 66.9271 131.523 67.1471 131.416C67.3671 131.303 67.5771 131.166 67.7771 131.006C67.9771 130.846 68.1738 130.663 68.3671 130.456V128.456ZM62.6471 124.226C63.2138 123.686 63.8271 123.283 64.4871 123.016C65.1538 122.75 65.8838 122.616 66.6771 122.616C67.2571 122.616 67.7704 122.713 68.2171 122.906C68.6638 123.093 69.0404 123.356 69.3471 123.696C69.6538 124.036 69.8838 124.443 70.0371 124.916C70.1971 125.39 70.2771 125.913 70.2771 126.486V132.966H69.4071C69.2138 132.966 69.0671 132.936 68.9671 132.876C68.8671 132.81 68.7871 132.69 68.7271 132.516L68.5171 131.626C68.2571 131.866 68.0004 132.08 67.7471 132.266C67.4938 132.446 67.2271 132.603 66.9471 132.736C66.6738 132.863 66.3804 132.96 66.0671 133.026C65.7538 133.093 65.4071 133.126 65.0271 133.126C64.6271 133.126 64.2504 133.073 63.8971 132.966C63.5504 132.853 63.2471 132.683 62.9871 132.456C62.7271 132.23 62.5204 131.946 62.3671 131.606C62.2204 131.266 62.1471 130.87 62.1471 130.416C62.1471 130.016 62.2538 129.633 62.4671 129.266C62.6871 128.893 63.0404 128.56 63.5271 128.266C64.0204 127.973 64.6604 127.733 65.4471 127.546C66.2404 127.36 67.2138 127.253 68.3671 127.226V126.486C68.3671 125.72 68.2038 125.146 67.8771 124.766C67.5504 124.386 67.0704 124.196 66.4371 124.196C66.0104 124.196 65.6504 124.25 65.3571 124.356C65.0704 124.463 64.8204 124.583 64.6071 124.716C64.4004 124.843 64.2171 124.96 64.0571 125.066C63.9038 125.173 63.7438 125.226 63.5771 125.226C63.4438 125.226 63.3271 125.19 63.2271 125.116C63.1338 125.043 63.0571 124.956 62.9971 124.856L62.6471 124.226ZM74.8376 130.466C75.1576 130.886 75.5042 131.18 75.8776 131.346C76.2509 131.513 76.6576 131.596 77.0976 131.596C78.0042 131.596 78.7009 131.273 79.1876 130.626C79.6809 129.98 79.9276 129.003 79.9276 127.696C79.9276 126.49 79.7109 125.606 79.2776 125.046C78.8442 124.48 78.2309 124.196 77.4376 124.196C76.8776 124.196 76.3909 124.323 75.9776 124.576C75.5709 124.83 75.1909 125.19 74.8376 125.656V130.466ZM74.8376 124.206C75.2576 123.74 75.7342 123.363 76.2676 123.076C76.8009 122.79 77.4076 122.646 78.0876 122.646C78.6809 122.646 79.2142 122.763 79.6876 122.996C80.1676 123.223 80.5742 123.553 80.9076 123.986C81.2409 124.413 81.4976 124.933 81.6776 125.546C81.8576 126.16 81.9476 126.853 81.9476 127.626C81.9476 128.446 81.8442 129.193 81.6376 129.866C81.4376 130.54 81.1476 131.116 80.7676 131.596C80.3942 132.076 79.9376 132.45 79.3976 132.716C78.8576 132.976 78.2509 133.106 77.5776 133.106C77.2509 133.106 76.9509 133.073 76.6776 133.006C76.4042 132.946 76.1509 132.856 75.9176 132.736C75.6909 132.616 75.4809 132.47 75.2876 132.296C75.0942 132.123 74.9109 131.926 74.7376 131.706L74.6476 132.556C74.5942 132.83 74.4276 132.966 74.1476 132.966H72.8876V118.206H74.8376V124.206ZM88.448 122.646C89.1947 122.646 89.868 122.77 90.468 123.016C91.0747 123.256 91.588 123.606 92.008 124.066C92.4347 124.52 92.7614 125.07 92.988 125.716C93.2147 126.356 93.328 127.076 93.328 127.876C93.328 128.676 93.2147 129.4 92.988 130.046C92.7614 130.693 92.4347 131.243 92.008 131.696C91.588 132.15 91.0747 132.5 90.468 132.746C89.868 132.986 89.1947 133.106 88.448 133.106C87.6947 133.106 87.0147 132.986 86.408 132.746C85.808 132.5 85.2947 132.15 84.868 131.696C84.4414 131.243 84.1114 130.693 83.878 130.046C83.6514 129.4 83.538 128.676 83.538 127.876C83.538 127.076 83.6514 126.356 83.878 125.716C84.1114 125.07 84.4414 124.52 84.868 124.066C85.2947 123.606 85.808 123.256 86.408 123.016C87.0147 122.77 87.6947 122.646 88.448 122.646ZM88.448 131.586C89.408 131.586 90.1247 131.263 90.598 130.616C91.0714 129.97 91.308 129.06 91.308 127.886C91.308 126.713 91.0714 125.803 90.598 125.156C90.1247 124.503 89.408 124.176 88.448 124.176C87.4747 124.176 86.748 124.503 86.268 125.156C85.7947 125.803 85.558 126.713 85.558 127.886C85.558 129.06 85.7947 129.97 86.268 130.616C86.748 131.263 87.4747 131.586 88.448 131.586ZM97.3448 124.756C97.6714 124.09 98.0648 123.566 98.5248 123.186C98.9848 122.806 99.5381 122.616 100.185 122.616C100.405 122.616 100.611 122.643 100.805 122.696C101.005 122.743 101.178 122.816 101.325 122.916L101.195 124.386C101.148 124.566 101.038 124.656 100.865 124.656C100.771 124.656 100.631 124.64 100.445 124.606C100.258 124.566 100.058 124.546 99.8448 124.546C99.5314 124.546 99.2548 124.593 99.0148 124.686C98.7748 124.773 98.5581 124.906 98.3648 125.086C98.1781 125.26 98.0114 125.476 97.8648 125.736C97.7181 125.99 97.5814 126.28 97.4548 126.606V132.966H95.5048V122.806H96.6248C96.8381 122.806 96.9814 122.846 97.0548 122.926C97.1348 123 97.1914 123.133 97.2248 123.326L97.3448 124.756ZM108.133 128.456C107.339 128.483 106.666 128.546 106.113 128.646C105.559 128.74 105.109 128.866 104.763 129.026C104.416 129.186 104.166 129.376 104.013 129.596C103.859 129.81 103.783 130.05 103.783 130.316C103.783 130.57 103.823 130.79 103.903 130.976C103.989 131.156 104.103 131.306 104.243 131.426C104.389 131.54 104.559 131.623 104.753 131.676C104.946 131.73 105.156 131.756 105.383 131.756C105.683 131.756 105.956 131.726 106.203 131.666C106.456 131.606 106.693 131.523 106.913 131.416C107.133 131.303 107.343 131.166 107.543 131.006C107.743 130.846 107.939 130.663 108.133 130.456V128.456ZM102.413 124.226C102.979 123.686 103.593 123.283 104.253 123.016C104.919 122.75 105.649 122.616 106.443 122.616C107.023 122.616 107.536 122.713 107.983 122.906C108.429 123.093 108.806 123.356 109.113 123.696C109.419 124.036 109.649 124.443 109.803 124.916C109.963 125.39 110.043 125.913 110.043 126.486V132.966H109.173C108.979 132.966 108.833 132.936 108.733 132.876C108.633 132.81 108.553 132.69 108.493 132.516L108.283 131.626C108.023 131.866 107.766 132.08 107.513 132.266C107.259 132.446 106.993 132.603 106.713 132.736C106.439 132.863 106.146 132.96 105.833 133.026C105.519 133.093 105.173 133.126 104.793 133.126C104.393 133.126 104.016 133.073 103.663 132.966C103.316 132.853 103.013 132.683 102.753 132.456C102.493 132.23 102.286 131.946 102.133 131.606C101.986 131.266 101.913 130.87 101.913 130.416C101.913 130.016 102.019 129.633 102.233 129.266C102.453 128.893 102.806 128.56 103.293 128.266C103.786 127.973 104.426 127.733 105.213 127.546C106.006 127.36 106.979 127.253 108.133 127.226V126.486C108.133 125.72 107.969 125.146 107.643 124.766C107.316 124.386 106.836 124.196 106.203 124.196C105.776 124.196 105.416 124.25 105.123 124.356C104.836 124.463 104.586 124.583 104.373 124.716C104.166 124.843 103.983 124.96 103.823 125.066C103.669 125.173 103.509 125.226 103.343 125.226C103.209 125.226 103.093 125.19 102.993 125.116C102.899 125.043 102.823 124.956 102.763 124.856L102.413 124.226ZM122.146 132.966H120.186V124.386H115.086V130.336C115.086 130.736 115.183 131.036 115.376 131.236C115.576 131.43 115.83 131.526 116.136 131.526C116.316 131.526 116.47 131.503 116.596 131.456C116.73 131.41 116.843 131.36 116.936 131.306C117.03 131.246 117.11 131.193 117.176 131.146C117.243 131.1 117.303 131.076 117.356 131.076C117.423 131.076 117.473 131.093 117.506 131.126C117.546 131.153 117.586 131.2 117.626 131.266L118.206 132.206C117.886 132.5 117.506 132.726 117.066 132.886C116.626 133.046 116.17 133.126 115.696 133.126C114.876 133.126 114.243 132.896 113.796 132.436C113.356 131.976 113.136 131.32 113.136 130.466V124.386H111.956C111.843 124.386 111.746 124.353 111.666 124.286C111.593 124.213 111.556 124.106 111.556 123.966V123.176L113.216 122.946L113.646 119.916C113.673 119.803 113.723 119.716 113.796 119.656C113.876 119.59 113.976 119.556 114.096 119.556H115.086V122.966H122.146V132.966ZM122.586 119.606C122.586 119.786 122.55 119.96 122.476 120.126C122.403 120.286 122.303 120.43 122.176 120.556C122.056 120.676 121.913 120.773 121.746 120.846C121.58 120.913 121.406 120.946 121.226 120.946C121.046 120.946 120.876 120.913 120.716 120.846C120.556 120.773 120.413 120.676 120.286 120.556C120.166 120.43 120.07 120.286 119.996 120.126C119.93 119.96 119.896 119.786 119.896 119.606C119.896 119.42 119.93 119.243 119.996 119.076C120.07 118.91 120.166 118.766 120.286 118.646C120.413 118.52 120.556 118.423 120.716 118.356C120.876 118.283 121.046 118.246 121.226 118.246C121.406 118.246 121.58 118.283 121.746 118.356C121.913 118.423 122.056 118.52 122.176 118.646C122.303 118.766 122.403 118.91 122.476 119.076C122.55 119.243 122.586 119.42 122.586 119.606ZM133.797 122.806L129.677 132.966H127.917L123.797 122.806H125.407C125.561 122.806 125.687 122.843 125.787 122.916C125.887 122.99 125.954 123.083 125.987 123.196L128.417 129.436C128.504 129.696 128.577 129.956 128.637 130.216C128.704 130.47 128.764 130.723 128.817 130.976C128.871 130.723 128.931 130.47 128.997 130.216C129.064 129.963 129.144 129.703 129.237 129.436L131.697 123.196C131.737 123.083 131.807 122.99 131.907 122.916C132.007 122.843 132.127 122.806 132.267 122.806H133.797ZM141.786 126.756C141.786 126.37 141.729 126.013 141.616 125.686C141.509 125.36 141.349 125.076 141.136 124.836C140.922 124.596 140.662 124.41 140.356 124.276C140.049 124.143 139.696 124.076 139.296 124.076C138.476 124.076 137.829 124.313 137.356 124.786C136.889 125.26 136.592 125.916 136.466 126.756H141.786ZM143.396 131.516C143.156 131.796 142.879 132.04 142.566 132.246C142.252 132.446 141.919 132.61 141.566 132.736C141.212 132.863 140.846 132.956 140.466 133.016C140.092 133.076 139.722 133.106 139.356 133.106C138.656 133.106 138.006 132.99 137.406 132.756C136.812 132.516 136.296 132.17 135.856 131.716C135.422 131.256 135.082 130.69 134.836 130.016C134.596 129.336 134.476 128.556 134.476 127.676C134.476 126.97 134.586 126.313 134.806 125.706C135.026 125.093 135.339 124.56 135.746 124.106C136.159 123.653 136.662 123.296 137.256 123.036C137.849 122.776 138.516 122.646 139.256 122.646C139.876 122.646 140.446 122.75 140.966 122.956C141.492 123.156 141.946 123.45 142.326 123.836C142.706 124.223 143.002 124.7 143.216 125.266C143.436 125.833 143.546 126.48 143.546 127.206C143.546 127.506 143.512 127.71 143.446 127.816C143.379 127.916 143.256 127.966 143.076 127.966H136.416C136.436 128.573 136.522 129.103 136.676 129.556C136.829 130.003 137.039 130.376 137.306 130.676C137.579 130.976 137.902 131.2 138.276 131.346C138.649 131.493 139.066 131.566 139.526 131.566C139.959 131.566 140.332 131.516 140.646 131.416C140.966 131.316 141.239 131.21 141.466 131.096C141.699 130.976 141.892 130.866 142.046 130.766C142.206 130.666 142.346 130.616 142.466 130.616C142.626 130.616 142.749 130.676 142.836 130.796L143.396 131.516ZM159.32 131.176V132.966H151.1V118.606H153.23V131.176H159.32ZM167.059 126.756C167.059 126.37 167.002 126.013 166.889 125.686C166.782 125.36 166.622 125.076 166.409 124.836C166.196 124.596 165.936 124.41 165.629 124.276C165.322 124.143 164.969 124.076 164.569 124.076C163.749 124.076 163.102 124.313 162.629 124.786C162.162 125.26 161.866 125.916 161.739 126.756H167.059ZM168.669 131.516C168.429 131.796 168.152 132.04 167.839 132.246C167.526 132.446 167.192 132.61 166.839 132.736C166.486 132.863 166.119 132.956 165.739 133.016C165.366 133.076 164.996 133.106 164.629 133.106C163.929 133.106 163.279 132.99 162.679 132.756C162.086 132.516 161.569 132.17 161.129 131.716C160.696 131.256 160.356 130.69 160.109 130.016C159.869 129.336 159.749 128.556 159.749 127.676C159.749 126.97 159.859 126.313 160.079 125.706C160.299 125.093 160.612 124.56 161.019 124.106C161.432 123.653 161.936 123.296 162.529 123.036C163.122 122.776 163.789 122.646 164.529 122.646C165.149 122.646 165.719 122.75 166.239 122.956C166.766 123.156 167.219 123.45 167.599 123.836C167.979 124.223 168.276 124.7 168.489 125.266C168.709 125.833 168.819 126.48 168.819 127.206C168.819 127.506 168.786 127.71 168.719 127.816C168.652 127.916 168.529 127.966 168.349 127.966H161.689C161.709 128.573 161.796 129.103 161.949 129.556C162.102 130.003 162.312 130.376 162.579 130.676C162.852 130.976 163.176 131.2 163.549 131.346C163.922 131.493 164.339 131.566 164.799 131.566C165.232 131.566 165.606 131.516 165.919 131.416C166.239 131.316 166.512 131.21 166.739 131.096C166.972 130.976 167.166 130.866 167.319 130.766C167.479 130.666 167.619 130.616 167.739 130.616C167.899 130.616 168.022 130.676 168.109 130.796L168.669 131.516ZM176.375 128.456C175.582 128.483 174.908 128.546 174.355 128.646C173.802 128.74 173.352 128.866 173.005 129.026C172.658 129.186 172.408 129.376 172.255 129.596C172.102 129.81 172.025 130.05 172.025 130.316C172.025 130.57 172.065 130.79 172.145 130.976C172.232 131.156 172.345 131.306 172.485 131.426C172.632 131.54 172.802 131.623 172.995 131.676C173.188 131.73 173.398 131.756 173.625 131.756C173.925 131.756 174.198 131.726 174.445 131.666C174.698 131.606 174.935 131.523 175.155 131.416C175.375 131.303 175.585 131.166 175.785 131.006C175.985 130.846 176.182 130.663 176.375 130.456V128.456ZM170.655 124.226C171.222 123.686 171.835 123.283 172.495 123.016C173.162 122.75 173.892 122.616 174.685 122.616C175.265 122.616 175.778 122.713 176.225 122.906C176.672 123.093 177.048 123.356 177.355 123.696C177.662 124.036 177.892 124.443 178.045 124.916C178.205 125.39 178.285 125.913 178.285 126.486V132.966H177.415C177.222 132.966 177.075 132.936 176.975 132.876C176.875 132.81 176.795 132.69 176.735 132.516L176.525 131.626C176.265 131.866 176.008 132.08 175.755 132.266C175.502 132.446 175.235 132.603 174.955 132.736C174.682 132.863 174.388 132.96 174.075 133.026C173.762 133.093 173.415 133.126 173.035 133.126C172.635 133.126 172.258 133.073 171.905 132.966C171.558 132.853 171.255 132.683 170.995 132.456C170.735 132.23 170.528 131.946 170.375 131.606C170.228 131.266 170.155 130.87 170.155 130.416C170.155 130.016 170.262 129.633 170.475 129.266C170.695 128.893 171.048 128.56 171.535 128.266C172.028 127.973 172.668 127.733 173.455 127.546C174.248 127.36 175.222 127.253 176.375 127.226V126.486C176.375 125.72 176.212 125.146 175.885 124.766C175.558 124.386 175.078 124.196 174.445 124.196C174.018 124.196 173.658 124.25 173.365 124.356C173.078 124.463 172.828 124.583 172.615 124.716C172.408 124.843 172.225 124.96 172.065 125.066C171.912 125.173 171.752 125.226 171.585 125.226C171.452 125.226 171.335 125.19 171.235 125.116C171.142 125.043 171.065 124.956 171.005 124.856L170.655 124.226ZM182.735 124.756C183.062 124.09 183.455 123.566 183.915 123.186C184.375 122.806 184.929 122.616 185.575 122.616C185.795 122.616 186.002 122.643 186.195 122.696C186.395 122.743 186.569 122.816 186.715 122.916L186.585 124.386C186.539 124.566 186.429 124.656 186.255 124.656C186.162 124.656 186.022 124.64 185.835 124.606C185.649 124.566 185.449 124.546 185.235 124.546C184.922 124.546 184.645 124.593 184.405 124.686C184.165 124.773 183.949 124.906 183.755 125.086C183.569 125.26 183.402 125.476 183.255 125.736C183.109 125.99 182.972 126.28 182.845 126.606V132.966H180.895V122.806H182.015C182.229 122.806 182.372 122.846 182.445 122.926C182.525 123 182.582 123.133 182.615 123.326L182.735 124.756ZM190.05 124.216C190.27 123.983 190.5 123.77 190.74 123.576C190.98 123.383 191.233 123.22 191.5 123.086C191.773 122.946 192.063 122.84 192.37 122.766C192.683 122.686 193.016 122.646 193.37 122.646C193.93 122.646 194.42 122.74 194.84 122.926C195.266 123.113 195.623 123.376 195.91 123.716C196.196 124.05 196.413 124.453 196.56 124.926C196.706 125.4 196.78 125.923 196.78 126.496V132.966H194.82V126.496C194.82 125.77 194.653 125.206 194.32 124.806C193.986 124.4 193.476 124.196 192.79 124.196C192.29 124.196 191.82 124.316 191.38 124.556C190.946 124.79 190.543 125.11 190.17 125.516V132.966H188.22V122.806H189.39C189.663 122.806 189.833 122.936 189.9 123.196L190.05 124.216ZM201.451 122.806V132.966H199.501V122.806H201.451ZM201.821 119.666C201.821 119.846 201.784 120.02 201.711 120.186C201.638 120.346 201.538 120.49 201.411 120.616C201.291 120.736 201.148 120.833 200.981 120.906C200.814 120.973 200.641 121.006 200.461 121.006C200.281 121.006 200.111 120.973 199.951 120.906C199.791 120.833 199.648 120.736 199.521 120.616C199.401 120.49 199.304 120.346 199.231 120.186C199.164 120.02 199.131 119.846 199.131 119.666C199.131 119.48 199.164 119.306 199.231 119.146C199.304 118.98 199.401 118.836 199.521 118.716C199.648 118.59 199.791 118.493 199.951 118.426C200.111 118.353 200.281 118.316 200.461 118.316C200.641 118.316 200.814 118.353 200.981 118.426C201.148 118.493 201.291 118.59 201.411 118.716C201.538 118.836 201.638 118.98 201.711 119.146C201.784 119.306 201.821 119.48 201.821 119.666ZM206.104 124.216C206.324 123.983 206.554 123.77 206.794 123.576C207.034 123.383 207.288 123.22 207.554 123.086C207.828 122.946 208.118 122.84 208.424 122.766C208.738 122.686 209.071 122.646 209.424 122.646C209.984 122.646 210.474 122.74 210.894 122.926C211.321 123.113 211.678 123.376 211.964 123.716C212.251 124.05 212.468 124.453 212.614 124.926C212.761 125.4 212.834 125.923 212.834 126.496V132.966H210.874V126.496C210.874 125.77 210.708 125.206 210.374 124.806C210.041 124.4 209.531 124.196 208.844 124.196C208.344 124.196 207.874 124.316 207.434 124.556C207.001 124.79 206.598 125.11 206.224 125.516V132.966H204.274V122.806H205.444C205.718 122.806 205.888 122.936 205.954 123.196L206.104 124.216ZM219.036 127.896C219.382 127.896 219.686 127.85 219.946 127.756C220.212 127.663 220.432 127.533 220.606 127.366C220.786 127.193 220.919 126.986 221.006 126.746C221.099 126.506 221.146 126.243 221.146 125.956C221.146 125.37 220.966 124.903 220.606 124.556C220.252 124.203 219.729 124.026 219.036 124.026C218.349 124.026 217.826 124.203 217.466 124.556C217.112 124.903 216.936 125.37 216.936 125.956C216.936 126.243 216.979 126.506 217.066 126.746C217.159 126.98 217.292 127.183 217.466 127.356C217.646 127.523 217.866 127.656 218.126 127.756C218.392 127.85 218.696 127.896 219.036 127.896ZM222.146 133.496C222.146 133.256 222.079 133.066 221.946 132.926C221.812 132.78 221.629 132.666 221.396 132.586C221.169 132.5 220.902 132.44 220.596 132.406C220.289 132.366 219.966 132.336 219.626 132.316C219.292 132.296 218.949 132.28 218.596 132.266C218.242 132.246 217.902 132.213 217.576 132.166C217.229 132.34 216.942 132.55 216.716 132.796C216.496 133.043 216.386 133.333 216.386 133.666C216.386 133.88 216.439 134.08 216.546 134.266C216.659 134.453 216.829 134.613 217.056 134.746C217.289 134.886 217.579 134.993 217.926 135.066C218.279 135.146 218.699 135.186 219.186 135.186C219.666 135.186 220.089 135.143 220.456 135.056C220.822 134.976 221.129 134.86 221.376 134.706C221.629 134.56 221.819 134.383 221.946 134.176C222.079 133.97 222.146 133.743 222.146 133.496ZM224.126 123.186V123.916C224.126 124.156 223.976 124.306 223.676 124.366L222.586 124.526C222.679 124.733 222.752 124.953 222.806 125.186C222.859 125.413 222.886 125.653 222.886 125.906C222.886 126.406 222.789 126.86 222.596 127.266C222.402 127.666 222.136 128.01 221.796 128.296C221.456 128.583 221.049 128.803 220.576 128.956C220.109 129.11 219.596 129.186 219.036 129.186C218.576 129.186 218.146 129.136 217.746 129.036C217.546 129.156 217.392 129.29 217.286 129.436C217.186 129.576 217.136 129.716 217.136 129.856C217.136 130.09 217.232 130.263 217.426 130.376C217.626 130.49 217.882 130.573 218.196 130.626C218.516 130.673 218.879 130.703 219.286 130.716C219.699 130.73 220.116 130.753 220.536 130.786C220.962 130.813 221.379 130.866 221.786 130.946C222.199 131.02 222.562 131.143 222.876 131.316C223.196 131.483 223.452 131.716 223.646 132.016C223.846 132.31 223.946 132.693 223.946 133.166C223.946 133.606 223.836 134.033 223.616 134.446C223.402 134.86 223.089 135.226 222.676 135.546C222.262 135.866 221.759 136.123 221.166 136.316C220.572 136.51 219.899 136.606 219.146 136.606C218.392 136.606 217.736 136.533 217.176 136.386C216.622 136.24 216.159 136.043 215.786 135.796C215.419 135.55 215.142 135.263 214.956 134.936C214.776 134.61 214.686 134.27 214.686 133.916C214.686 133.423 214.839 133.006 215.146 132.666C215.452 132.32 215.876 132.05 216.416 131.856C216.122 131.723 215.889 131.543 215.716 131.316C215.542 131.083 215.456 130.776 215.456 130.396C215.456 130.25 215.482 130.1 215.536 129.946C215.589 129.786 215.669 129.63 215.776 129.476C215.889 129.316 216.026 129.166 216.186 129.026C216.352 128.886 216.542 128.76 216.756 128.646C216.256 128.366 215.862 127.996 215.576 127.536C215.289 127.07 215.146 126.526 215.146 125.906C215.146 125.406 215.242 124.956 215.436 124.556C215.629 124.156 215.896 123.813 216.236 123.526C216.582 123.24 216.992 123.02 217.466 122.866C217.946 122.713 218.469 122.636 219.036 122.636C219.916 122.636 220.672 122.82 221.306 123.186H224.126Z" fill="white"/>
<defs>
<linearGradient id="paint0_linear_144_75" x1="-26.8993" y1="91" x2="251" y2="91" gradientUnits="userSpaceOnUse">
<stop stop-color="#4EE8F2"/>
<stop offset="0.490537" stop-color="#0862F0"/>
</linearGradient>
<linearGradient id="paint1_linear_144_75" x1="-26.8993" y1="91" x2="251" y2="91" gradientUnits="userSpaceOnUse">
<stop stop-color="#4EE8F2"/>
<stop offset="0.490537" stop-color="#0862F0"/>
</linearGradient>
</defs>
</svg>
