<svg width="254" height="184" viewBox="0 0 254 184" fill="none" xmlns="http://www.w3.org/2000/svg">
<rect x="1" y="1" width="252" height="182" rx="21" fill="#F0F7F7" stroke="url(#paint0_linear_144_68)" stroke-width="2"/>
<path d="M128.175 111.807L128.134 111.814L127.892 111.933L127.823 111.947L127.776 111.933L127.533 111.81C127.497 111.801 127.469 111.808 127.451 111.831L127.437 111.865L127.379 113.326L127.396 113.395L127.431 113.439L127.786 113.692L127.837 113.705L127.878 113.692L128.233 113.439L128.274 113.384L128.288 113.326L128.23 111.868C128.221 111.832 128.202 111.811 128.175 111.807ZM129.076 111.421L129.029 111.428L128.4 111.745L128.366 111.78L128.356 111.817L128.417 113.285L128.435 113.326L128.462 113.354L129.148 113.668C129.191 113.679 129.224 113.67 129.247 113.641L129.261 113.593L129.145 111.496C129.133 111.453 129.111 111.428 129.076 111.421ZM126.635 111.428C126.62 111.419 126.602 111.416 126.585 111.42C126.568 111.423 126.553 111.434 126.543 111.448L126.522 111.496L126.406 113.593C126.409 113.634 126.428 113.661 126.464 113.675L126.516 113.668L127.202 113.35L127.236 113.323L127.246 113.285L127.308 111.817L127.297 111.776L127.263 111.742L126.635 111.428Z" fill="url(#paint1_linear_144_68)"/>
<path d="M122.732 39C118.204 39 113.861 40.7988 110.659 44.0006C107.457 47.2025 105.659 51.5451 105.659 56.0732C105.659 60.6013 107.457 64.9439 110.659 68.1457C113.861 71.3476 118.204 73.1463 122.732 73.1463C127.26 73.1463 131.602 71.3476 134.804 68.1457C138.006 64.9439 139.805 60.6013 139.805 56.0732C139.805 51.5451 138.006 47.2025 134.804 44.0006C131.602 40.7988 127.26 39 122.732 39ZM122.732 76.561C114.554 76.561 107.11 78.9307 101.636 82.2702C98.9044 83.9366 96.5688 85.9034 94.882 88.041C93.2224 90.1376 92 92.6541 92 95.3415C92 98.2268 93.4034 100.501 95.4249 102.123C97.3371 103.66 99.8605 104.677 102.541 105.387C107.929 106.811 115.12 107.293 122.732 107.293L125.071 107.276C125.643 107.268 126.203 107.116 126.701 106.835C127.2 106.554 127.619 106.153 127.922 105.667C128.224 105.182 128.4 104.628 128.433 104.057C128.466 103.486 128.355 102.916 128.11 102.4C126.815 99.6589 126.144 96.6652 126.146 93.6341C126.146 89.359 127.454 85.398 129.687 82.1166C130.019 81.6289 130.219 81.0636 130.268 80.4757C130.316 79.8878 130.211 79.2974 129.964 78.762C129.716 78.2265 129.334 77.7644 128.855 77.4205C128.376 77.0767 127.815 76.8629 127.229 76.8C125.758 76.6406 124.259 76.561 122.732 76.561ZM155.567 84.9917C155.795 84.6032 155.943 84.1735 156.004 83.7274C156.065 83.2812 156.037 82.8274 155.922 82.392C155.807 81.9566 155.607 81.5483 155.334 81.1906C155.06 80.8329 154.718 80.5328 154.328 80.3076C153.938 80.0825 153.508 79.9367 153.061 79.8786C152.615 79.8206 152.161 79.8514 151.726 79.9694C151.292 80.0874 150.885 80.2902 150.529 80.5661C150.173 80.842 149.875 81.1856 149.653 81.5771L148.505 83.5644C147.268 83.333 145.998 83.3319 144.76 83.561L143.616 81.5771C143.393 81.1856 143.095 80.842 142.739 80.5661C142.383 80.2902 141.976 80.0874 141.542 79.9694C141.107 79.8514 140.654 79.8206 140.207 79.8786C139.761 79.9367 139.33 80.0825 138.94 80.3076C138.55 80.5328 138.208 80.8329 137.935 81.1906C137.661 81.5483 137.461 81.9566 137.346 82.392C137.231 82.8274 137.203 83.2812 137.264 83.7274C137.325 84.1735 137.474 84.6032 137.701 84.9917L138.845 86.9722C138.028 87.9306 137.395 89.0315 136.978 90.2195H134.683C133.777 90.2195 132.909 90.5793 132.268 91.2196C131.628 91.86 131.268 92.7285 131.268 93.6341C131.268 94.5398 131.628 95.4083 132.268 96.0487C132.909 96.689 133.777 97.0488 134.683 97.0488H136.974C137.394 98.2361 138.03 99.3358 138.849 100.293L137.701 102.277C137.474 102.665 137.325 103.095 137.264 103.541C137.203 103.987 137.231 104.441 137.346 104.876C137.461 105.312 137.661 105.72 137.935 106.078C138.208 106.435 138.55 106.735 138.94 106.961C139.33 107.186 139.761 107.332 140.207 107.39C140.654 107.448 141.107 107.417 141.542 107.299C141.976 107.181 142.383 106.978 142.739 106.702C143.095 106.426 143.393 106.083 143.616 105.691L144.763 103.707C145.989 103.933 147.256 103.94 148.509 103.707L149.653 105.691C149.875 106.083 150.173 106.426 150.529 106.702C150.885 106.978 151.292 107.181 151.726 107.299C152.161 107.417 152.615 107.448 153.061 107.39C153.508 107.332 153.938 107.186 154.328 106.961C154.718 106.735 155.06 106.435 155.334 106.078C155.607 105.72 155.807 105.312 155.922 104.876C156.037 104.441 156.065 103.987 156.004 103.541C155.943 103.095 155.795 102.665 155.567 102.277L154.423 100.296C155.249 99.3263 155.878 98.2234 156.291 97.0488H158.585C159.491 97.0488 160.36 96.689 161 96.0487C161.64 95.4083 162 94.5398 162 93.6341C162 92.7285 161.64 91.86 161 91.2196C160.36 90.5793 159.491 90.2195 158.585 90.2195H156.294C155.874 89.0322 155.238 87.9325 154.42 86.9756L155.567 84.9917Z" fill="url(#paint2_linear_144_68)"/>
<path d="M53.6473 133.736C54.1873 133.736 54.6607 133.666 55.0673 133.526C55.4807 133.386 55.824 133.189 56.0973 132.936C56.3773 132.676 56.5873 132.369 56.7273 132.016C56.8673 131.656 56.9373 131.259 56.9373 130.826C56.9373 129.952 56.664 129.266 56.1173 128.766C55.5773 128.266 54.754 128.016 53.6473 128.016H51.4273V133.736H53.6473ZM53.6473 126.346C54.5673 126.346 55.3673 126.452 56.0473 126.666C56.7273 126.879 57.2907 127.182 57.7373 127.576C58.184 127.962 58.514 128.432 58.7273 128.986C58.9473 129.539 59.0573 130.152 59.0573 130.826C59.0573 131.499 58.9407 132.119 58.7073 132.686C58.474 133.246 58.1307 133.729 57.6773 134.136C57.224 134.542 56.6573 134.859 55.9773 135.086C55.304 135.306 54.5273 135.416 53.6473 135.416H51.4273V140.706H49.2973V126.346H53.6473ZM67.2289 134.496C67.2289 134.109 67.1722 133.752 67.0589 133.426C66.9522 133.099 66.7922 132.816 66.5789 132.576C66.3656 132.336 66.1056 132.149 65.7989 132.016C65.4922 131.882 65.1389 131.816 64.7389 131.816C63.9189 131.816 63.2722 132.052 62.7989 132.526C62.3322 132.999 62.0356 133.656 61.9089 134.496H67.2289ZM68.8389 139.256C68.5989 139.536 68.3222 139.779 68.0089 139.986C67.6956 140.186 67.3622 140.349 67.0089 140.476C66.6556 140.602 66.2889 140.696 65.9089 140.756C65.5356 140.816 65.1656 140.846 64.7989 140.846C64.0989 140.846 63.4489 140.729 62.8489 140.496C62.2556 140.256 61.7389 139.909 61.2989 139.456C60.8656 138.996 60.5256 138.429 60.2789 137.756C60.0389 137.076 59.9189 136.296 59.9189 135.416C59.9189 134.709 60.0289 134.052 60.2489 133.446C60.4689 132.832 60.7822 132.299 61.1889 131.846C61.6022 131.392 62.1056 131.036 62.6989 130.776C63.2922 130.516 63.9589 130.386 64.6989 130.386C65.3189 130.386 65.8889 130.489 66.4089 130.696C66.9356 130.896 67.3889 131.189 67.7689 131.576C68.1489 131.962 68.4456 132.439 68.6589 133.006C68.8789 133.572 68.9889 134.219 68.9889 134.946C68.9889 135.246 68.9556 135.449 68.8889 135.556C68.8222 135.656 68.6989 135.706 68.5189 135.706H61.8589C61.8789 136.312 61.9656 136.842 62.1189 137.296C62.2722 137.742 62.4822 138.116 62.7489 138.416C63.0222 138.716 63.3456 138.939 63.7189 139.086C64.0922 139.232 64.5089 139.306 64.9689 139.306C65.4022 139.306 65.7756 139.256 66.0889 139.156C66.4089 139.056 66.6822 138.949 66.9089 138.836C67.1422 138.716 67.3356 138.606 67.4889 138.506C67.6489 138.406 67.7889 138.356 67.9089 138.356C68.0689 138.356 68.1922 138.416 68.2789 138.536L68.8389 139.256ZM72.9248 132.496C73.2515 131.829 73.6448 131.306 74.1048 130.926C74.5648 130.546 75.1182 130.356 75.7648 130.356C75.9848 130.356 76.1915 130.382 76.3848 130.436C76.5848 130.482 76.7582 130.556 76.9048 130.656L76.7748 132.126C76.7282 132.306 76.6182 132.396 76.4448 132.396C76.3515 132.396 76.2115 132.379 76.0248 132.346C75.8382 132.306 75.6382 132.286 75.4248 132.286C75.1115 132.286 74.8348 132.332 74.5948 132.426C74.3548 132.512 74.1382 132.646 73.9448 132.826C73.7582 132.999 73.5915 133.216 73.4448 133.476C73.2982 133.729 73.1615 134.019 73.0348 134.346V140.706H71.0848V130.546H72.2048C72.4182 130.546 72.5615 130.586 72.6348 130.666C72.7148 130.739 72.7715 130.872 72.8048 131.066L72.9248 132.496ZM84.3405 132.296C84.2871 132.382 84.2305 132.446 84.1705 132.486C84.1105 132.519 84.0338 132.536 83.9405 132.536C83.8338 132.536 83.7138 132.499 83.5805 132.426C83.4538 132.352 83.2971 132.272 83.1105 132.186C82.9305 132.099 82.7171 132.019 82.4705 131.946C82.2238 131.872 81.9305 131.836 81.5905 131.836C81.3105 131.836 81.0538 131.872 80.8205 131.946C80.5938 132.012 80.4005 132.109 80.2405 132.236C80.0805 132.356 79.9571 132.502 79.8705 132.676C79.7838 132.842 79.7405 133.022 79.7405 133.216C79.7405 133.469 79.8138 133.679 79.9605 133.846C80.1138 134.012 80.3105 134.156 80.5505 134.276C80.7971 134.396 81.0738 134.506 81.3805 134.606C81.6938 134.699 82.0105 134.799 82.3305 134.906C82.6571 135.012 82.9738 135.136 83.2805 135.276C83.5938 135.409 83.8705 135.579 84.1105 135.786C84.3571 135.986 84.5538 136.229 84.7005 136.516C84.8538 136.802 84.9305 137.152 84.9305 137.566C84.9305 138.039 84.8438 138.479 84.6705 138.886C84.5038 139.286 84.2538 139.632 83.9205 139.926C83.5938 140.219 83.1871 140.449 82.7005 140.616C82.2138 140.782 81.6571 140.866 81.0305 140.866C80.3305 140.866 79.6838 140.749 79.0905 140.516C78.4971 140.282 78.0005 139.986 77.6005 139.626L78.0605 138.876C78.1138 138.782 78.1805 138.712 78.2605 138.666C78.3405 138.612 78.4471 138.586 78.5805 138.586C78.7071 138.586 78.8371 138.632 78.9705 138.726C79.1038 138.819 79.2638 138.922 79.4505 139.036C79.6371 139.142 79.8638 139.242 80.1305 139.336C80.3971 139.422 80.7305 139.466 81.1305 139.466C81.4638 139.466 81.7538 139.426 82.0005 139.346C82.2471 139.259 82.4505 139.146 82.6105 139.006C82.7771 138.859 82.9005 138.692 82.9805 138.506C83.0605 138.319 83.1005 138.122 83.1005 137.916C83.1005 137.649 83.0238 137.429 82.8705 137.256C82.7238 137.076 82.5271 136.922 82.2805 136.796C82.0405 136.669 81.7638 136.559 81.4505 136.466C81.1371 136.372 80.8171 136.272 80.4905 136.166C80.1638 136.059 79.8438 135.936 79.5305 135.796C79.2171 135.656 78.9371 135.479 78.6905 135.266C78.4505 135.052 78.2538 134.792 78.1005 134.486C77.9538 134.179 77.8805 133.806 77.8805 133.366C77.8805 132.972 77.9605 132.596 78.1205 132.236C78.2871 131.876 78.5238 131.559 78.8305 131.286C79.1438 131.012 79.5271 130.796 79.9805 130.636C80.4405 130.469 80.9638 130.386 81.5505 130.386C82.2238 130.386 82.8305 130.492 83.3705 130.706C83.9171 130.919 84.3838 131.212 84.7705 131.586L84.3405 132.296ZM91.3719 130.386C92.1185 130.386 92.7919 130.509 93.3919 130.756C93.9985 130.996 94.5119 131.346 94.9319 131.806C95.3585 132.259 95.6852 132.809 95.9119 133.456C96.1385 134.096 96.2519 134.816 96.2519 135.616C96.2519 136.416 96.1385 137.139 95.9119 137.786C95.6852 138.432 95.3585 138.982 94.9319 139.436C94.5119 139.889 93.9985 140.239 93.3919 140.486C92.7919 140.726 92.1185 140.846 91.3719 140.846C90.6185 140.846 89.9385 140.726 89.3319 140.486C88.7319 140.239 88.2185 139.889 87.7919 139.436C87.3652 138.982 87.0352 138.432 86.8019 137.786C86.5752 137.139 86.4619 136.416 86.4619 135.616C86.4619 134.816 86.5752 134.096 86.8019 133.456C87.0352 132.809 87.3652 132.259 87.7919 131.806C88.2185 131.346 88.7319 130.996 89.3319 130.756C89.9385 130.509 90.6185 130.386 91.3719 130.386ZM91.3719 139.326C92.3319 139.326 93.0485 139.002 93.5219 138.356C93.9952 137.709 94.2319 136.799 94.2319 135.626C94.2319 134.452 93.9952 133.542 93.5219 132.896C93.0485 132.242 92.3319 131.916 91.3719 131.916C90.3985 131.916 89.6719 132.242 89.1919 132.896C88.7185 133.542 88.4819 134.452 88.4819 135.626C88.4819 136.799 88.7185 137.709 89.1919 138.356C89.6719 139.002 90.3985 139.326 91.3719 139.326ZM100.259 131.956C100.479 131.722 100.709 131.509 100.949 131.316C101.189 131.122 101.442 130.959 101.709 130.826C101.982 130.686 102.272 130.579 102.579 130.506C102.892 130.426 103.225 130.386 103.579 130.386C104.139 130.386 104.629 130.479 105.049 130.666C105.475 130.852 105.832 131.116 106.119 131.456C106.405 131.789 106.622 132.192 106.769 132.666C106.915 133.139 106.989 133.662 106.989 134.236V140.706H105.029V134.236C105.029 133.509 104.862 132.946 104.529 132.546C104.195 132.139 103.685 131.936 102.999 131.936C102.499 131.936 102.029 132.056 101.589 132.296C101.155 132.529 100.752 132.849 100.379 133.256V140.706H98.4286V130.546H99.5986C99.8719 130.546 100.042 130.676 100.109 130.936L100.259 131.956ZM115.08 136.196C114.287 136.222 113.613 136.286 113.06 136.386C112.507 136.479 112.057 136.606 111.71 136.766C111.363 136.926 111.113 137.116 110.96 137.336C110.807 137.549 110.73 137.789 110.73 138.056C110.73 138.309 110.77 138.529 110.85 138.716C110.937 138.896 111.05 139.046 111.19 139.166C111.337 139.279 111.507 139.362 111.7 139.416C111.893 139.469 112.103 139.496 112.33 139.496C112.63 139.496 112.903 139.466 113.15 139.406C113.403 139.346 113.64 139.262 113.86 139.156C114.08 139.042 114.29 138.906 114.49 138.746C114.69 138.586 114.887 138.402 115.08 138.196V136.196ZM109.36 131.966C109.927 131.426 110.54 131.022 111.2 130.756C111.867 130.489 112.597 130.356 113.39 130.356C113.97 130.356 114.483 130.452 114.93 130.646C115.377 130.832 115.753 131.096 116.06 131.436C116.367 131.776 116.597 132.182 116.75 132.656C116.91 133.129 116.99 133.652 116.99 134.226V140.706H116.12C115.927 140.706 115.78 140.676 115.68 140.616C115.58 140.549 115.5 140.429 115.44 140.256L115.23 139.366C114.97 139.606 114.713 139.819 114.46 140.006C114.207 140.186 113.94 140.342 113.66 140.476C113.387 140.602 113.093 140.699 112.78 140.766C112.467 140.832 112.12 140.866 111.74 140.866C111.34 140.866 110.963 140.812 110.61 140.706C110.263 140.592 109.96 140.422 109.7 140.196C109.44 139.969 109.233 139.686 109.08 139.346C108.933 139.006 108.86 138.609 108.86 138.156C108.86 137.756 108.967 137.372 109.18 137.006C109.4 136.632 109.753 136.299 110.24 136.006C110.733 135.712 111.373 135.472 112.16 135.286C112.953 135.099 113.927 134.992 115.08 134.966V134.226C115.08 133.459 114.917 132.886 114.59 132.506C114.263 132.126 113.783 131.936 113.15 131.936C112.723 131.936 112.363 131.989 112.07 132.096C111.783 132.202 111.533 132.322 111.32 132.456C111.113 132.582 110.93 132.699 110.77 132.806C110.617 132.912 110.457 132.966 110.29 132.966C110.157 132.966 110.04 132.929 109.94 132.856C109.847 132.782 109.77 132.696 109.71 132.596L109.36 131.966ZM121.6 125.946V140.706H119.64V125.946H121.6ZM126.426 130.546V140.706H124.476V130.546H126.426ZM126.796 127.406C126.796 127.586 126.759 127.759 126.686 127.926C126.612 128.086 126.512 128.229 126.386 128.356C126.266 128.476 126.122 128.572 125.956 128.646C125.789 128.712 125.616 128.746 125.436 128.746C125.256 128.746 125.086 128.712 124.926 128.646C124.766 128.572 124.622 128.476 124.496 128.356C124.376 128.229 124.279 128.086 124.206 127.926C124.139 127.759 124.106 127.586 124.106 127.406C124.106 127.219 124.139 127.046 124.206 126.886C124.279 126.719 124.376 126.576 124.496 126.456C124.622 126.329 124.766 126.232 124.926 126.166C125.086 126.092 125.256 126.056 125.436 126.056C125.616 126.056 125.789 126.092 125.956 126.166C126.122 126.232 126.266 126.329 126.386 126.456C126.512 126.576 126.612 126.719 126.686 126.886C126.759 127.046 126.796 127.219 126.796 127.406ZM136.329 131.366C136.329 131.506 136.302 131.642 136.249 131.776C136.202 131.909 136.139 132.022 136.059 132.116L130.729 139.176H136.149V140.706H128.439V139.886C128.439 139.792 128.462 139.682 128.509 139.556C128.556 139.422 128.622 139.299 128.709 139.186L134.069 132.076H128.749V130.546H136.329V131.366ZM144.866 134.496C144.866 134.109 144.809 133.752 144.696 133.426C144.589 133.099 144.429 132.816 144.216 132.576C144.002 132.336 143.742 132.149 143.436 132.016C143.129 131.882 142.776 131.816 142.376 131.816C141.556 131.816 140.909 132.052 140.436 132.526C139.969 132.999 139.672 133.656 139.546 134.496H144.866ZM146.476 139.256C146.236 139.536 145.959 139.779 145.646 139.986C145.332 140.186 144.999 140.349 144.646 140.476C144.292 140.602 143.926 140.696 143.546 140.756C143.172 140.816 142.802 140.846 142.436 140.846C141.736 140.846 141.086 140.729 140.486 140.496C139.892 140.256 139.376 139.909 138.936 139.456C138.502 138.996 138.162 138.429 137.916 137.756C137.676 137.076 137.556 136.296 137.556 135.416C137.556 134.709 137.666 134.052 137.886 133.446C138.106 132.832 138.419 132.299 138.826 131.846C139.239 131.392 139.742 131.036 140.336 130.776C140.929 130.516 141.596 130.386 142.336 130.386C142.956 130.386 143.526 130.489 144.046 130.696C144.572 130.896 145.026 131.189 145.406 131.576C145.786 131.962 146.082 132.439 146.296 133.006C146.516 133.572 146.626 134.219 146.626 134.946C146.626 135.246 146.592 135.449 146.526 135.556C146.459 135.656 146.336 135.706 146.156 135.706H139.496C139.516 136.312 139.602 136.842 139.756 137.296C139.909 137.742 140.119 138.116 140.386 138.416C140.659 138.716 140.982 138.939 141.356 139.086C141.729 139.232 142.146 139.306 142.606 139.306C143.039 139.306 143.412 139.256 143.726 139.156C144.046 139.056 144.319 138.949 144.546 138.836C144.779 138.716 144.972 138.606 145.126 138.506C145.286 138.406 145.426 138.356 145.546 138.356C145.706 138.356 145.829 138.416 145.916 138.536L146.476 139.256ZM155.272 133.006C154.952 132.586 154.605 132.292 154.232 132.126C153.865 131.959 153.452 131.876 152.992 131.876C152.098 131.876 151.405 132.199 150.912 132.846C150.425 133.486 150.182 134.422 150.182 135.656C150.182 136.302 150.235 136.856 150.342 137.316C150.455 137.769 150.615 138.142 150.822 138.436C151.035 138.722 151.295 138.936 151.602 139.076C151.908 139.209 152.255 139.276 152.642 139.276C153.208 139.276 153.698 139.149 154.112 138.896C154.525 138.642 154.912 138.286 155.272 137.826V133.006ZM157.232 125.946V140.706H156.052C155.778 140.706 155.608 140.576 155.542 140.316L155.372 139.146C154.938 139.659 154.445 140.072 153.892 140.386C153.345 140.692 152.712 140.846 151.992 140.846C151.412 140.846 150.885 140.732 150.412 140.506C149.945 140.279 149.545 139.949 149.212 139.516C148.878 139.076 148.622 138.532 148.442 137.886C148.262 137.239 148.172 136.496 148.172 135.656C148.172 134.902 148.272 134.202 148.472 133.556C148.672 132.909 148.962 132.349 149.342 131.876C149.722 131.402 150.182 131.032 150.722 130.766C151.262 130.492 151.872 130.356 152.552 130.356C153.165 130.356 153.685 130.456 154.112 130.656C154.545 130.856 154.932 131.139 155.272 131.506V125.946H157.232ZM167.551 128.076V132.886H173.311V134.616H167.551V140.706H165.411V126.346H174.311V128.076H167.551ZM182.17 134.496C182.17 134.109 182.114 133.752 182 133.426C181.894 133.099 181.734 132.816 181.52 132.576C181.307 132.336 181.047 132.149 180.74 132.016C180.434 131.882 180.08 131.816 179.68 131.816C178.86 131.816 178.214 132.052 177.74 132.526C177.274 132.999 176.977 133.656 176.85 134.496H182.17ZM183.78 139.256C183.54 139.536 183.264 139.779 182.95 139.986C182.637 140.186 182.304 140.349 181.95 140.476C181.597 140.602 181.23 140.696 180.85 140.756C180.477 140.816 180.107 140.846 179.74 140.846C179.04 140.846 178.39 140.729 177.79 140.496C177.197 140.256 176.68 139.909 176.24 139.456C175.807 138.996 175.467 138.429 175.22 137.756C174.98 137.076 174.86 136.296 174.86 135.416C174.86 134.709 174.97 134.052 175.19 133.446C175.41 132.832 175.724 132.299 176.13 131.846C176.544 131.392 177.047 131.036 177.64 130.776C178.234 130.516 178.9 130.386 179.64 130.386C180.26 130.386 180.83 130.489 181.35 130.696C181.877 130.896 182.33 131.189 182.71 131.576C183.09 131.962 183.387 132.439 183.6 133.006C183.82 133.572 183.93 134.219 183.93 134.946C183.93 135.246 183.897 135.449 183.83 135.556C183.764 135.656 183.64 135.706 183.46 135.706H176.8C176.82 136.312 176.907 136.842 177.06 137.296C177.214 137.742 177.424 138.116 177.69 138.416C177.964 138.716 178.287 138.939 178.66 139.086C179.034 139.232 179.45 139.306 179.91 139.306C180.344 139.306 180.717 139.256 181.03 139.156C181.35 139.056 181.624 138.949 181.85 138.836C182.084 138.716 182.277 138.606 182.43 138.506C182.59 138.406 182.73 138.356 182.85 138.356C183.01 138.356 183.134 138.416 183.22 138.536L183.78 139.256ZM192.756 134.496C192.756 134.109 192.7 133.752 192.586 133.426C192.48 133.099 192.32 132.816 192.106 132.576C191.893 132.336 191.633 132.149 191.326 132.016C191.02 131.882 190.666 131.816 190.266 131.816C189.446 131.816 188.8 132.052 188.326 132.526C187.86 132.999 187.563 133.656 187.436 134.496H192.756ZM194.366 139.256C194.126 139.536 193.85 139.779 193.536 139.986C193.223 140.186 192.89 140.349 192.536 140.476C192.183 140.602 191.816 140.696 191.436 140.756C191.063 140.816 190.693 140.846 190.326 140.846C189.626 140.846 188.976 140.729 188.376 140.496C187.783 140.256 187.266 139.909 186.826 139.456C186.393 138.996 186.053 138.429 185.806 137.756C185.566 137.076 185.446 136.296 185.446 135.416C185.446 134.709 185.556 134.052 185.776 133.446C185.996 132.832 186.31 132.299 186.716 131.846C187.13 131.392 187.633 131.036 188.226 130.776C188.82 130.516 189.486 130.386 190.226 130.386C190.846 130.386 191.416 130.489 191.936 130.696C192.463 130.896 192.916 131.189 193.296 131.576C193.676 131.962 193.973 132.439 194.186 133.006C194.406 133.572 194.516 134.219 194.516 134.946C194.516 135.246 194.483 135.449 194.416 135.556C194.35 135.656 194.226 135.706 194.046 135.706H187.386C187.406 136.312 187.493 136.842 187.646 137.296C187.8 137.742 188.01 138.116 188.276 138.416C188.55 138.716 188.873 138.939 189.246 139.086C189.62 139.232 190.036 139.306 190.496 139.306C190.93 139.306 191.303 139.256 191.616 139.156C191.936 139.056 192.21 138.949 192.436 138.836C192.67 138.716 192.863 138.606 193.016 138.506C193.176 138.406 193.316 138.356 193.436 138.356C193.596 138.356 193.72 138.416 193.806 138.536L194.366 139.256ZM203.162 133.006C202.842 132.586 202.496 132.292 202.122 132.126C201.756 131.959 201.342 131.876 200.882 131.876C199.989 131.876 199.296 132.199 198.802 132.846C198.316 133.486 198.072 134.422 198.072 135.656C198.072 136.302 198.126 136.856 198.232 137.316C198.346 137.769 198.506 138.142 198.712 138.436C198.926 138.722 199.186 138.936 199.492 139.076C199.799 139.209 200.146 139.276 200.532 139.276C201.099 139.276 201.589 139.149 202.002 138.896C202.416 138.642 202.802 138.286 203.162 137.826V133.006ZM205.122 125.946V140.706H203.942C203.669 140.706 203.499 140.576 203.432 140.316L203.262 139.146C202.829 139.659 202.336 140.072 201.782 140.386C201.236 140.692 200.602 140.846 199.882 140.846C199.302 140.846 198.776 140.732 198.302 140.506C197.836 140.279 197.436 139.949 197.102 139.516C196.769 139.076 196.512 138.532 196.332 137.886C196.152 137.239 196.062 136.496 196.062 135.656C196.062 134.902 196.162 134.202 196.362 133.556C196.562 132.909 196.852 132.349 197.232 131.876C197.612 131.402 198.072 131.032 198.612 130.766C199.152 130.492 199.762 130.356 200.442 130.356C201.056 130.356 201.576 130.456 202.002 130.656C202.436 130.856 202.822 131.139 203.162 131.506V125.946H205.122Z" fill="url(#paint3_linear_144_68)"/>
<defs>
<linearGradient id="paint0_linear_144_68" x1="-25.8993" y1="92" x2="252" y2="92" gradientUnits="userSpaceOnUse">
<stop stop-color="#4EE8F2"/>
<stop offset="0.490537" stop-color="#0862F0"/>
</linearGradient>
<linearGradient id="paint1_linear_144_68" x1="126.088" y1="112.562" x2="129.261" y2="112.562" gradientUnits="userSpaceOnUse">
<stop stop-color="#4EE8F2"/>
<stop offset="0.490537" stop-color="#0862F0"/>
</linearGradient>
<linearGradient id="paint2_linear_144_68" x1="84.1882" y1="73.2091" x2="162" y2="73.2091" gradientUnits="userSpaceOnUse">
<stop stop-color="#4EE8F2"/>
<stop offset="0.490537" stop-color="#0862F0"/>
</linearGradient>
<linearGradient id="paint3_linear_144_68" x1="3.45733" y1="132.706" x2="228" y2="132.706" gradientUnits="userSpaceOnUse">
<stop stop-color="#4EE8F2"/>
<stop offset="0.490537" stop-color="#0862F0"/>
</linearGradient>
</defs>
</svg>
