<svg width="254" height="184" viewBox="0 0 254 184" fill="none" xmlns="http://www.w3.org/2000/svg">
<rect x="1" y="1" width="252" height="182" rx="21" fill="#F0F7F7" stroke="url(#paint0_linear_144_51)" stroke-width="2"/>
<path d="M127 36L81.1667 61L127 86L164.5 65.5417V94.3333H172.833V61M97.8334 78.4167V95.0833L127 111L156.167 95.0833V78.4167L127 94.3333L97.8334 78.4167Z" fill="url(#paint1_linear_144_51)"/>
<path d="M64.721 142.27L64.711 144H55.811V129.64H64.711V131.37H57.951V135.92H63.391V137.59H57.951V142.27H64.721ZM75.474 144H73.594C73.4407 144 73.3173 143.96 73.224 143.88C73.1373 143.793 73.0673 143.703 73.014 143.61L70.564 139.74C70.5307 139.84 70.4973 139.937 70.464 140.03C70.4307 140.123 70.3873 140.21 70.334 140.29L68.084 143.61C68.0173 143.703 67.9407 143.793 67.854 143.88C67.7673 143.96 67.654 144 67.514 144H65.774L69.314 138.77L65.914 133.84H67.794C67.9473 133.84 68.0573 133.863 68.124 133.91C68.1973 133.957 68.2607 134.027 68.314 134.12L70.724 137.83C70.7573 137.73 70.794 137.633 70.834 137.54C70.874 137.44 70.9273 137.337 70.994 137.23L73.064 134.16C73.184 133.947 73.344 133.84 73.544 133.84H75.334L71.934 138.68L75.474 144ZM78.9821 141.5C79.3021 141.92 79.6454 142.213 80.0121 142.38C80.3854 142.547 80.8021 142.63 81.2621 142.63C82.1554 142.63 82.8454 142.31 83.3321 141.67C83.8254 141.023 84.0721 140.083 84.0721 138.85C84.0721 138.203 84.0154 137.653 83.9021 137.2C83.7954 136.74 83.6354 136.367 83.4221 136.08C83.2154 135.787 82.9588 135.573 82.6521 135.44C82.3454 135.3 81.9988 135.23 81.6121 135.23C81.0454 135.23 80.5521 135.357 80.1321 135.61C79.7188 135.863 79.3354 136.223 78.9821 136.69V141.5ZM78.8821 135.36C79.0954 135.107 79.3221 134.877 79.5621 134.67C79.8088 134.457 80.0721 134.277 80.3521 134.13C80.6321 133.977 80.9288 133.86 81.2421 133.78C81.5621 133.693 81.9021 133.65 82.2621 133.65C82.8421 133.65 83.3654 133.763 83.8321 133.99C84.3054 134.217 84.7088 134.55 85.0421 134.99C85.3754 135.43 85.6321 135.973 85.8121 136.62C85.9988 137.267 86.0921 138.01 86.0921 138.85C86.0921 139.603 85.9888 140.303 85.7821 140.95C85.5821 141.59 85.2921 142.147 84.9121 142.62C84.5388 143.093 84.0788 143.467 83.5321 143.74C82.9921 144.007 82.3821 144.14 81.7021 144.14C81.0954 144.14 80.5754 144.04 80.1421 143.84C79.7088 143.64 79.3221 143.36 78.9821 143V147.41H77.0321V133.84H78.2021C78.4754 133.84 78.6454 133.97 78.7121 134.23L78.8821 135.36ZM95.0121 137.79C95.0121 137.403 94.9554 137.047 94.8421 136.72C94.7354 136.393 94.5754 136.11 94.3621 135.87C94.1488 135.63 93.8888 135.443 93.5821 135.31C93.2754 135.177 92.9221 135.11 92.5221 135.11C91.7021 135.11 91.0554 135.347 90.5821 135.82C90.1154 136.293 89.8188 136.95 89.6921 137.79H95.0121ZM96.6221 142.55C96.3821 142.83 96.1054 143.073 95.7921 143.28C95.4788 143.48 95.1454 143.643 94.7921 143.77C94.4388 143.897 94.0721 143.99 93.6921 144.05C93.3188 144.11 92.9488 144.14 92.5821 144.14C91.8821 144.14 91.2321 144.023 90.6321 143.79C90.0388 143.55 89.5221 143.203 89.0821 142.75C88.6488 142.29 88.3088 141.723 88.0621 141.05C87.8221 140.37 87.7021 139.59 87.7021 138.71C87.7021 138.003 87.8121 137.347 88.0321 136.74C88.2521 136.127 88.5654 135.593 88.9721 135.14C89.3854 134.687 89.8888 134.33 90.4821 134.07C91.0754 133.81 91.7421 133.68 92.4821 133.68C93.1021 133.68 93.6721 133.783 94.1921 133.99C94.7188 134.19 95.1721 134.483 95.5521 134.87C95.9321 135.257 96.2288 135.733 96.4421 136.3C96.6621 136.867 96.7721 137.513 96.7721 138.24C96.7721 138.54 96.7388 138.743 96.6721 138.85C96.6054 138.95 96.4821 139 96.3021 139H89.6421C89.6621 139.607 89.7488 140.137 89.9021 140.59C90.0554 141.037 90.2654 141.41 90.5321 141.71C90.8054 142.01 91.1288 142.233 91.5021 142.38C91.8754 142.527 92.2921 142.6 92.7521 142.6C93.1854 142.6 93.5588 142.55 93.8721 142.45C94.1921 142.35 94.4654 142.243 94.6921 142.13C94.9254 142.01 95.1188 141.9 95.2721 141.8C95.4321 141.7 95.5721 141.65 95.6921 141.65C95.8521 141.65 95.9754 141.71 96.0621 141.83L96.6221 142.55ZM100.708 135.79C101.035 135.123 101.428 134.6 101.888 134.22C102.348 133.84 102.901 133.65 103.548 133.65C103.768 133.65 103.975 133.677 104.168 133.73C104.368 133.777 104.541 133.85 104.688 133.95L104.558 135.42C104.511 135.6 104.401 135.69 104.228 135.69C104.135 135.69 103.995 135.673 103.808 135.64C103.621 135.6 103.421 135.58 103.208 135.58C102.895 135.58 102.618 135.627 102.378 135.72C102.138 135.807 101.921 135.94 101.728 136.12C101.541 136.293 101.375 136.51 101.228 136.77C101.081 137.023 100.945 137.313 100.818 137.64V144H98.868V133.84H99.988C100.201 133.84 100.345 133.88 100.418 133.96C100.498 134.033 100.555 134.167 100.588 134.36L100.708 135.79ZM109.372 144.16C108.552 144.16 107.919 143.93 107.472 143.47C107.032 143.01 106.812 142.353 106.812 141.5V135.42H105.632C105.519 135.42 105.422 135.387 105.342 135.32C105.269 135.247 105.232 135.14 105.232 135V134.21L106.882 133.98L107.322 130.95C107.349 130.837 107.399 130.75 107.472 130.69C107.552 130.623 107.652 130.59 107.772 130.59H108.762V134H111.642V135.42H108.762V141.37C108.762 141.77 108.859 142.07 109.052 142.27C109.252 142.463 109.506 142.56 109.812 142.56C109.992 142.56 110.146 142.537 110.272 142.49C110.406 142.443 110.519 142.393 110.612 142.34C110.706 142.28 110.786 142.227 110.852 142.18C110.919 142.133 110.979 142.11 111.032 142.11C111.099 142.11 111.149 142.127 111.182 142.16C111.222 142.187 111.262 142.233 111.302 142.3L111.882 143.24C111.562 143.533 111.182 143.76 110.742 143.92C110.302 144.08 109.846 144.16 109.372 144.16ZM130.617 137.01V142.61C129.89 143.13 129.117 143.52 128.297 143.78C127.477 144.033 126.584 144.16 125.617 144.16C124.457 144.16 123.407 143.98 122.467 143.62C121.534 143.26 120.737 142.757 120.077 142.11C119.417 141.463 118.907 140.69 118.547 139.79C118.194 138.89 118.017 137.9 118.017 136.82C118.017 135.733 118.187 134.74 118.527 133.84C118.874 132.933 119.367 132.16 120.007 131.52C120.647 130.873 121.42 130.373 122.327 130.02C123.24 129.66 124.264 129.48 125.397 129.48C125.97 129.48 126.5 129.523 126.987 129.61C127.48 129.697 127.937 129.82 128.357 129.98C128.777 130.14 129.164 130.333 129.517 130.56C129.877 130.78 130.21 131.03 130.517 131.31L129.907 132.27C129.814 132.423 129.69 132.52 129.537 132.56C129.384 132.6 129.217 132.563 129.037 132.45C128.864 132.35 128.67 132.233 128.457 132.1C128.25 131.967 128 131.843 127.707 131.73C127.42 131.617 127.084 131.52 126.697 131.44C126.31 131.36 125.854 131.32 125.327 131.32C124.54 131.32 123.83 131.45 123.197 131.71C122.564 131.963 122.024 132.33 121.577 132.81C121.13 133.29 120.787 133.87 120.547 134.55C120.307 135.223 120.187 135.98 120.187 136.82C120.187 137.7 120.314 138.49 120.567 139.19C120.82 139.883 121.177 140.473 121.637 140.96C122.104 141.44 122.667 141.807 123.327 142.06C123.994 142.313 124.737 142.44 125.557 142.44C125.877 142.44 126.174 142.423 126.447 142.39C126.727 142.35 126.994 142.297 127.247 142.23C127.5 142.163 127.744 142.08 127.977 141.98C128.217 141.88 128.454 141.77 128.687 141.65V138.64H126.567C126.434 138.64 126.324 138.6 126.237 138.52C126.157 138.44 126.117 138.34 126.117 138.22V137.01H130.617ZM141.361 133.84V144H140.191C139.924 144 139.751 143.87 139.671 143.61L139.531 142.59C139.311 142.823 139.081 143.037 138.841 143.23C138.601 143.423 138.344 143.59 138.071 143.73C137.798 143.863 137.508 143.967 137.201 144.04C136.894 144.12 136.564 144.16 136.211 144.16C135.651 144.16 135.158 144.067 134.731 143.88C134.311 143.693 133.958 143.433 133.671 143.1C133.384 142.76 133.168 142.353 133.021 141.88C132.874 141.407 132.801 140.883 132.801 140.31V133.84H134.761V140.31C134.761 141.037 134.928 141.603 135.261 142.01C135.594 142.41 136.104 142.61 136.791 142.61C137.291 142.61 137.758 142.493 138.191 142.26C138.624 142.02 139.031 141.693 139.411 141.28V133.84H141.361ZM146.123 133.84V144H144.173V133.84H146.123ZM146.493 130.7C146.493 130.88 146.456 131.053 146.383 131.22C146.31 131.38 146.21 131.523 146.083 131.65C145.963 131.77 145.82 131.867 145.653 131.94C145.486 132.007 145.313 132.04 145.133 132.04C144.953 132.04 144.783 132.007 144.623 131.94C144.463 131.867 144.32 131.77 144.193 131.65C144.073 131.523 143.976 131.38 143.903 131.22C143.836 131.053 143.803 130.88 143.803 130.7C143.803 130.513 143.836 130.34 143.903 130.18C143.976 130.013 144.073 129.87 144.193 129.75C144.32 129.623 144.463 129.527 144.623 129.46C144.783 129.387 144.953 129.35 145.133 129.35C145.313 129.35 145.486 129.387 145.653 129.46C145.82 129.527 145.963 129.623 146.083 129.75C146.21 129.87 146.31 130.013 146.383 130.18C146.456 130.34 146.493 130.513 146.493 130.7ZM155.496 136.3C155.176 135.88 154.83 135.587 154.456 135.42C154.09 135.253 153.676 135.17 153.216 135.17C152.323 135.17 151.63 135.493 151.136 136.14C150.65 136.78 150.406 137.717 150.406 138.95C150.406 139.597 150.46 140.15 150.566 140.61C150.68 141.063 150.84 141.437 151.046 141.73C151.26 142.017 151.52 142.23 151.826 142.37C152.133 142.503 152.48 142.57 152.866 142.57C153.433 142.57 153.923 142.443 154.336 142.19C154.75 141.937 155.136 141.58 155.496 141.12V136.3ZM157.456 129.24V144H156.276C156.003 144 155.833 143.87 155.766 143.61L155.596 142.44C155.163 142.953 154.67 143.367 154.116 143.68C153.57 143.987 152.936 144.14 152.216 144.14C151.636 144.14 151.11 144.027 150.636 143.8C150.17 143.573 149.77 143.243 149.436 142.81C149.103 142.37 148.846 141.827 148.666 141.18C148.486 140.533 148.396 139.79 148.396 138.95C148.396 138.197 148.496 137.497 148.696 136.85C148.896 136.203 149.186 135.643 149.566 135.17C149.946 134.697 150.406 134.327 150.946 134.06C151.486 133.787 152.096 133.65 152.776 133.65C153.39 133.65 153.91 133.75 154.336 133.95C154.77 134.15 155.156 134.433 155.496 134.8V129.24H157.456ZM165.637 139.49C164.843 139.517 164.17 139.58 163.617 139.68C163.063 139.773 162.613 139.9 162.267 140.06C161.92 140.22 161.67 140.41 161.517 140.63C161.363 140.843 161.287 141.083 161.287 141.35C161.287 141.603 161.327 141.823 161.407 142.01C161.493 142.19 161.607 142.34 161.747 142.46C161.893 142.573 162.063 142.657 162.257 142.71C162.45 142.763 162.66 142.79 162.887 142.79C163.187 142.79 163.46 142.76 163.707 142.7C163.96 142.64 164.197 142.557 164.417 142.45C164.637 142.337 164.847 142.2 165.047 142.04C165.247 141.88 165.443 141.697 165.637 141.49V139.49ZM159.917 135.26C160.483 134.72 161.097 134.317 161.757 134.05C162.423 133.783 163.153 133.65 163.947 133.65C164.527 133.65 165.04 133.747 165.487 133.94C165.933 134.127 166.31 134.39 166.617 134.73C166.923 135.07 167.153 135.477 167.307 135.95C167.467 136.423 167.547 136.947 167.547 137.52V144H166.677C166.483 144 166.337 143.97 166.237 143.91C166.137 143.843 166.057 143.723 165.997 143.55L165.787 142.66C165.527 142.9 165.27 143.113 165.017 143.3C164.763 143.48 164.497 143.637 164.217 143.77C163.943 143.897 163.65 143.993 163.337 144.06C163.023 144.127 162.677 144.16 162.297 144.16C161.897 144.16 161.52 144.107 161.167 144C160.82 143.887 160.517 143.717 160.257 143.49C159.997 143.263 159.79 142.98 159.637 142.64C159.49 142.3 159.417 141.903 159.417 141.45C159.417 141.05 159.523 140.667 159.737 140.3C159.957 139.927 160.31 139.593 160.797 139.3C161.29 139.007 161.93 138.767 162.717 138.58C163.51 138.393 164.483 138.287 165.637 138.26V137.52C165.637 136.753 165.473 136.18 165.147 135.8C164.82 135.42 164.34 135.23 163.707 135.23C163.28 135.23 162.92 135.283 162.627 135.39C162.34 135.497 162.09 135.617 161.877 135.75C161.67 135.877 161.487 135.993 161.327 136.1C161.173 136.207 161.013 136.26 160.847 136.26C160.713 136.26 160.597 136.223 160.497 136.15C160.403 136.077 160.327 135.99 160.267 135.89L159.917 135.26ZM171.987 135.25C172.207 135.017 172.437 134.803 172.677 134.61C172.917 134.417 173.17 134.253 173.437 134.12C173.71 133.98 174 133.873 174.307 133.8C174.62 133.72 174.954 133.68 175.307 133.68C175.867 133.68 176.357 133.773 176.777 133.96C177.204 134.147 177.56 134.41 177.847 134.75C178.134 135.083 178.35 135.487 178.497 135.96C178.644 136.433 178.717 136.957 178.717 137.53V144H176.757V137.53C176.757 136.803 176.59 136.24 176.257 135.84C175.924 135.433 175.414 135.23 174.727 135.23C174.227 135.23 173.757 135.35 173.317 135.59C172.884 135.823 172.48 136.143 172.107 136.55V144H170.157V133.84H171.327C171.6 133.84 171.77 133.97 171.837 134.23L171.987 135.25ZM188.469 135.74C188.409 135.813 188.349 135.873 188.289 135.92C188.235 135.96 188.155 135.98 188.049 135.98C187.942 135.98 187.829 135.94 187.709 135.86C187.595 135.773 187.449 135.683 187.269 135.59C187.095 135.49 186.882 135.4 186.629 135.32C186.382 135.233 186.075 135.19 185.709 135.19C185.229 135.19 184.805 135.277 184.439 135.45C184.072 135.623 183.765 135.87 183.519 136.19C183.279 136.51 183.095 136.9 182.969 137.36C182.842 137.82 182.779 138.337 182.779 138.91C182.779 139.503 182.845 140.033 182.979 140.5C183.112 140.96 183.302 141.35 183.549 141.67C183.795 141.983 184.095 142.223 184.449 142.39C184.802 142.55 185.195 142.63 185.629 142.63C186.049 142.63 186.395 142.58 186.669 142.48C186.942 142.373 187.169 142.26 187.349 142.14C187.529 142.02 187.679 141.91 187.799 141.81C187.919 141.703 188.042 141.65 188.169 141.65C188.329 141.65 188.452 141.71 188.539 141.83L189.099 142.55C188.865 142.837 188.602 143.08 188.309 143.28C188.022 143.48 187.715 143.643 187.389 143.77C187.062 143.897 186.719 143.99 186.359 144.05C186.005 144.11 185.645 144.14 185.279 144.14C184.645 144.14 184.052 144.023 183.499 143.79C182.952 143.557 182.475 143.217 182.069 142.77C181.669 142.323 181.352 141.777 181.119 141.13C180.885 140.477 180.769 139.737 180.769 138.91C180.769 138.157 180.872 137.46 181.079 136.82C181.292 136.18 181.602 135.63 182.009 135.17C182.422 134.703 182.929 134.34 183.529 134.08C184.129 133.813 184.815 133.68 185.589 133.68C186.315 133.68 186.955 133.797 187.509 134.03C188.062 134.263 188.555 134.593 188.989 135.02L188.469 135.74ZM197.473 137.79C197.473 137.403 197.416 137.047 197.303 136.72C197.196 136.393 197.036 136.11 196.823 135.87C196.61 135.63 196.35 135.443 196.043 135.31C195.736 135.177 195.383 135.11 194.983 135.11C194.163 135.11 193.516 135.347 193.043 135.82C192.576 136.293 192.28 136.95 192.153 137.79H197.473ZM199.083 142.55C198.843 142.83 198.566 143.073 198.253 143.28C197.94 143.48 197.606 143.643 197.253 143.77C196.9 143.897 196.533 143.99 196.153 144.05C195.78 144.11 195.41 144.14 195.043 144.14C194.343 144.14 193.693 144.023 193.093 143.79C192.5 143.55 191.983 143.203 191.543 142.75C191.11 142.29 190.77 141.723 190.523 141.05C190.283 140.37 190.163 139.59 190.163 138.71C190.163 138.003 190.273 137.347 190.493 136.74C190.713 136.127 191.026 135.593 191.433 135.14C191.846 134.687 192.35 134.33 192.943 134.07C193.536 133.81 194.203 133.68 194.943 133.68C195.563 133.68 196.133 133.783 196.653 133.99C197.18 134.19 197.633 134.483 198.013 134.87C198.393 135.257 198.69 135.733 198.903 136.3C199.123 136.867 199.233 137.513 199.233 138.24C199.233 138.54 199.2 138.743 199.133 138.85C199.066 138.95 198.943 139 198.763 139H192.103C192.123 139.607 192.21 140.137 192.363 140.59C192.516 141.037 192.726 141.41 192.993 141.71C193.266 142.01 193.59 142.233 193.963 142.38C194.336 142.527 194.753 142.6 195.213 142.6C195.646 142.6 196.02 142.55 196.333 142.45C196.653 142.35 196.926 142.243 197.153 142.13C197.386 142.01 197.58 141.9 197.733 141.8C197.893 141.7 198.033 141.65 198.153 141.65C198.313 141.65 198.436 141.71 198.523 141.83L199.083 142.55Z" fill="url(#paint2_linear_144_51)"/>
<defs>
<linearGradient id="paint0_linear_144_51" x1="-25.8993" y1="92" x2="252" y2="92" gradientUnits="userSpaceOnUse">
<stop stop-color="#4EE8F2"/>
<stop offset="0.490537" stop-color="#0862F0"/>
</linearGradient>
<linearGradient id="paint1_linear_144_51" x1="70.937" y1="73.5" x2="172.833" y2="73.5" gradientUnits="userSpaceOnUse">
<stop stop-color="#4EE8F2"/>
<stop offset="0.490537" stop-color="#0862F0"/>
</linearGradient>
<linearGradient id="paint2_linear_144_51" x1="37.7068" y1="136" x2="200" y2="136" gradientUnits="userSpaceOnUse">
<stop stop-color="#4EE8F2"/>
<stop offset="0.490537" stop-color="#0862F0"/>
</linearGradient>
</defs>
</svg>
