<svg width="254" height="184" viewBox="0 0 254 184" fill="none" xmlns="http://www.w3.org/2000/svg">
<rect x="1" y="1" width="252" height="182" rx="21" fill="#F0F7F7" stroke="url(#paint0_linear_144_56)" stroke-width="2"/>
<path d="M111.893 40.6667C111.893 39.1638 112.49 37.7224 113.552 36.6597C114.615 35.597 116.056 35 117.559 35H136.448C137.951 35 139.392 35.597 140.455 36.6597C141.518 37.7224 142.115 39.1638 142.115 40.6667V44.4444C142.115 45.9473 141.518 47.3887 140.455 48.4514C139.392 49.5141 137.951 50.1111 136.448 50.1111H117.559C116.056 50.1111 114.615 49.5141 113.552 48.4514C112.49 47.3887 111.893 45.9473 111.893 44.4444V40.6667Z" fill="url(#paint1_linear_144_56)"/>
<path fill-rule="evenodd" clip-rule="evenodd" d="M106.222 42.6956C101.47 42.96 98.4702 43.7156 96.3207 45.8689C93 49.1896 93 54.5313 93 65.2149V87.8816C93 98.5689 93 103.911 96.3207 107.231C99.6376 110.548 104.983 110.548 115.667 110.548H138.333C149.017 110.548 154.362 110.548 157.679 107.231C161 103.907 161 98.5689 161 87.8816V65.2149C161 54.5313 161 49.1896 157.679 45.8689C155.53 43.7156 152.53 42.96 147.778 42.6956V44.4447C147.778 47.4505 146.584 50.3331 144.458 52.4585C142.333 54.584 139.45 55.778 136.444 55.778H117.556C114.55 55.778 111.667 54.584 109.542 52.4585C107.416 50.3331 106.222 47.4505 106.222 44.4447V42.6956ZM105.278 67.1113C105.278 66.3599 105.576 65.6392 106.108 65.1079C106.639 64.5765 107.36 64.278 108.111 64.278H145.889C146.64 64.278 147.361 64.5765 147.892 65.1079C148.424 65.6392 148.722 66.3599 148.722 67.1113C148.722 67.8628 148.424 68.5834 147.892 69.1148C147.361 69.6462 146.64 69.9447 145.889 69.9447H108.111C107.36 69.9447 106.639 69.6462 106.108 69.1148C105.576 68.5834 105.278 67.8628 105.278 67.1113ZM109.056 80.3336C109.056 79.5821 109.354 78.8614 109.885 78.3301C110.417 77.7987 111.137 77.5002 111.889 77.5002H142.111C142.863 77.5002 143.583 77.7987 144.115 78.3301C144.646 78.8614 144.944 79.5821 144.944 80.3336C144.944 81.085 144.646 81.8057 144.115 82.337C143.583 82.8684 142.863 83.1669 142.111 83.1669H111.889C111.137 83.1669 110.417 82.8684 109.885 82.337C109.354 81.8057 109.056 81.085 109.056 80.3336ZM112.833 93.5558C112.833 92.8043 113.132 92.0837 113.663 91.5523C114.195 91.021 114.915 90.7224 115.667 90.7224H138.333C139.085 90.7224 139.805 91.021 140.337 91.5523C140.868 92.0837 141.167 92.8043 141.167 93.5558C141.167 94.3072 140.868 95.0279 140.337 95.5592C139.805 96.0906 139.085 96.3891 138.333 96.3891H115.667C114.915 96.3891 114.195 96.0906 113.663 95.5592C113.132 95.0279 112.833 94.3072 112.833 93.5558Z" fill="url(#paint2_linear_144_56)"/>
<path d="M61.4794 134.578C62.0194 134.578 62.4927 134.508 62.8994 134.368C63.3127 134.228 63.656 134.031 63.9294 133.778C64.2094 133.518 64.4194 133.211 64.5594 132.858C64.6994 132.498 64.7694 132.101 64.7694 131.668C64.7694 130.795 64.496 130.108 63.9494 129.608C63.4094 129.108 62.586 128.858 61.4794 128.858H59.2594V134.578H61.4794ZM61.4794 127.188C62.3994 127.188 63.1994 127.295 63.8794 127.508C64.5594 127.721 65.1227 128.025 65.5694 128.418C66.016 128.805 66.346 129.275 66.5594 129.828C66.7794 130.381 66.8894 130.995 66.8894 131.668C66.8894 132.341 66.7727 132.961 66.5394 133.528C66.306 134.088 65.9627 134.571 65.5094 134.978C65.056 135.385 64.4894 135.701 63.8094 135.928C63.136 136.148 62.3594 136.258 61.4794 136.258H59.2594V141.548H57.1294V127.188H61.4794ZM70.503 133.338C70.8296 132.671 71.223 132.148 71.683 131.768C72.143 131.388 72.6963 131.198 73.343 131.198C73.563 131.198 73.7696 131.225 73.963 131.278C74.163 131.325 74.3363 131.398 74.483 131.498L74.353 132.968C74.3063 133.148 74.1963 133.238 74.023 133.238C73.9296 133.238 73.7896 133.221 73.603 133.188C73.4163 133.148 73.2163 133.128 73.003 133.128C72.6896 133.128 72.413 133.175 72.173 133.268C71.933 133.355 71.7163 133.488 71.523 133.668C71.3363 133.841 71.1696 134.058 71.023 134.318C70.8763 134.571 70.7396 134.861 70.613 135.188V141.548H68.663V131.388H69.783C69.9963 131.388 70.1396 131.428 70.213 131.508C70.293 131.581 70.3496 131.715 70.383 131.908L70.503 133.338ZM79.9461 131.228C80.6928 131.228 81.3661 131.351 81.9661 131.598C82.5728 131.838 83.0861 132.188 83.5061 132.648C83.9328 133.101 84.2594 133.651 84.4861 134.298C84.7128 134.938 84.8261 135.658 84.8261 136.458C84.8261 137.258 84.7128 137.981 84.4861 138.628C84.2594 139.275 83.9328 139.825 83.5061 140.278C83.0861 140.731 82.5728 141.081 81.9661 141.328C81.3661 141.568 80.6928 141.688 79.9461 141.688C79.1928 141.688 78.5128 141.568 77.9061 141.328C77.3061 141.081 76.7928 140.731 76.3661 140.278C75.9394 139.825 75.6094 139.275 75.3761 138.628C75.1494 137.981 75.0361 137.258 75.0361 136.458C75.0361 135.658 75.1494 134.938 75.3761 134.298C75.6094 133.651 75.9394 133.101 76.3661 132.648C76.7928 132.188 77.3061 131.838 77.9061 131.598C78.5128 131.351 79.1928 131.228 79.9461 131.228ZM79.9461 140.168C80.9061 140.168 81.6228 139.845 82.0961 139.198C82.5694 138.551 82.8061 137.641 82.8061 136.468C82.8061 135.295 82.5694 134.385 82.0961 133.738C81.6228 133.085 80.9061 132.758 79.9461 132.758C78.9728 132.758 78.2461 133.085 77.7661 133.738C77.2928 134.385 77.0561 135.295 77.0561 136.468C77.0561 137.641 77.2928 138.551 77.7661 139.198C78.2461 139.845 78.9728 140.168 79.9461 140.168ZM89.0428 131.388V142.188C89.0428 142.608 88.9861 142.998 88.8728 143.358C88.7661 143.725 88.5928 144.041 88.3528 144.308C88.1195 144.581 87.8128 144.795 87.4328 144.948C87.0595 145.101 86.6061 145.178 86.0728 145.178C85.8528 145.178 85.6528 145.161 85.4728 145.128C85.2861 145.095 85.0995 145.048 84.9128 144.988L84.9928 143.928C85.0195 143.801 85.0795 143.731 85.1728 143.718C85.2595 143.705 85.4295 143.698 85.6828 143.698C86.1961 143.698 86.5595 143.581 86.7728 143.348C86.9861 143.115 87.0928 142.728 87.0928 142.188V131.388H89.0428ZM89.4128 128.248C89.4128 128.428 89.3761 128.601 89.3028 128.768C89.2295 128.928 89.1295 129.071 89.0028 129.198C88.8761 129.318 88.7295 129.415 88.5628 129.488C88.4028 129.555 88.2295 129.588 88.0428 129.588C87.8628 129.588 87.6928 129.555 87.5328 129.488C87.3728 129.415 87.2295 129.318 87.1028 129.198C86.9828 129.071 86.8861 128.928 86.8128 128.768C86.7461 128.601 86.7128 128.428 86.7128 128.248C86.7128 128.061 86.7461 127.888 86.8128 127.728C86.8861 127.561 86.9828 127.418 87.1028 127.298C87.2295 127.171 87.3728 127.075 87.5328 127.008C87.6928 126.935 87.8628 126.898 88.0428 126.898C88.2295 126.898 88.4028 126.935 88.5628 127.008C88.7295 127.075 88.8761 127.171 89.0028 127.298C89.1295 127.418 89.2295 127.561 89.3028 127.728C89.3761 127.888 89.4128 128.061 89.4128 128.248ZM98.5961 135.338C98.5961 134.951 98.5394 134.595 98.4261 134.268C98.3194 133.941 98.1594 133.658 97.9461 133.418C97.7328 133.178 97.4728 132.991 97.1661 132.858C96.8594 132.725 96.5061 132.658 96.1061 132.658C95.2861 132.658 94.6394 132.895 94.1661 133.368C93.6994 133.841 93.4028 134.498 93.2761 135.338H98.5961ZM100.206 140.098C99.9661 140.378 99.6894 140.621 99.3761 140.828C99.0628 141.028 98.7294 141.191 98.3761 141.318C98.0228 141.445 97.6561 141.538 97.2761 141.598C96.9028 141.658 96.5328 141.688 96.1661 141.688C95.4661 141.688 94.8161 141.571 94.2161 141.338C93.6228 141.098 93.1061 140.751 92.6661 140.298C92.2328 139.838 91.8928 139.271 91.6461 138.598C91.4061 137.918 91.2861 137.138 91.2861 136.258C91.2861 135.551 91.3961 134.895 91.6161 134.288C91.8361 133.675 92.1494 133.141 92.5561 132.688C92.9694 132.235 93.4728 131.878 94.0661 131.618C94.6594 131.358 95.3261 131.228 96.0661 131.228C96.6861 131.228 97.2561 131.331 97.7761 131.538C98.3028 131.738 98.7561 132.031 99.1361 132.418C99.5161 132.805 99.8128 133.281 100.026 133.848C100.246 134.415 100.356 135.061 100.356 135.788C100.356 136.088 100.323 136.291 100.256 136.398C100.189 136.498 100.066 136.548 99.8861 136.548H93.2261C93.2461 137.155 93.3328 137.685 93.4861 138.138C93.6394 138.585 93.8494 138.958 94.1161 139.258C94.3894 139.558 94.7128 139.781 95.0861 139.928C95.4594 140.075 95.8761 140.148 96.3361 140.148C96.7694 140.148 97.1428 140.098 97.4561 139.998C97.7761 139.898 98.0494 139.791 98.2761 139.678C98.5094 139.558 98.7028 139.448 98.8561 139.348C99.0161 139.248 99.1561 139.198 99.2761 139.198C99.4361 139.198 99.5594 139.258 99.6461 139.378L100.206 140.098ZM109.572 133.288C109.512 133.361 109.452 133.421 109.392 133.468C109.339 133.508 109.259 133.528 109.152 133.528C109.045 133.528 108.932 133.488 108.812 133.408C108.699 133.321 108.552 133.231 108.372 133.138C108.199 133.038 107.985 132.948 107.732 132.868C107.485 132.781 107.179 132.738 106.812 132.738C106.332 132.738 105.909 132.825 105.542 132.998C105.175 133.171 104.869 133.418 104.622 133.738C104.382 134.058 104.199 134.448 104.072 134.908C103.945 135.368 103.882 135.885 103.882 136.458C103.882 137.051 103.949 137.581 104.082 138.048C104.215 138.508 104.405 138.898 104.652 139.218C104.899 139.531 105.199 139.771 105.552 139.938C105.905 140.098 106.299 140.178 106.732 140.178C107.152 140.178 107.499 140.128 107.772 140.028C108.045 139.921 108.272 139.808 108.452 139.688C108.632 139.568 108.782 139.458 108.902 139.358C109.022 139.251 109.145 139.198 109.272 139.198C109.432 139.198 109.555 139.258 109.642 139.378L110.202 140.098C109.969 140.385 109.705 140.628 109.412 140.828C109.125 141.028 108.819 141.191 108.492 141.318C108.165 141.445 107.822 141.538 107.462 141.598C107.109 141.658 106.749 141.688 106.382 141.688C105.749 141.688 105.155 141.571 104.602 141.338C104.055 141.105 103.579 140.765 103.172 140.318C102.772 139.871 102.455 139.325 102.222 138.678C101.989 138.025 101.872 137.285 101.872 136.458C101.872 135.705 101.975 135.008 102.182 134.368C102.395 133.728 102.705 133.178 103.112 132.718C103.525 132.251 104.032 131.888 104.632 131.628C105.232 131.361 105.919 131.228 106.692 131.228C107.419 131.228 108.059 131.345 108.612 131.578C109.165 131.811 109.659 132.141 110.092 132.568L109.572 133.288ZM115.202 141.708C114.382 141.708 113.749 141.478 113.302 141.018C112.862 140.558 112.642 139.901 112.642 139.048V132.968H111.462C111.349 132.968 111.252 132.935 111.172 132.868C111.099 132.795 111.062 132.688 111.062 132.548V131.758L112.712 131.528L113.152 128.498C113.179 128.385 113.229 128.298 113.302 128.238C113.382 128.171 113.482 128.138 113.602 128.138H114.592V131.548H117.472V132.968H114.592V138.918C114.592 139.318 114.689 139.618 114.882 139.818C115.082 140.011 115.336 140.108 115.642 140.108C115.822 140.108 115.976 140.085 116.102 140.038C116.236 139.991 116.349 139.941 116.442 139.888C116.536 139.828 116.616 139.775 116.682 139.728C116.749 139.681 116.809 139.658 116.862 139.658C116.929 139.658 116.979 139.675 117.012 139.708C117.052 139.735 117.092 139.781 117.132 139.848L117.712 140.788C117.392 141.081 117.012 141.308 116.572 141.468C116.132 141.628 115.676 141.708 115.202 141.708ZM134.757 138.468C134.877 138.468 134.98 138.515 135.067 138.608L135.907 139.528C135.32 140.221 134.604 140.758 133.757 141.138C132.917 141.518 131.904 141.708 130.717 141.708C129.677 141.708 128.734 141.528 127.887 141.168C127.047 140.808 126.327 140.305 125.727 139.658C125.134 139.011 124.674 138.238 124.347 137.338C124.02 136.438 123.857 135.448 123.857 134.368C123.857 133.288 124.027 132.298 124.367 131.398C124.714 130.498 125.197 129.725 125.817 129.078C126.437 128.431 127.177 127.928 128.037 127.568C128.904 127.208 129.86 127.028 130.907 127.028C131.927 127.028 132.834 127.195 133.627 127.528C134.42 127.861 135.11 128.305 135.697 128.858L134.997 129.848C134.95 129.921 134.89 129.981 134.817 130.028C134.75 130.075 134.66 130.098 134.547 130.098C134.42 130.098 134.27 130.035 134.097 129.908C133.93 129.781 133.707 129.641 133.427 129.488C133.154 129.328 132.814 129.185 132.407 129.058C132 128.931 131.494 128.868 130.887 128.868C130.174 128.868 129.52 128.995 128.927 129.248C128.334 129.495 127.82 129.855 127.387 130.328C126.96 130.795 126.627 131.371 126.387 132.058C126.154 132.738 126.037 133.508 126.037 134.368C126.037 135.241 126.16 136.018 126.407 136.698C126.654 137.378 126.994 137.955 127.427 138.428C127.86 138.901 128.37 139.261 128.957 139.508C129.544 139.755 130.177 139.878 130.857 139.878C131.27 139.878 131.64 139.855 131.967 139.808C132.3 139.755 132.604 139.678 132.877 139.578C133.157 139.478 133.42 139.351 133.667 139.198C133.914 139.038 134.157 138.848 134.397 138.628C134.45 138.581 134.507 138.545 134.567 138.518C134.627 138.485 134.69 138.468 134.757 138.468ZM139.429 133.338C139.755 132.671 140.149 132.148 140.609 131.768C141.069 131.388 141.622 131.198 142.269 131.198C142.489 131.198 142.695 131.225 142.889 131.278C143.089 131.325 143.262 131.398 143.409 131.498L143.279 132.968C143.232 133.148 143.122 133.238 142.949 133.238C142.855 133.238 142.715 133.221 142.529 133.188C142.342 133.148 142.142 133.128 141.929 133.128C141.615 133.128 141.339 133.175 141.099 133.268C140.859 133.355 140.642 133.488 140.449 133.668C140.262 133.841 140.095 134.058 139.949 134.318C139.802 134.571 139.665 134.861 139.539 135.188V141.548H137.589V131.388H138.709C138.922 131.388 139.065 131.428 139.139 131.508C139.219 131.581 139.275 131.715 139.309 131.908L139.429 133.338ZM151.272 135.338C151.272 134.951 151.215 134.595 151.102 134.268C150.995 133.941 150.835 133.658 150.622 133.418C150.409 133.178 150.149 132.991 149.842 132.858C149.535 132.725 149.182 132.658 148.782 132.658C147.962 132.658 147.315 132.895 146.842 133.368C146.375 133.841 146.079 134.498 145.952 135.338H151.272ZM152.882 140.098C152.642 140.378 152.365 140.621 152.052 140.828C151.739 141.028 151.405 141.191 151.052 141.318C150.699 141.445 150.332 141.538 149.952 141.598C149.579 141.658 149.209 141.688 148.842 141.688C148.142 141.688 147.492 141.571 146.892 141.338C146.299 141.098 145.782 140.751 145.342 140.298C144.909 139.838 144.569 139.271 144.322 138.598C144.082 137.918 143.962 137.138 143.962 136.258C143.962 135.551 144.072 134.895 144.292 134.288C144.512 133.675 144.825 133.141 145.232 132.688C145.645 132.235 146.149 131.878 146.742 131.618C147.335 131.358 148.002 131.228 148.742 131.228C149.362 131.228 149.932 131.331 150.452 131.538C150.979 131.738 151.432 132.031 151.812 132.418C152.192 132.805 152.489 133.281 152.702 133.848C152.922 134.415 153.032 135.061 153.032 135.788C153.032 136.088 152.999 136.291 152.932 136.398C152.865 136.498 152.742 136.548 152.562 136.548H145.902C145.922 137.155 146.009 137.685 146.162 138.138C146.315 138.585 146.525 138.958 146.792 139.258C147.065 139.558 147.389 139.781 147.762 139.928C148.135 140.075 148.552 140.148 149.012 140.148C149.445 140.148 149.819 140.098 150.132 139.998C150.452 139.898 150.725 139.791 150.952 139.678C151.185 139.558 151.379 139.448 151.532 139.348C151.692 139.248 151.832 139.198 151.952 139.198C152.112 139.198 152.235 139.258 152.322 139.378L152.882 140.098ZM160.588 137.038C159.794 137.065 159.121 137.128 158.568 137.228C158.014 137.321 157.564 137.448 157.218 137.608C156.871 137.768 156.621 137.958 156.468 138.178C156.314 138.391 156.238 138.631 156.238 138.898C156.238 139.151 156.278 139.371 156.358 139.558C156.444 139.738 156.558 139.888 156.698 140.008C156.844 140.121 157.014 140.205 157.208 140.258C157.401 140.311 157.611 140.338 157.838 140.338C158.138 140.338 158.411 140.308 158.658 140.248C158.911 140.188 159.148 140.105 159.368 139.998C159.588 139.885 159.798 139.748 159.998 139.588C160.198 139.428 160.394 139.245 160.588 139.038V137.038ZM154.868 132.808C155.434 132.268 156.048 131.865 156.708 131.598C157.374 131.331 158.104 131.198 158.898 131.198C159.478 131.198 159.991 131.295 160.438 131.488C160.884 131.675 161.261 131.938 161.568 132.278C161.874 132.618 162.104 133.025 162.258 133.498C162.418 133.971 162.498 134.495 162.498 135.068V141.548H161.628C161.434 141.548 161.288 141.518 161.188 141.458C161.088 141.391 161.008 141.271 160.948 141.098L160.738 140.208C160.478 140.448 160.221 140.661 159.968 140.848C159.714 141.028 159.448 141.185 159.168 141.318C158.894 141.445 158.601 141.541 158.288 141.608C157.974 141.675 157.628 141.708 157.248 141.708C156.848 141.708 156.471 141.655 156.118 141.548C155.771 141.435 155.468 141.265 155.208 141.038C154.948 140.811 154.741 140.528 154.588 140.188C154.441 139.848 154.368 139.451 154.368 138.998C154.368 138.598 154.474 138.215 154.688 137.848C154.908 137.475 155.261 137.141 155.748 136.848C156.241 136.555 156.881 136.315 157.668 136.128C158.461 135.941 159.434 135.835 160.588 135.808V135.068C160.588 134.301 160.424 133.728 160.098 133.348C159.771 132.968 159.291 132.778 158.658 132.778C158.231 132.778 157.871 132.831 157.578 132.938C157.291 133.045 157.041 133.165 156.828 133.298C156.621 133.425 156.438 133.541 156.278 133.648C156.124 133.755 155.964 133.808 155.798 133.808C155.664 133.808 155.548 133.771 155.448 133.698C155.354 133.625 155.278 133.538 155.218 133.438L154.868 132.808ZM174.602 141.548H172.642V132.968H167.542V138.918C167.542 139.318 167.638 139.618 167.832 139.818C168.032 140.011 168.285 140.108 168.592 140.108C168.772 140.108 168.925 140.085 169.052 140.038C169.185 139.991 169.298 139.941 169.392 139.888C169.485 139.828 169.565 139.775 169.632 139.728C169.698 139.681 169.758 139.658 169.812 139.658C169.878 139.658 169.928 139.675 169.962 139.708C170.002 139.735 170.042 139.781 170.082 139.848L170.662 140.788C170.342 141.081 169.962 141.308 169.522 141.468C169.082 141.628 168.625 141.708 168.152 141.708C167.332 141.708 166.698 141.478 166.252 141.018C165.812 140.558 165.592 139.901 165.592 139.048V132.968H164.412C164.298 132.968 164.202 132.935 164.122 132.868C164.048 132.795 164.012 132.688 164.012 132.548V131.758L165.672 131.528L166.102 128.498C166.128 128.385 166.178 128.298 166.252 128.238C166.332 128.171 166.432 128.138 166.552 128.138H167.542V131.548H174.602V141.548ZM175.042 128.188C175.042 128.368 175.005 128.541 174.932 128.708C174.858 128.868 174.758 129.011 174.632 129.138C174.512 129.258 174.368 129.355 174.202 129.428C174.035 129.495 173.862 129.528 173.682 129.528C173.502 129.528 173.332 129.495 173.172 129.428C173.012 129.355 172.868 129.258 172.742 129.138C172.622 129.011 172.525 128.868 172.452 128.708C172.385 128.541 172.352 128.368 172.352 128.188C172.352 128.001 172.385 127.825 172.452 127.658C172.525 127.491 172.622 127.348 172.742 127.228C172.868 127.101 173.012 127.005 173.172 126.938C173.332 126.865 173.502 126.828 173.682 126.828C173.862 126.828 174.035 126.865 174.202 126.938C174.368 127.005 174.512 127.101 174.632 127.228C174.758 127.348 174.858 127.491 174.932 127.658C175.005 127.825 175.042 128.001 175.042 128.188ZM181.763 131.228C182.509 131.228 183.183 131.351 183.783 131.598C184.389 131.838 184.903 132.188 185.323 132.648C185.749 133.101 186.076 133.651 186.303 134.298C186.529 134.938 186.643 135.658 186.643 136.458C186.643 137.258 186.529 137.981 186.303 138.628C186.076 139.275 185.749 139.825 185.323 140.278C184.903 140.731 184.389 141.081 183.783 141.328C183.183 141.568 182.509 141.688 181.763 141.688C181.009 141.688 180.329 141.568 179.723 141.328C179.123 141.081 178.609 140.731 178.183 140.278C177.756 139.825 177.426 139.275 177.193 138.628C176.966 137.981 176.853 137.258 176.853 136.458C176.853 135.658 176.966 134.938 177.193 134.298C177.426 133.651 177.756 133.101 178.183 132.648C178.609 132.188 179.123 131.838 179.723 131.598C180.329 131.351 181.009 131.228 181.763 131.228ZM181.763 140.168C182.723 140.168 183.439 139.845 183.913 139.198C184.386 138.551 184.623 137.641 184.623 136.468C184.623 135.295 184.386 134.385 183.913 133.738C183.439 133.085 182.723 132.758 181.763 132.758C180.789 132.758 180.063 133.085 179.583 133.738C179.109 134.385 178.873 135.295 178.873 136.468C178.873 137.641 179.109 138.551 179.583 139.198C180.063 139.845 180.789 140.168 181.763 140.168ZM190.649 132.798C190.869 132.565 191.099 132.351 191.339 132.158C191.579 131.965 191.833 131.801 192.099 131.668C192.373 131.528 192.663 131.421 192.969 131.348C193.283 131.268 193.616 131.228 193.969 131.228C194.529 131.228 195.019 131.321 195.439 131.508C195.866 131.695 196.223 131.958 196.509 132.298C196.796 132.631 197.013 133.035 197.159 133.508C197.306 133.981 197.379 134.505 197.379 135.078V141.548H195.419V135.078C195.419 134.351 195.253 133.788 194.919 133.388C194.586 132.981 194.076 132.778 193.389 132.778C192.889 132.778 192.419 132.898 191.979 133.138C191.546 133.371 191.143 133.691 190.769 134.098V141.548H188.819V131.388H189.989C190.263 131.388 190.433 131.518 190.499 131.778L190.649 132.798Z" fill="url(#paint3_linear_144_56)"/>
<defs>
<linearGradient id="paint0_linear_144_56" x1="-25.8993" y1="92" x2="252" y2="92" gradientUnits="userSpaceOnUse">
<stop stop-color="#4EE8F2"/>
<stop offset="0.490537" stop-color="#0862F0"/>
</linearGradient>
<linearGradient id="paint1_linear_144_56" x1="108.52" y1="42.5556" x2="142.115" y2="42.5556" gradientUnits="userSpaceOnUse">
<stop stop-color="#4EE8F2"/>
<stop offset="0.490537" stop-color="#0862F0"/>
</linearGradient>
<linearGradient id="paint2_linear_144_56" x1="85.4114" y1="76.6219" x2="161" y2="76.6219" gradientUnits="userSpaceOnUse">
<stop stop-color="#4EE8F2"/>
<stop offset="0.490537" stop-color="#0862F0"/>
</linearGradient>
<linearGradient id="paint3_linear_144_56" x1="38.93" y1="133.548" x2="199" y2="133.548" gradientUnits="userSpaceOnUse">
<stop stop-color="#4EE8F2"/>
<stop offset="0.490537" stop-color="#0862F0"/>
</linearGradient>
</defs>
</svg>
