<svg width="252" height="182" viewBox="0 0 252 182" fill="none" xmlns="http://www.w3.org/2000/svg">
<rect x="0.5" y="0.5" width="251" height="181" rx="20.5" fill="url(#paint0_linear_144_63)" stroke="url(#paint1_linear_144_63)"/>
<path d="M158.9 52.2H154.85V84.6C154.85 86.8275 153.028 88.65 150.8 88.65H102.2V92.7C102.2 97.155 105.845 100.8 110.3 100.8H150.8L167 117V60.3C167 55.845 163.355 52.2 158.9 52.2ZM146.75 72.45V44.1C146.75 39.645 143.105 36 138.65 36H94.1C89.645 36 86 39.645 86 44.1V96.75L102.2 80.55H138.65C143.105 80.55 146.75 76.905 146.75 72.45Z" fill="white"/>
<path d="M67.402 134.82C67.402 135.68 67.5187 136.45 67.752 137.13C67.9854 137.803 68.3187 138.377 68.752 138.85C69.1854 139.323 69.7054 139.687 70.312 139.94C70.9254 140.187 71.6087 140.31 72.362 140.31C73.1154 140.31 73.7954 140.187 74.402 139.94C75.0154 139.687 75.5354 139.323 75.962 138.85C76.3954 138.377 76.7287 137.803 76.962 137.13C77.1954 136.45 77.312 135.68 77.312 134.82C77.312 133.967 77.1954 133.2 76.962 132.52C76.7287 131.84 76.3954 131.263 75.962 130.79C75.5354 130.317 75.0154 129.953 74.402 129.7C73.7954 129.447 73.1154 129.32 72.362 129.32C71.6087 129.32 70.9254 129.447 70.312 129.7C69.7054 129.953 69.1854 130.317 68.752 130.79C68.3187 131.263 67.9854 131.84 67.752 132.52C67.5187 133.2 67.402 133.967 67.402 134.82ZM80.182 144.92H78.422C78.162 144.92 77.932 144.883 77.732 144.81C77.532 144.743 77.3454 144.617 77.172 144.43L74.752 141.79C74.0187 142.03 73.222 142.15 72.362 142.15C71.302 142.15 70.332 141.97 69.452 141.61C68.5787 141.25 67.8287 140.747 67.202 140.1C66.582 139.447 66.0987 138.673 65.752 137.78C65.4054 136.88 65.232 135.893 65.232 134.82C65.232 133.753 65.4054 132.77 65.752 131.87C66.0987 130.97 66.582 130.197 67.202 129.55C67.8287 128.897 68.5787 128.39 69.452 128.03C70.332 127.663 71.302 127.48 72.362 127.48C73.4287 127.48 74.3987 127.663 75.272 128.03C76.1454 128.39 76.8954 128.897 77.522 129.55C78.1487 130.197 78.632 130.97 78.972 131.87C79.3187 132.77 79.492 133.753 79.492 134.82C79.492 135.487 79.422 136.123 79.282 136.73C79.1487 137.33 78.9554 137.89 78.702 138.41C78.4487 138.93 78.1354 139.403 77.762 139.83C77.3954 140.257 76.9787 140.63 76.512 140.95L80.182 144.92ZM85.1867 135.02C84.5267 135.387 84.0334 135.827 83.7067 136.34C83.3867 136.847 83.2267 137.393 83.2267 137.98C83.2267 138.393 83.3001 138.763 83.4467 139.09C83.6001 139.41 83.8001 139.68 84.0467 139.9C84.3001 140.12 84.5867 140.287 84.9067 140.4C85.2334 140.513 85.5667 140.57 85.9067 140.57C86.6134 140.57 87.2501 140.447 87.8167 140.2C88.3834 139.947 88.8867 139.61 89.3267 139.19L85.1867 135.02ZM94.5367 142H92.6367C92.4234 142 92.2534 141.977 92.1267 141.93C92.0067 141.877 91.8701 141.77 91.7167 141.61L90.3867 140.27C89.7601 140.857 89.0401 141.32 88.2267 141.66C87.4201 141.993 86.5334 142.16 85.5667 142.16C85.0267 142.16 84.4967 142.07 83.9767 141.89C83.4634 141.703 83.0034 141.437 82.5967 141.09C82.1901 140.743 81.8601 140.323 81.6067 139.83C81.3601 139.33 81.2367 138.767 81.2367 138.14C81.2367 137.68 81.3134 137.243 81.4667 136.83C81.6201 136.41 81.8334 136.027 82.1067 135.68C82.3801 135.327 82.7034 135.01 83.0767 134.73C83.4567 134.45 83.8667 134.21 84.3067 134.01C83.9134 133.497 83.6234 133 83.4367 132.52C83.2567 132.033 83.1667 131.537 83.1667 131.03C83.1667 130.543 83.2567 130.083 83.4367 129.65C83.6167 129.217 83.8734 128.84 84.2067 128.52C84.5401 128.2 84.9467 127.947 85.4267 127.76C85.9134 127.573 86.4601 127.48 87.0667 127.48C87.6067 127.48 88.0967 127.567 88.5367 127.74C88.9834 127.907 89.3667 128.133 89.6867 128.42C90.0067 128.707 90.2567 129.037 90.4367 129.41C90.6234 129.783 90.7301 130.173 90.7567 130.58L89.5367 130.83C89.2901 130.883 89.1101 130.773 88.9967 130.5C88.9434 130.327 88.8667 130.15 88.7667 129.97C88.6734 129.79 88.5467 129.63 88.3867 129.49C88.2334 129.343 88.0467 129.223 87.8267 129.13C87.6067 129.037 87.3534 128.99 87.0667 128.99C86.7467 128.99 86.4567 129.043 86.1967 129.15C85.9434 129.257 85.7267 129.403 85.5467 129.59C85.3667 129.77 85.2267 129.983 85.1267 130.23C85.0334 130.477 84.9867 130.74 84.9867 131.02C84.9867 131.24 85.0134 131.457 85.0667 131.67C85.1201 131.877 85.2001 132.087 85.3067 132.3C85.4201 132.507 85.5634 132.72 85.7367 132.94C85.9101 133.153 86.1167 133.383 86.3567 133.63L90.4067 137.78C90.6534 137.34 90.8501 136.877 90.9967 136.39C91.1434 135.903 91.2401 135.417 91.2867 134.93C91.3001 134.797 91.3401 134.69 91.4067 134.61C91.4801 134.53 91.5834 134.49 91.7167 134.49H92.9267C92.9201 135.29 92.7967 136.07 92.5567 136.83C92.3167 137.583 91.9767 138.283 91.5367 138.93L94.5367 142ZM104.611 136.65L102.481 131.08C102.328 130.7 102.174 130.22 102.021 129.64C101.948 129.927 101.871 130.193 101.791 130.44C101.718 130.687 101.644 130.907 101.571 131.1L99.4509 136.65H104.611ZM108.821 142H107.181C106.994 142 106.841 141.953 106.721 141.86C106.601 141.767 106.514 141.647 106.461 141.5L105.191 138.17H98.8609L97.5909 141.5C97.5443 141.627 97.4576 141.743 97.3309 141.85C97.2043 141.95 97.0509 142 96.8709 142H95.2309L100.951 127.64H103.101L108.821 142ZM119.358 135.03C119.898 135.03 120.372 134.96 120.778 134.82C121.192 134.68 121.535 134.483 121.808 134.23C122.088 133.97 122.298 133.663 122.438 133.31C122.578 132.95 122.648 132.553 122.648 132.12C122.648 131.247 122.375 130.56 121.828 130.06C121.288 129.56 120.465 129.31 119.358 129.31H117.138V135.03H119.358ZM119.358 127.64C120.278 127.64 121.078 127.747 121.758 127.96C122.438 128.173 123.002 128.477 123.448 128.87C123.895 129.257 124.225 129.727 124.438 130.28C124.658 130.833 124.768 131.447 124.768 132.12C124.768 132.793 124.652 133.413 124.418 133.98C124.185 134.54 123.842 135.023 123.388 135.43C122.935 135.837 122.368 136.153 121.688 136.38C121.015 136.6 120.238 136.71 119.358 136.71H117.138V142H115.008V127.64H119.358ZM128.659 127.24V142H126.699V127.24H128.659ZM136.904 137.49C136.111 137.517 135.438 137.58 134.884 137.68C134.331 137.773 133.881 137.9 133.534 138.06C133.188 138.22 132.938 138.41 132.784 138.63C132.631 138.843 132.554 139.083 132.554 139.35C132.554 139.603 132.594 139.823 132.674 140.01C132.761 140.19 132.874 140.34 133.014 140.46C133.161 140.573 133.331 140.657 133.524 140.71C133.718 140.763 133.928 140.79 134.154 140.79C134.454 140.79 134.728 140.76 134.974 140.7C135.228 140.64 135.464 140.557 135.684 140.45C135.904 140.337 136.114 140.2 136.314 140.04C136.514 139.88 136.711 139.697 136.904 139.49V137.49ZM131.184 133.26C131.751 132.72 132.364 132.317 133.024 132.05C133.691 131.783 134.421 131.65 135.214 131.65C135.794 131.65 136.308 131.747 136.754 131.94C137.201 132.127 137.578 132.39 137.884 132.73C138.191 133.07 138.421 133.477 138.574 133.95C138.734 134.423 138.814 134.947 138.814 135.52V142H137.944C137.751 142 137.604 141.97 137.504 141.91C137.404 141.843 137.324 141.723 137.264 141.55L137.054 140.66C136.794 140.9 136.538 141.113 136.284 141.3C136.031 141.48 135.764 141.637 135.484 141.77C135.211 141.897 134.918 141.993 134.604 142.06C134.291 142.127 133.944 142.16 133.564 142.16C133.164 142.16 132.788 142.107 132.434 142C132.088 141.887 131.784 141.717 131.524 141.49C131.264 141.263 131.058 140.98 130.904 140.64C130.758 140.3 130.684 139.903 130.684 139.45C130.684 139.05 130.791 138.667 131.004 138.3C131.224 137.927 131.578 137.593 132.064 137.3C132.558 137.007 133.198 136.767 133.984 136.58C134.778 136.393 135.751 136.287 136.904 136.26V135.52C136.904 134.753 136.741 134.18 136.414 133.8C136.088 133.42 135.608 133.23 134.974 133.23C134.548 133.23 134.188 133.283 133.894 133.39C133.608 133.497 133.358 133.617 133.144 133.75C132.938 133.877 132.754 133.993 132.594 134.1C132.441 134.207 132.281 134.26 132.114 134.26C131.981 134.26 131.864 134.223 131.764 134.15C131.671 134.077 131.594 133.99 131.534 133.89L131.184 133.26ZM148.718 142V133.42H143.858V139.37C143.858 139.77 143.955 140.07 144.148 140.27C144.348 140.463 144.601 140.56 144.908 140.56C145.088 140.56 145.241 140.537 145.368 140.49C145.501 140.443 145.615 140.393 145.708 140.34C145.801 140.28 145.881 140.227 145.948 140.18C146.015 140.133 146.075 140.11 146.128 140.11C146.195 140.11 146.245 140.127 146.278 140.16C146.318 140.187 146.358 140.233 146.398 140.3L146.978 141.24C146.658 141.533 146.278 141.76 145.838 141.92C145.398 142.08 144.941 142.16 144.468 142.16C143.648 142.16 143.015 141.93 142.568 141.47C142.128 141.01 141.908 140.353 141.908 139.5V133.42H140.728C140.615 133.42 140.518 133.387 140.438 133.32C140.365 133.247 140.328 133.14 140.328 133V132.21L141.978 131.98L142.418 128.95C142.445 128.837 142.495 128.75 142.568 128.69C142.648 128.623 142.748 128.59 142.868 128.59H143.858V132H148.718V131.08C148.718 130.5 148.801 129.983 148.968 129.53C149.135 129.077 149.371 128.693 149.678 128.38C149.991 128.06 150.368 127.82 150.808 127.66C151.248 127.493 151.741 127.41 152.288 127.41C152.735 127.41 153.158 127.477 153.558 127.61L153.508 128.59C153.501 128.677 153.475 128.743 153.428 128.79C153.388 128.83 153.328 128.86 153.248 128.88C153.168 128.9 153.075 128.913 152.968 128.92C152.861 128.92 152.741 128.92 152.608 128.92C152.308 128.92 152.035 128.957 151.788 129.03C151.541 129.103 151.331 129.227 151.158 129.4C150.985 129.573 150.851 129.803 150.758 130.09C150.665 130.37 150.618 130.72 150.618 131.14V132H153.468V133.42H150.678V142H148.718ZM159.134 131.68C159.88 131.68 160.554 131.803 161.154 132.05C161.76 132.29 162.274 132.64 162.694 133.1C163.12 133.553 163.447 134.103 163.674 134.75C163.9 135.39 164.014 136.11 164.014 136.91C164.014 137.71 163.9 138.433 163.674 139.08C163.447 139.727 163.12 140.277 162.694 140.73C162.274 141.183 161.76 141.533 161.154 141.78C160.554 142.02 159.88 142.14 159.134 142.14C158.38 142.14 157.7 142.02 157.094 141.78C156.494 141.533 155.98 141.183 155.554 140.73C155.127 140.277 154.797 139.727 154.564 139.08C154.337 138.433 154.224 137.71 154.224 136.91C154.224 136.11 154.337 135.39 154.564 134.75C154.797 134.103 155.127 133.553 155.554 133.1C155.98 132.64 156.494 132.29 157.094 132.05C157.7 131.803 158.38 131.68 159.134 131.68ZM159.134 140.62C160.094 140.62 160.81 140.297 161.284 139.65C161.757 139.003 161.994 138.093 161.994 136.92C161.994 135.747 161.757 134.837 161.284 134.19C160.81 133.537 160.094 133.21 159.134 133.21C158.16 133.21 157.434 133.537 156.954 134.19C156.48 134.837 156.244 135.747 156.244 136.92C156.244 138.093 156.48 139.003 156.954 139.65C157.434 140.297 158.16 140.62 159.134 140.62ZM168.03 133.79C168.357 133.123 168.75 132.6 169.21 132.22C169.67 131.84 170.224 131.65 170.87 131.65C171.09 131.65 171.297 131.677 171.49 131.73C171.69 131.777 171.864 131.85 172.01 131.95L171.88 133.42C171.834 133.6 171.724 133.69 171.55 133.69C171.457 133.69 171.317 133.673 171.13 133.64C170.944 133.6 170.744 133.58 170.53 133.58C170.217 133.58 169.94 133.627 169.7 133.72C169.46 133.807 169.244 133.94 169.05 134.12C168.864 134.293 168.697 134.51 168.55 134.77C168.404 135.023 168.267 135.313 168.14 135.64V142H166.19V131.84H167.31C167.524 131.84 167.667 131.88 167.74 131.96C167.82 132.033 167.877 132.167 167.91 132.36L168.03 133.79ZM173.515 142V131.84H174.685C174.958 131.84 175.128 131.97 175.195 132.23L175.335 133.2C175.708 132.753 176.121 132.39 176.575 132.11C177.035 131.823 177.571 131.68 178.185 131.68C178.858 131.68 179.405 131.867 179.825 132.24C180.245 132.607 180.551 133.107 180.745 133.74C180.891 133.38 181.081 133.07 181.315 132.81C181.548 132.55 181.808 132.337 182.095 132.17C182.381 132.003 182.685 131.88 183.005 131.8C183.331 131.72 183.661 131.68 183.995 131.68C184.535 131.68 185.015 131.767 185.435 131.94C185.861 132.107 186.221 132.353 186.515 132.68C186.808 133.007 187.031 133.41 187.185 133.89C187.338 134.37 187.415 134.917 187.415 135.53V142H185.455V135.53C185.455 134.77 185.288 134.197 184.955 133.81C184.628 133.423 184.148 133.23 183.515 133.23C183.235 133.23 182.968 133.28 182.715 133.38C182.461 133.473 182.238 133.617 182.045 133.81C181.858 134.003 181.708 134.243 181.595 134.53C181.488 134.817 181.435 135.15 181.435 135.53V142H179.475V135.53C179.475 134.743 179.318 134.163 179.005 133.79C178.691 133.417 178.231 133.23 177.625 133.23C177.205 133.23 176.815 133.34 176.455 133.56C176.095 133.78 175.765 134.08 175.465 134.46V142H173.515Z" fill="white"/>
<defs>
<linearGradient id="paint0_linear_144_63" x1="-26.8993" y1="91" x2="251" y2="91" gradientUnits="userSpaceOnUse">
<stop stop-color="#4EE8F2"/>
<stop offset="0.490537" stop-color="#0862F0"/>
</linearGradient>
<linearGradient id="paint1_linear_144_63" x1="-26.8993" y1="91" x2="251" y2="91" gradientUnits="userSpaceOnUse">
<stop stop-color="#4EE8F2"/>
<stop offset="0.490537" stop-color="#0862F0"/>
</linearGradient>
</defs>
</svg>
