<svg width="252" height="182" viewBox="0 0 252 182" fill="none" xmlns="http://www.w3.org/2000/svg">
<rect x="0.5" y="0.5" width="251" height="181" rx="20.5" fill="url(#paint0_linear_144_80)" stroke="url(#paint1_linear_144_80)"/>
<path fill-rule="evenodd" clip-rule="evenodd" d="M124.303 44.9624C119.697 42.1991 114.514 40.5386 109.159 40.1107C103.805 39.6828 98.4235 40.4991 93.4367 42.4958C92.7165 42.7824 92.099 43.279 91.6645 43.9209C91.23 44.5629 90.9985 45.3206 91 46.0958V84.9624C91 87.5624 93.63 89.3424 96.0467 88.3758C100.131 86.7429 104.537 86.0762 108.921 86.4277C113.305 86.7793 117.549 88.1396 121.32 90.4024L125.103 92.6691C125.393 92.8458 125.703 92.9191 126 92.9158C126.317 92.9219 126.629 92.8375 126.9 92.6724L130.68 90.4024C134.451 88.1396 138.695 86.7793 143.079 86.4277C147.463 86.0762 151.869 86.7429 155.953 88.3758C156.512 88.5991 157.116 88.6822 157.714 88.6178C158.312 88.5534 158.885 88.3434 159.383 88.0063C159.881 87.6691 160.289 87.2151 160.571 86.6839C160.853 86.1527 161 85.5605 161 84.9591V46.0958C161 44.5091 160.033 43.0858 158.563 42.4958C153.576 40.5006 148.196 39.6857 142.842 40.1148C137.488 40.5439 132.305 42.2052 127.7 44.9691L126 45.9891L124.303 44.9624ZM128.503 52.9291C128.503 52.2661 128.24 51.6302 127.771 51.1613C127.302 50.6925 126.666 50.4291 126.003 50.4291C125.34 50.4291 124.704 50.6925 124.236 51.1613C123.767 51.6302 123.503 52.2661 123.503 52.9291V84.5958C123.503 85.2588 123.767 85.8947 124.236 86.3635C124.704 86.8324 125.34 87.0958 126.003 87.0958C126.666 87.0958 127.302 86.8324 127.771 86.3635C128.24 85.8947 128.503 85.2588 128.503 84.5958V52.9291Z" fill="white"/>
<path d="M95.0894 94.7358C98.4028 92.8031 102.17 91.7847 106.006 91.7847C109.842 91.7847 113.609 92.8031 116.923 94.7358L120.546 96.8491C122.203 97.8161 124.087 98.3257 126.006 98.3257C127.925 98.3257 129.809 97.8161 131.466 96.8491L135.089 94.7358C138.403 92.8031 142.17 91.7847 146.006 91.7847C149.842 91.7847 153.609 92.8031 156.923 94.7358L157.266 94.9358C157.55 95.1013 157.798 95.321 157.997 95.5824C158.195 95.8438 158.341 96.1418 158.424 96.4594C158.508 96.777 158.528 97.1079 158.484 97.4333C158.439 97.7587 158.331 98.0722 158.166 98.3558C158.001 98.6395 157.781 98.8878 157.519 99.0865C157.258 99.2852 156.96 99.4305 156.642 99.5141C156.325 99.5977 155.994 99.6179 155.669 99.5736C155.343 99.5293 155.03 99.4213 154.746 99.2558L154.403 99.0558C151.854 97.5694 148.956 96.7862 146.006 96.7862C143.056 96.7862 140.158 97.5694 137.609 99.0558L133.983 101.169C131.561 102.581 128.809 103.325 126.006 103.325C123.203 103.325 120.451 102.581 118.029 101.169L114.403 99.0558C111.854 97.5694 108.956 96.7862 106.006 96.7862C103.056 96.7862 100.158 97.5694 97.6094 99.0558L97.266 99.2558C96.6931 99.59 96.011 99.6829 95.3696 99.5141C94.7282 99.3453 94.1802 98.9287 93.846 98.3558C93.5118 97.7829 93.4189 97.1008 93.5877 96.4594C93.7565 95.818 94.1731 95.27 94.746 94.9358L95.0894 94.7358Z" fill="white"/>
<path d="M56.0978 123.885C56.6445 123.885 57.1245 123.819 57.5378 123.685C57.9578 123.552 58.3078 123.365 58.5878 123.125C58.8678 122.879 59.0778 122.589 59.2178 122.255C59.3578 121.915 59.4278 121.542 59.4278 121.135C59.4278 120.309 59.1545 119.685 58.6078 119.265C58.0678 118.845 57.2545 118.635 56.1678 118.635H54.1578V123.885H56.0978ZM62.7978 131.325H60.8978C60.5178 131.325 60.2411 131.175 60.0678 130.875L56.5178 125.895C56.4045 125.729 56.2811 125.612 56.1478 125.545C56.0145 125.472 55.8145 125.435 55.5478 125.435H54.1578V131.325H52.0278V116.965H56.1678C57.0945 116.965 57.8911 117.062 58.5578 117.255C59.2311 117.442 59.7845 117.712 60.2178 118.065C60.6578 118.412 60.9811 118.832 61.1878 119.325C61.4011 119.819 61.5078 120.372 61.5078 120.985C61.5078 121.485 61.4311 121.955 61.2778 122.395C61.1245 122.835 60.8978 123.232 60.5978 123.585C60.3045 123.932 59.9445 124.232 59.5178 124.485C59.0911 124.739 58.6078 124.932 58.0678 125.065C58.3345 125.225 58.5645 125.449 58.7578 125.735L62.7978 131.325ZM70.3109 125.115C70.3109 124.729 70.2543 124.372 70.1409 124.045C70.0343 123.719 69.8743 123.435 69.6609 123.195C69.4476 122.955 69.1876 122.769 68.8809 122.635C68.5743 122.502 68.2209 122.435 67.8209 122.435C67.0009 122.435 66.3543 122.672 65.8809 123.145C65.4143 123.619 65.1176 124.275 64.9909 125.115H70.3109ZM71.9209 129.875C71.6809 130.155 71.4043 130.399 71.0909 130.605C70.7776 130.805 70.4443 130.969 70.0909 131.095C69.7376 131.222 69.3709 131.315 68.9909 131.375C68.6176 131.435 68.2476 131.465 67.8809 131.465C67.1809 131.465 66.5309 131.349 65.9309 131.115C65.3376 130.875 64.8209 130.529 64.3809 130.075C63.9476 129.615 63.6076 129.049 63.3609 128.375C63.1209 127.695 63.0009 126.915 63.0009 126.035C63.0009 125.329 63.1109 124.672 63.3309 124.065C63.5509 123.452 63.8643 122.919 64.2709 122.465C64.6843 122.012 65.1876 121.655 65.7809 121.395C66.3743 121.135 67.0409 121.005 67.7809 121.005C68.4009 121.005 68.9709 121.109 69.4909 121.315C70.0176 121.515 70.4709 121.809 70.8509 122.195C71.2309 122.582 71.5276 123.059 71.7409 123.625C71.9609 124.192 72.0709 124.839 72.0709 125.565C72.0709 125.865 72.0376 126.069 71.9709 126.175C71.9043 126.275 71.7809 126.325 71.6009 126.325H64.9409C64.9609 126.932 65.0476 127.462 65.2009 127.915C65.3543 128.362 65.5643 128.735 65.8309 129.035C66.1043 129.335 66.4276 129.559 66.8009 129.705C67.1743 129.852 67.5909 129.925 68.0509 129.925C68.4843 129.925 68.8576 129.875 69.1709 129.775C69.4909 129.675 69.7643 129.569 69.9909 129.455C70.2243 129.335 70.4176 129.225 70.5709 129.125C70.7309 129.025 70.8709 128.975 70.9909 128.975C71.1509 128.975 71.2743 129.035 71.3609 129.155L71.9209 129.875ZM80.1569 122.915C80.1035 123.002 80.0469 123.065 79.9869 123.105C79.9269 123.139 79.8502 123.155 79.7569 123.155C79.6502 123.155 79.5302 123.119 79.3969 123.045C79.2702 122.972 79.1135 122.892 78.9269 122.805C78.7469 122.719 78.5335 122.639 78.2869 122.565C78.0402 122.492 77.7469 122.455 77.4069 122.455C77.1269 122.455 76.8702 122.492 76.6369 122.565C76.4102 122.632 76.2169 122.729 76.0569 122.855C75.8969 122.975 75.7735 123.122 75.6869 123.295C75.6002 123.462 75.5569 123.642 75.5569 123.835C75.5569 124.089 75.6302 124.299 75.7769 124.465C75.9302 124.632 76.1269 124.775 76.3669 124.895C76.6135 125.015 76.8902 125.125 77.1969 125.225C77.5102 125.319 77.8269 125.419 78.1469 125.525C78.4735 125.632 78.7902 125.755 79.0969 125.895C79.4102 126.029 79.6869 126.199 79.9269 126.405C80.1735 126.605 80.3702 126.849 80.5169 127.135C80.6702 127.422 80.7469 127.772 80.7469 128.185C80.7469 128.659 80.6602 129.099 80.4869 129.505C80.3202 129.905 80.0702 130.252 79.7369 130.545C79.4102 130.839 79.0035 131.069 78.5169 131.235C78.0302 131.402 77.4735 131.485 76.8469 131.485C76.1469 131.485 75.5002 131.369 74.9069 131.135C74.3135 130.902 73.8169 130.605 73.4169 130.245L73.8769 129.495C73.9302 129.402 73.9969 129.332 74.0769 129.285C74.1569 129.232 74.2635 129.205 74.3969 129.205C74.5235 129.205 74.6535 129.252 74.7869 129.345C74.9202 129.439 75.0802 129.542 75.2669 129.655C75.4535 129.762 75.6802 129.862 75.9469 129.955C76.2135 130.042 76.5469 130.085 76.9469 130.085C77.2802 130.085 77.5702 130.045 77.8169 129.965C78.0635 129.879 78.2669 129.765 78.4269 129.625C78.5935 129.479 78.7169 129.312 78.7969 129.125C78.8769 128.939 78.9169 128.742 78.9169 128.535C78.9169 128.269 78.8402 128.049 78.6869 127.875C78.5402 127.695 78.3435 127.542 78.0969 127.415C77.8569 127.289 77.5802 127.179 77.2669 127.085C76.9535 126.992 76.6335 126.892 76.3069 126.785C75.9802 126.679 75.6602 126.555 75.3469 126.415C75.0335 126.275 74.7535 126.099 74.5069 125.885C74.2669 125.672 74.0702 125.412 73.9169 125.105C73.7702 124.799 73.6969 124.425 73.6969 123.985C73.6969 123.592 73.7769 123.215 73.9369 122.855C74.1035 122.495 74.3402 122.179 74.6469 121.905C74.9602 121.632 75.3435 121.415 75.7969 121.255C76.2569 121.089 76.7802 121.005 77.3669 121.005C78.0402 121.005 78.6469 121.112 79.1869 121.325C79.7335 121.539 80.2002 121.832 80.5869 122.205L80.1569 122.915ZM87.1883 121.005C87.9349 121.005 88.6083 121.129 89.2083 121.375C89.8149 121.615 90.3283 121.965 90.7483 122.425C91.1749 122.879 91.5016 123.429 91.7283 124.075C91.9549 124.715 92.0683 125.435 92.0683 126.235C92.0683 127.035 91.9549 127.759 91.7283 128.405C91.5016 129.052 91.1749 129.602 90.7483 130.055C90.3283 130.509 89.8149 130.859 89.2083 131.105C88.6083 131.345 87.9349 131.465 87.1883 131.465C86.4349 131.465 85.7549 131.345 85.1483 131.105C84.5483 130.859 84.0349 130.509 83.6083 130.055C83.1816 129.602 82.8516 129.052 82.6183 128.405C82.3916 127.759 82.2783 127.035 82.2783 126.235C82.2783 125.435 82.3916 124.715 82.6183 124.075C82.8516 123.429 83.1816 122.879 83.6083 122.425C84.0349 121.965 84.5483 121.615 85.1483 121.375C85.7549 121.129 86.4349 121.005 87.1883 121.005ZM87.1883 129.945C88.1483 129.945 88.8649 129.622 89.3383 128.975C89.8116 128.329 90.0483 127.419 90.0483 126.245C90.0483 125.072 89.8116 124.162 89.3383 123.515C88.8649 122.862 88.1483 122.535 87.1883 122.535C86.2149 122.535 85.4883 122.862 85.0083 123.515C84.5349 124.162 84.2983 125.072 84.2983 126.245C84.2983 127.419 84.5349 128.329 85.0083 128.975C85.4883 129.622 86.2149 129.945 87.1883 129.945ZM102.695 121.165V131.325H101.525C101.258 131.325 101.085 131.195 101.005 130.935L100.865 129.915C100.645 130.149 100.415 130.362 100.175 130.555C99.935 130.749 99.6783 130.915 99.405 131.055C99.1317 131.189 98.8417 131.292 98.535 131.365C98.2283 131.445 97.8983 131.485 97.545 131.485C96.985 131.485 96.4917 131.392 96.065 131.205C95.645 131.019 95.2917 130.759 95.005 130.425C94.7183 130.085 94.5017 129.679 94.355 129.205C94.2083 128.732 94.135 128.209 94.135 127.635V121.165H96.095V127.635C96.095 128.362 96.2617 128.929 96.595 129.335C96.9283 129.735 97.4383 129.935 98.125 129.935C98.625 129.935 99.0917 129.819 99.525 129.585C99.9583 129.345 100.365 129.019 100.745 128.605V121.165H102.695ZM107.257 123.115C107.584 122.449 107.977 121.925 108.437 121.545C108.897 121.165 109.45 120.975 110.097 120.975C110.317 120.975 110.524 121.002 110.717 121.055C110.917 121.102 111.09 121.175 111.237 121.275L111.107 122.745C111.06 122.925 110.95 123.015 110.777 123.015C110.684 123.015 110.544 122.999 110.357 122.965C110.17 122.925 109.97 122.905 109.757 122.905C109.444 122.905 109.167 122.952 108.927 123.045C108.687 123.132 108.47 123.265 108.277 123.445C108.09 123.619 107.924 123.835 107.777 124.095C107.63 124.349 107.494 124.639 107.367 124.965V131.325H105.417V121.165H106.537C106.75 121.165 106.894 121.205 106.967 121.285C107.047 121.359 107.104 121.492 107.137 121.685L107.257 123.115ZM119.49 123.065C119.43 123.139 119.37 123.199 119.31 123.245C119.257 123.285 119.177 123.305 119.07 123.305C118.963 123.305 118.85 123.265 118.73 123.185C118.617 123.099 118.47 123.009 118.29 122.915C118.117 122.815 117.903 122.725 117.65 122.645C117.403 122.559 117.097 122.515 116.73 122.515C116.25 122.515 115.827 122.602 115.46 122.775C115.093 122.949 114.787 123.195 114.54 123.515C114.3 123.835 114.117 124.225 113.99 124.685C113.863 125.145 113.8 125.662 113.8 126.235C113.8 126.829 113.867 127.359 114 127.825C114.133 128.285 114.323 128.675 114.57 128.995C114.817 129.309 115.117 129.549 115.47 129.715C115.823 129.875 116.217 129.955 116.65 129.955C117.07 129.955 117.417 129.905 117.69 129.805C117.963 129.699 118.19 129.585 118.37 129.465C118.55 129.345 118.7 129.235 118.82 129.135C118.94 129.029 119.063 128.975 119.19 128.975C119.35 128.975 119.473 129.035 119.56 129.155L120.12 129.875C119.887 130.162 119.623 130.405 119.33 130.605C119.043 130.805 118.737 130.969 118.41 131.095C118.083 131.222 117.74 131.315 117.38 131.375C117.027 131.435 116.667 131.465 116.3 131.465C115.667 131.465 115.073 131.349 114.52 131.115C113.973 130.882 113.497 130.542 113.09 130.095C112.69 129.649 112.373 129.102 112.14 128.455C111.907 127.802 111.79 127.062 111.79 126.235C111.79 125.482 111.893 124.785 112.1 124.145C112.313 123.505 112.623 122.955 113.03 122.495C113.443 122.029 113.95 121.665 114.55 121.405C115.15 121.139 115.837 121.005 116.61 121.005C117.337 121.005 117.977 121.122 118.53 121.355C119.083 121.589 119.577 121.919 120.01 122.345L119.49 123.065ZM128.495 125.115C128.495 124.729 128.438 124.372 128.325 124.045C128.218 123.719 128.058 123.435 127.845 123.195C127.631 122.955 127.371 122.769 127.065 122.635C126.758 122.502 126.405 122.435 126.005 122.435C125.185 122.435 124.538 122.672 124.065 123.145C123.598 123.619 123.301 124.275 123.175 125.115H128.495ZM130.105 129.875C129.865 130.155 129.588 130.399 129.275 130.605C128.961 130.805 128.628 130.969 128.275 131.095C127.921 131.222 127.555 131.315 127.175 131.375C126.801 131.435 126.431 131.465 126.065 131.465C125.365 131.465 124.715 131.349 124.115 131.115C123.521 130.875 123.005 130.529 122.565 130.075C122.131 129.615 121.791 129.049 121.545 128.375C121.305 127.695 121.185 126.915 121.185 126.035C121.185 125.329 121.295 124.672 121.515 124.065C121.735 123.452 122.048 122.919 122.455 122.465C122.868 122.012 123.371 121.655 123.965 121.395C124.558 121.135 125.225 121.005 125.965 121.005C126.585 121.005 127.155 121.109 127.675 121.315C128.201 121.515 128.655 121.809 129.035 122.195C129.415 122.582 129.711 123.059 129.925 123.625C130.145 124.192 130.255 124.839 130.255 125.565C130.255 125.865 130.221 126.069 130.155 126.175C130.088 126.275 129.965 126.325 129.785 126.325H123.125C123.145 126.932 123.231 127.462 123.385 127.915C123.538 128.362 123.748 128.735 124.015 129.035C124.288 129.335 124.611 129.559 124.985 129.705C125.358 129.852 125.775 129.925 126.235 129.925C126.668 129.925 127.041 129.875 127.355 129.775C127.675 129.675 127.948 129.569 128.175 129.455C128.408 129.335 128.601 129.225 128.755 129.125C128.915 129.025 129.055 128.975 129.175 128.975C129.335 128.975 129.458 129.035 129.545 129.155L130.105 129.875ZM145.239 119.305C145.172 119.419 145.102 119.502 145.029 119.555C144.956 119.609 144.862 119.635 144.749 119.635C144.629 119.635 144.492 119.582 144.339 119.475C144.186 119.362 143.992 119.239 143.759 119.105C143.532 118.965 143.259 118.842 142.939 118.735C142.619 118.622 142.236 118.565 141.789 118.565C141.369 118.565 140.999 118.622 140.679 118.735C140.366 118.842 140.102 118.992 139.889 119.185C139.676 119.372 139.512 119.595 139.399 119.855C139.292 120.109 139.239 120.385 139.239 120.685C139.239 121.072 139.336 121.392 139.529 121.645C139.729 121.899 139.989 122.115 140.309 122.295C140.629 122.475 140.992 122.632 141.399 122.765C141.806 122.899 142.222 123.039 142.649 123.185C143.076 123.325 143.492 123.489 143.899 123.675C144.306 123.862 144.669 124.099 144.989 124.385C145.309 124.665 145.566 125.012 145.759 125.425C145.959 125.832 146.059 126.332 146.059 126.925C146.059 127.559 145.949 128.152 145.729 128.705C145.516 129.259 145.202 129.742 144.789 130.155C144.376 130.569 143.866 130.895 143.259 131.135C142.659 131.369 141.976 131.485 141.209 131.485C140.749 131.485 140.302 131.439 139.869 131.345C139.436 131.259 139.026 131.135 138.639 130.975C138.252 130.809 137.889 130.612 137.549 130.385C137.216 130.152 136.916 129.892 136.649 129.605L137.259 128.585C137.319 128.505 137.389 128.439 137.469 128.385C137.556 128.332 137.652 128.305 137.759 128.305C137.899 128.305 138.059 128.379 138.239 128.525C138.426 128.672 138.652 128.835 138.919 129.015C139.192 129.189 139.516 129.349 139.889 129.495C140.269 129.642 140.729 129.715 141.269 129.715C141.709 129.715 142.102 129.659 142.449 129.545C142.796 129.425 143.086 129.259 143.319 129.045C143.559 128.825 143.742 128.562 143.869 128.255C143.996 127.949 144.059 127.609 144.059 127.235C144.059 126.815 143.962 126.472 143.769 126.205C143.576 125.939 143.319 125.715 142.999 125.535C142.679 125.355 142.316 125.202 141.909 125.075C141.502 124.949 141.086 124.819 140.659 124.685C140.232 124.545 139.816 124.385 139.409 124.205C139.002 124.025 138.639 123.792 138.319 123.505C137.999 123.212 137.742 122.849 137.549 122.415C137.356 121.975 137.259 121.435 137.259 120.795C137.259 120.282 137.359 119.785 137.559 119.305C137.759 118.825 138.049 118.402 138.429 118.035C138.816 117.662 139.289 117.365 139.849 117.145C140.409 116.919 141.049 116.805 141.769 116.805C142.576 116.805 143.316 116.935 143.989 117.195C144.669 117.449 145.259 117.815 145.759 118.295L145.239 119.305ZM150.062 122.455C150.489 122.022 150.959 121.672 151.472 121.405C151.992 121.139 152.589 121.005 153.262 121.005C153.822 121.005 154.312 121.099 154.732 121.285C155.159 121.472 155.516 121.735 155.802 122.075C156.089 122.409 156.306 122.812 156.452 123.285C156.599 123.759 156.672 124.282 156.672 124.855V131.325H154.712V124.855C154.712 124.129 154.546 123.565 154.212 123.165C153.879 122.759 153.369 122.555 152.682 122.555C152.182 122.555 151.712 122.675 151.272 122.915C150.839 123.149 150.436 123.469 150.062 123.875V131.325H148.112V116.565H150.062V122.455ZM164.764 126.815C163.97 126.842 163.297 126.905 162.744 127.005C162.19 127.099 161.74 127.225 161.394 127.385C161.047 127.545 160.797 127.735 160.644 127.955C160.49 128.169 160.414 128.409 160.414 128.675C160.414 128.929 160.454 129.149 160.534 129.335C160.62 129.515 160.734 129.665 160.874 129.785C161.02 129.899 161.19 129.982 161.384 130.035C161.577 130.089 161.787 130.115 162.014 130.115C162.314 130.115 162.587 130.085 162.834 130.025C163.087 129.965 163.324 129.882 163.544 129.775C163.764 129.662 163.974 129.525 164.174 129.365C164.374 129.205 164.57 129.022 164.764 128.815V126.815ZM159.044 122.585C159.61 122.045 160.224 121.642 160.884 121.375C161.55 121.109 162.28 120.975 163.074 120.975C163.654 120.975 164.167 121.072 164.614 121.265C165.06 121.452 165.437 121.715 165.744 122.055C166.05 122.395 166.28 122.802 166.434 123.275C166.594 123.749 166.674 124.272 166.674 124.845V131.325H165.804C165.61 131.325 165.464 131.295 165.364 131.235C165.264 131.169 165.184 131.049 165.124 130.875L164.914 129.985C164.654 130.225 164.397 130.439 164.144 130.625C163.89 130.805 163.624 130.962 163.344 131.095C163.07 131.222 162.777 131.319 162.464 131.385C162.15 131.452 161.804 131.485 161.424 131.485C161.024 131.485 160.647 131.432 160.294 131.325C159.947 131.212 159.644 131.042 159.384 130.815C159.124 130.589 158.917 130.305 158.764 129.965C158.617 129.625 158.544 129.229 158.544 128.775C158.544 128.375 158.65 127.992 158.864 127.625C159.084 127.252 159.437 126.919 159.924 126.625C160.417 126.332 161.057 126.092 161.844 125.905C162.637 125.719 163.61 125.612 164.764 125.585V124.845C164.764 124.079 164.6 123.505 164.274 123.125C163.947 122.745 163.467 122.555 162.834 122.555C162.407 122.555 162.047 122.609 161.754 122.715C161.467 122.822 161.217 122.942 161.004 123.075C160.797 123.202 160.614 123.319 160.454 123.425C160.3 123.532 160.14 123.585 159.974 123.585C159.84 123.585 159.724 123.549 159.624 123.475C159.53 123.402 159.454 123.315 159.394 123.215L159.044 122.585ZM171.124 123.115C171.451 122.449 171.844 121.925 172.304 121.545C172.764 121.165 173.317 120.975 173.964 120.975C174.184 120.975 174.391 121.002 174.584 121.055C174.784 121.102 174.957 121.175 175.104 121.275L174.974 122.745C174.927 122.925 174.817 123.015 174.644 123.015C174.551 123.015 174.411 122.999 174.224 122.965C174.037 122.925 173.837 122.905 173.624 122.905C173.311 122.905 173.034 122.952 172.794 123.045C172.554 123.132 172.337 123.265 172.144 123.445C171.957 123.619 171.791 123.835 171.644 124.095C171.497 124.349 171.361 124.639 171.234 124.965V131.325H169.284V121.165H170.404C170.617 121.165 170.761 121.205 170.834 121.285C170.914 121.359 170.971 121.492 171.004 121.685L171.124 123.115ZM178.648 121.165V131.325H176.698V121.165H178.648ZM179.018 118.025C179.018 118.205 178.982 118.379 178.908 118.545C178.835 118.705 178.735 118.849 178.608 118.975C178.488 119.095 178.345 119.192 178.178 119.265C178.012 119.332 177.838 119.365 177.658 119.365C177.478 119.365 177.308 119.332 177.148 119.265C176.988 119.192 176.845 119.095 176.718 118.975C176.598 118.849 176.502 118.705 176.428 118.545C176.362 118.379 176.328 118.205 176.328 118.025C176.328 117.839 176.362 117.665 176.428 117.505C176.502 117.339 176.598 117.195 176.718 117.075C176.845 116.949 176.988 116.852 177.148 116.785C177.308 116.712 177.478 116.675 177.658 116.675C177.838 116.675 178.012 116.712 178.178 116.785C178.345 116.852 178.488 116.949 178.608 117.075C178.735 117.195 178.835 117.339 178.908 117.505C178.982 117.665 179.018 117.839 179.018 118.025ZM183.302 122.575C183.522 122.342 183.752 122.129 183.992 121.935C184.232 121.742 184.485 121.579 184.752 121.445C185.025 121.305 185.315 121.199 185.622 121.125C185.935 121.045 186.268 121.005 186.622 121.005C187.182 121.005 187.672 121.099 188.092 121.285C188.518 121.472 188.875 121.735 189.162 122.075C189.448 122.409 189.665 122.812 189.812 123.285C189.958 123.759 190.032 124.282 190.032 124.855V131.325H188.072V124.855C188.072 124.129 187.905 123.565 187.572 123.165C187.238 122.759 186.728 122.555 186.042 122.555C185.542 122.555 185.072 122.675 184.632 122.915C184.198 123.149 183.795 123.469 183.422 123.875V131.325H181.472V121.165H182.642C182.915 121.165 183.085 121.295 183.152 121.555L183.302 122.575ZM196.233 126.255C196.58 126.255 196.883 126.209 197.143 126.115C197.41 126.022 197.63 125.892 197.803 125.725C197.983 125.552 198.116 125.345 198.203 125.105C198.296 124.865 198.343 124.602 198.343 124.315C198.343 123.729 198.163 123.262 197.803 122.915C197.45 122.562 196.926 122.385 196.233 122.385C195.546 122.385 195.023 122.562 194.663 122.915C194.31 123.262 194.133 123.729 194.133 124.315C194.133 124.602 194.176 124.865 194.263 125.105C194.356 125.339 194.49 125.542 194.663 125.715C194.843 125.882 195.063 126.015 195.323 126.115C195.59 126.209 195.893 126.255 196.233 126.255ZM199.343 131.855C199.343 131.615 199.276 131.425 199.143 131.285C199.01 131.139 198.826 131.025 198.593 130.945C198.366 130.859 198.1 130.799 197.793 130.765C197.486 130.725 197.163 130.695 196.823 130.675C196.49 130.655 196.146 130.639 195.793 130.625C195.44 130.605 195.1 130.572 194.773 130.525C194.426 130.699 194.14 130.909 193.913 131.155C193.693 131.402 193.583 131.692 193.583 132.025C193.583 132.239 193.636 132.439 193.743 132.625C193.856 132.812 194.026 132.972 194.253 133.105C194.486 133.245 194.776 133.352 195.123 133.425C195.476 133.505 195.896 133.545 196.383 133.545C196.863 133.545 197.286 133.502 197.653 133.415C198.02 133.335 198.326 133.219 198.573 133.065C198.826 132.919 199.016 132.742 199.143 132.535C199.276 132.329 199.343 132.102 199.343 131.855ZM201.323 121.545V122.275C201.323 122.515 201.173 122.665 200.873 122.725L199.783 122.885C199.876 123.092 199.95 123.312 200.003 123.545C200.056 123.772 200.083 124.012 200.083 124.265C200.083 124.765 199.986 125.219 199.793 125.625C199.6 126.025 199.333 126.369 198.993 126.655C198.653 126.942 198.246 127.162 197.773 127.315C197.306 127.469 196.793 127.545 196.233 127.545C195.773 127.545 195.343 127.495 194.943 127.395C194.743 127.515 194.59 127.649 194.483 127.795C194.383 127.935 194.333 128.075 194.333 128.215C194.333 128.449 194.43 128.622 194.623 128.735C194.823 128.849 195.08 128.932 195.393 128.985C195.713 129.032 196.076 129.062 196.483 129.075C196.896 129.089 197.313 129.112 197.733 129.145C198.16 129.172 198.576 129.225 198.983 129.305C199.396 129.379 199.76 129.502 200.073 129.675C200.393 129.842 200.65 130.075 200.843 130.375C201.043 130.669 201.143 131.052 201.143 131.525C201.143 131.965 201.033 132.392 200.813 132.805C200.6 133.219 200.286 133.585 199.873 133.905C199.46 134.225 198.956 134.482 198.363 134.675C197.77 134.869 197.096 134.965 196.343 134.965C195.59 134.965 194.933 134.892 194.373 134.745C193.82 134.599 193.356 134.402 192.983 134.155C192.616 133.909 192.34 133.622 192.153 133.295C191.973 132.969 191.883 132.629 191.883 132.275C191.883 131.782 192.036 131.365 192.343 131.025C192.65 130.679 193.073 130.409 193.613 130.215C193.32 130.082 193.086 129.902 192.913 129.675C192.74 129.442 192.653 129.135 192.653 128.755C192.653 128.609 192.68 128.459 192.733 128.305C192.786 128.145 192.866 127.989 192.973 127.835C193.086 127.675 193.223 127.525 193.383 127.385C193.55 127.245 193.74 127.119 193.953 127.005C193.453 126.725 193.06 126.355 192.773 125.895C192.486 125.429 192.343 124.885 192.343 124.265C192.343 123.765 192.44 123.315 192.633 122.915C192.826 122.515 193.093 122.172 193.433 121.885C193.78 121.599 194.19 121.379 194.663 121.225C195.143 121.072 195.666 120.995 196.233 120.995C197.113 120.995 197.87 121.179 198.503 121.545H201.323Z" fill="white"/>
<defs>
<linearGradient id="paint0_linear_144_80" x1="-26.8993" y1="91" x2="251" y2="91" gradientUnits="userSpaceOnUse">
<stop stop-color="#4EE8F2"/>
<stop offset="0.490537" stop-color="#0862F0"/>
</linearGradient>
<linearGradient id="paint1_linear_144_80" x1="-26.8993" y1="91" x2="251" y2="91" gradientUnits="userSpaceOnUse">
<stop stop-color="#4EE8F2"/>
<stop offset="0.490537" stop-color="#0862F0"/>
</linearGradient>
</defs>
</svg>
